<?xml version="1.0" encoding="UTF-8" standalone="no"?>
<!DOCTYPE svg PUBLIC "-//W3C//DTD SVG 1.1//EN" "http://www.w3.org/Graphics/SVG/1.1/DTD/svg11.dtd">
<svg xmlns="http://www.w3.org/2000/svg" version="1.1" viewBox="0.00 0.00 540.00 291.00">
<path fill="#39a1ab" fill-opacity="0.996" d="
  M 271.08 45.81
  Q 280.39 45.81 281.15 45.84
  A 0.56 0.56 0.0 0 1 281.69 46.40
  L 281.69 53.90
  A 0.71 0.71 0.0 0 0 282.40 54.61
  L 290.77 54.61
  A 0.64 0.63 -0.0 0 1 291.41 55.24
  L 291.41 63.09
  A 0.84 0.84 0.0 0 0 292.25 63.93
  L 299.99 63.93
  A 1.02 1.02 0.0 0 1 301.01 64.95
  L 301.01 73.12
  A 0.65 0.65 0.0 0 0 301.66 73.77
  L 310.13 73.77
  A 0.59 0.59 0.0 0 1 310.72 74.36
  L 310.72 94.24
  A 0.64 0.64 0.0 0 1 310.08 94.88
  L 301.55 94.88
  A 0.51 0.50 -0.0 0 0 301.04 95.38
  L 301.04 103.96
  A 0.61 0.61 0.0 0 1 300.43 104.57
  L 292.06 104.57
  A 0.66 0.65 0.0 0 0 291.40 105.22
  L 291.40 113.74
  A 0.59 0.59 0.0 0 1 290.81 114.33
  L 282.49 114.33
  A 0.79 0.78 0.0 0 0 281.70 115.11
  L 281.70 122.85
  A 0.91 0.91 0.0 0 1 280.84 123.76
  Q 279.45 123.83 271.09 123.84
  Q 262.73 123.84 261.33 123.76
  A 0.91 0.91 0.0 0 1 260.48 122.85
  L 260.48 115.11
  A 0.79 0.78 -0.0 0 0 259.69 114.33
  L 251.37 114.33
  A 0.59 0.59 0.0 0 1 250.78 113.74
  L 250.78 105.22
  A 0.66 0.65 -0.0 0 0 250.12 104.57
  L 241.75 104.57
  A 0.61 0.61 0.0 0 1 241.14 103.96
  L 241.14 95.38
  A 0.51 0.50 -0.0 0 0 240.63 94.88
  L 232.10 94.88
  A 0.64 0.64 0.0 0 1 231.46 94.24
  L 231.45 74.36
  A 0.59 0.59 0.0 0 1 232.04 73.77
  L 240.51 73.77
  A 0.65 0.65 0.0 0 0 241.16 73.12
  L 241.16 64.95
  A 1.02 1.02 0.0 0 1 242.18 63.93
  L 249.92 63.93
  A 0.84 0.84 0.0 0 0 250.76 63.09
  L 250.76 55.24
  A 0.64 0.63 -0.0 0 1 251.40 54.61
  L 259.77 54.61
  A 0.71 0.71 0.0 0 0 260.48 53.90
  L 260.48 46.40
  A 0.56 0.56 0.0 0 1 261.02 45.84
  Q 261.78 45.81 271.08 45.81
  Z
  M 252.46 65.74
  C 252.38 65.82 252.37 65.83 252.29 65.83
  Q 249.29 66.03 243.80 65.89
  A 0.65 0.64 -89.1 0 0 243.14 66.54
  L 243.14 74.86
  A 0.87 0.86 0.0 0 1 242.27 75.72
  L 233.96 75.73
  A 0.55 0.54 0.3 0 0 233.41 76.27
  Q 233.41 80.12 233.41 84.36
  Q 233.41 88.59 233.42 92.45
  A 0.55 0.54 -0.3 0 0 233.96 92.99
  L 242.27 92.99
  A 0.87 0.86 -0.0 0 1 243.14 93.85
  L 243.15 102.17
  A 0.65 0.64 89.1 0 0 243.81 102.82
  Q 249.30 102.68 252.30 102.87
  C 252.38 102.88 252.39 102.89 252.46 102.96
  C 252.54 103.04 252.55 103.05 252.55 103.12
  Q 252.75 106.13 252.61 111.62
  A 0.65 0.64 0.9 0 0 253.26 112.28
  L 261.58 112.28
  A 0.87 0.86 90.0 0 1 262.44 113.15
  L 262.45 121.46
  A 0.55 0.54 -89.7 0 0 262.99 122.00
  Q 266.85 122.01 271.08 122.00
  Q 275.31 122.00 279.17 122.00
  A 0.55 0.54 89.7 0 0 279.71 121.45
  L 279.71 113.14
  A 0.87 0.86 90.0 0 1 280.57 112.27
  L 288.89 112.27
  A 0.65 0.64 -0.9 0 0 289.54 111.61
  Q 289.40 106.12 289.60 103.11
  C 289.60 103.04 289.61 103.03 289.68 102.95
  C 289.76 102.88 289.77 102.87 289.84 102.87
  Q 292.85 102.67 298.34 102.81
  A 0.65 0.64 -89.1 0 0 299.00 102.16
  L 299.00 93.84
  A 0.87 0.86 -0.0 0 1 299.87 92.98
  L 308.18 92.97
  A 0.55 0.54 0.3 0 0 308.72 92.43
  Q 308.73 88.57 308.73 84.34
  Q 308.72 80.10 308.72 76.25
  A 0.55 0.54 -0.3 0 0 308.17 75.71
  L 299.86 75.71
  A 0.87 0.86 -0.0 0 1 298.99 74.85
  L 298.99 66.53
  A 0.65 0.64 89.1 0 0 298.33 65.88
  Q 292.84 66.02 289.83 65.82
  C 289.76 65.82 289.75 65.81 289.67 65.73
  C 289.60 65.66 289.59 65.65 289.59 65.57
  Q 289.39 62.57 289.53 57.08
  A 0.65 0.64 0.9 0 0 288.88 56.42
  L 280.56 56.42
  A 0.87 0.86 90.0 0 1 279.70 55.55
  L 279.69 47.24
  A 0.55 0.54 -89.7 0 0 279.15 46.69
  Q 275.29 46.69 271.06 46.69
  Q 266.83 46.69 262.97 46.70
  A 0.55 0.54 89.7 0 0 262.43 47.24
  L 262.43 55.55
  A 0.87 0.86 90.0 0 1 261.57 56.42
  L 253.25 56.43
  A 0.65 0.64 -0.9 0 0 252.60 57.09
  Q 252.74 62.58 252.54 65.58
  C 252.54 65.66 252.53 65.67 252.46 65.74
  Z"
/>
<path fill="#39a1ab" fill-opacity="0.996" d="
  M 271.11 49.62
  Q 275.95 49.62 276.30 49.63
  A 0.67 0.66 -89.3 0 1 276.95 50.30
  L 276.95 58.50
  A 0.73 0.72 0.0 0 0 277.68 59.22
  L 285.72 59.22
  A 0.77 0.77 0.0 0 1 286.49 59.96
  Q 286.62 64.00 286.45 68.23
  Q 286.44 68.49 286.70 68.75
  Q 286.97 69.01 287.22 69.00
  Q 291.46 68.83 295.50 68.96
  A 0.77 0.77 0.0 0 1 296.24 69.73
  L 296.24 77.77
  A 0.73 0.72 -90.0 0 0 296.96 78.50
  L 305.16 78.51
  A 0.67 0.66 -0.7 0 1 305.82 79.15
  Q 305.83 79.50 305.83 84.35
  Q 305.83 89.20 305.82 89.55
  A 0.67 0.66 0.7 0 1 305.16 90.20
  L 296.96 90.20
  A 0.73 0.72 90.0 0 0 296.24 90.93
  L 296.24 98.97
  A 0.77 0.77 0.0 0 1 295.50 99.74
  Q 291.46 99.87 287.22 99.70
  Q 286.97 99.69 286.70 99.95
  Q 286.44 100.22 286.45 100.47
  Q 286.62 104.70 286.49 108.74
  A 0.77 0.77 0.0 0 1 285.72 109.48
  L 277.68 109.48
  A 0.73 0.72 0.0 0 0 276.95 110.20
  L 276.95 118.40
  A 0.67 0.66 89.3 0 1 276.30 119.07
  Q 275.95 119.07 271.10 119.07
  Q 266.25 119.07 265.90 119.07
  A 0.67 0.66 -89.3 0 1 265.25 118.40
  L 265.25 110.20
  A 0.73 0.72 0.0 0 0 264.52 109.48
  L 256.48 109.48
  A 0.77 0.77 0.0 0 1 255.71 108.74
  Q 255.58 104.70 255.75 100.46
  Q 255.76 100.21 255.50 99.95
  Q 255.24 99.69 254.98 99.70
  Q 250.75 99.87 246.71 99.73
  A 0.77 0.77 0.0 0 1 245.97 98.96
  L 245.97 90.92
  A 0.73 0.72 -90.0 0 0 245.25 90.19
  L 237.05 90.19
  A 0.67 0.66 -0.7 0 1 236.38 89.54
  Q 236.38 89.20 236.38 84.35
  Q 236.38 79.50 236.38 79.15
  A 0.67 0.66 0.7 0 1 237.05 78.50
  L 245.25 78.50
  A 0.73 0.72 -90.0 0 0 245.97 77.77
  L 245.97 69.73
  A 0.77 0.77 0.0 0 1 246.71 68.96
  Q 250.75 68.83 254.99 69.00
  Q 255.24 69.01 255.50 68.75
  Q 255.77 68.48 255.76 68.23
  Q 255.59 63.99 255.72 59.95
  A 0.77 0.77 0.0 0 1 256.49 59.21
  L 264.53 59.22
  A 0.73 0.72 0.0 0 0 265.26 58.50
  L 265.26 50.30
  A 0.67 0.66 89.3 0 1 265.91 49.63
  Q 266.26 49.62 271.11 49.62
  Z
  M 257.34 70.57
  Q 257.23 70.68 257.21 70.70
  Q 257.09 70.78 257.04 70.78
  Q 254.64 70.88 248.84 70.77
  A 0.87 0.87 0.0 0 0 247.96 71.64
  L 247.96 79.53
  A 0.96 0.96 0.0 0 1 247.00 80.49
  L 238.91 80.49
  A 0.59 0.59 0.0 0 0 238.32 81.03
  Q 238.26 81.83 238.26 84.32
  Q 238.26 86.81 238.32 87.62
  A 0.59 0.59 0.0 0 0 238.91 88.16
  L 247.00 88.16
  A 0.96 0.96 0.0 0 1 247.96 89.12
  L 247.95 97.01
  A 0.87 0.87 0.0 0 0 248.83 97.88
  Q 254.63 97.77 257.03 97.87
  Q 257.08 97.87 257.21 97.96
  Q 257.23 97.97 257.34 98.08
  Q 257.45 98.19 257.46 98.22
  Q 257.55 98.34 257.55 98.39
  Q 257.65 100.79 257.54 106.59
  A 0.87 0.87 0.0 0 0 258.41 107.47
  L 266.30 107.47
  A 0.96 0.96 0.0 0 1 267.26 108.43
  L 267.26 116.52
  A 0.59 0.59 0.0 0 0 267.80 117.10
  Q 268.60 117.17 271.09 117.17
  Q 273.58 117.17 274.38 117.11
  A 0.59 0.59 0.0 0 0 274.92 116.52
  L 274.93 108.43
  A 0.96 0.96 0.0 0 1 275.89 107.47
  L 283.78 107.47
  A 0.87 0.87 0.0 0 0 284.65 106.59
  Q 284.54 100.79 284.64 98.39
  Q 284.64 98.34 284.72 98.22
  Q 284.74 98.20 284.85 98.09
  Q 284.96 97.98 284.98 97.96
  Q 285.10 97.88 285.15 97.88
  Q 287.55 97.78 293.35 97.89
  A 0.87 0.87 0.0 0 0 294.23 97.02
  L 294.23 89.13
  A 0.96 0.96 0.0 0 1 295.19 88.17
  L 303.28 88.17
  A 0.59 0.59 0.0 0 0 303.87 87.63
  Q 303.94 86.83 303.94 84.34
  Q 303.94 81.85 303.87 81.04
  A 0.59 0.59 0.0 0 0 303.28 80.50
  L 295.19 80.50
  A 0.96 0.96 0.0 0 1 294.24 79.54
  L 294.24 71.65
  A 0.87 0.87 0.0 0 0 293.36 70.78
  Q 287.56 70.89 285.16 70.79
  Q 285.11 70.79 284.99 70.70
  Q 284.97 70.69 284.85 70.58
  Q 284.74 70.47 284.73 70.44
  Q 284.65 70.32 284.65 70.27
  Q 284.55 67.87 284.66 62.07
  A 0.87 0.87 0.0 0 0 283.79 61.19
  L 275.90 61.19
  A 0.96 0.96 0.0 0 1 274.94 60.23
  L 274.94 52.14
  A 0.59 0.59 0.0 0 0 274.40 51.56
  Q 273.59 51.49 271.10 51.49
  Q 268.61 51.49 267.81 51.55
  A 0.59 0.59 0.0 0 0 267.27 52.14
  L 267.27 60.23
  A 0.96 0.96 0.0 0 1 266.31 61.19
  L 258.42 61.19
  A 0.87 0.87 0.0 0 0 257.55 62.07
  Q 257.65 67.87 257.55 70.27
  Q 257.55 70.32 257.47 70.44
  Q 257.46 70.46 257.34 70.57
  Z"
/>
<path fill="#39a1ab" fill-opacity="0.996" d="
  M 271.04 63.96
  Q 280.63 63.96 280.98 63.99
  A 0.66 0.65 -88.6 0 1 281.58 64.63
  Q 281.68 68.73 281.56 72.99
  Q 281.55 73.22 281.84 73.51
  Q 282.12 73.79 282.35 73.78
  Q 286.61 73.67 290.71 73.77
  A 0.66 0.65 -1.4 0 1 291.35 74.37
  Q 291.38 74.71 291.37 84.30
  Q 291.37 93.90 291.34 94.24
  A 0.66 0.65 1.4 0 1 290.70 94.84
  Q 286.60 94.94 282.34 94.82
  Q 282.11 94.82 281.83 95.10
  Q 281.55 95.38 281.56 95.61
  Q 281.67 99.87 281.57 103.97
  A 0.66 0.65 88.6 0 1 280.97 104.61
  Q 280.62 104.64 271.03 104.64
  Q 261.44 104.64 261.10 104.61
  A 0.66 0.65 -88.6 0 1 260.50 103.97
  Q 260.40 99.87 260.51 95.61
  Q 260.52 95.38 260.24 95.09
  Q 259.96 94.81 259.73 94.82
  Q 255.47 94.93 251.37 94.83
  A 0.66 0.65 -1.4 0 1 250.73 94.23
  Q 250.70 93.89 250.70 84.30
  Q 250.70 74.70 250.73 74.36
  A 0.66 0.65 1.4 0 1 251.37 73.76
  Q 255.47 73.66 259.73 73.78
  Q 259.96 73.78 260.24 73.50
  Q 260.52 73.22 260.52 72.99
  Q 260.40 68.73 260.50 64.63
  A 0.66 0.65 88.6 0 1 261.10 63.99
  Q 261.45 63.96 271.04 63.96
  Z
  M 262.26 75.47
  Q 262.06 75.66 261.94 75.66
  Q 257.14 75.77 253.35 75.60
  A 0.69 0.69 0.0 0 0 252.62 76.31
  Q 252.68 78.03 252.68 84.31
  Q 252.69 90.58 252.63 92.30
  A 0.69 0.69 0.0 0 0 253.36 93.01
  Q 257.15 92.84 261.95 92.94
  Q 262.07 92.95 262.27 93.14
  Q 262.46 93.33 262.46 93.46
  Q 262.57 98.25 262.40 102.04
  A 0.69 0.69 0.0 0 0 263.11 102.77
  Q 264.83 102.71 271.11 102.71
  Q 277.38 102.71 279.10 102.76
  A 0.69 0.69 0.0 0 0 279.81 102.03
  Q 279.64 98.24 279.74 93.45
  Q 279.75 93.32 279.94 93.13
  Q 280.13 92.94 280.26 92.93
  Q 285.05 92.82 288.84 92.99
  A 0.69 0.69 0.0 0 0 289.57 92.28
  Q 289.51 90.56 289.51 84.29
  Q 289.51 78.01 289.56 76.29
  A 0.69 0.69 0.0 0 0 288.83 75.58
  Q 285.04 75.75 280.25 75.65
  Q 280.12 75.65 279.93 75.46
  Q 279.74 75.26 279.73 75.14
  Q 279.62 70.34 279.79 66.55
  A 0.69 0.69 0.0 0 0 279.08 65.82
  Q 277.36 65.88 271.09 65.88
  Q 264.81 65.89 263.09 65.83
  A 0.69 0.69 0.0 0 0 262.38 66.56
  Q 262.55 70.35 262.45 75.15
  Q 262.45 75.27 262.26 75.47
  Z"
/>
<path fill="#39a1ab" fill-opacity="0.996" d="
  M 271.7193 94.7508
  A 0.89 0.89 0.0 0 1 270.4607 94.7508
  L 260.7592 85.0493
  A 0.89 0.89 0.0 0 1 260.7592 83.7907
  L 270.4607 74.0892
  A 0.89 0.89 0.0 0 1 271.7193 74.0892
  L 281.4208 83.7907
  A 0.89 0.89 0.0 0 1 281.4208 85.0493
  L 271.7193 94.7508
  Z
  M 278.8459 84.8891
  A 0.83 0.83 0.0 0 0 278.8357 83.7153
  L 271.5891 76.5941
  A 0.83 0.83 0.0 0 0 270.4153 76.6043
  L 263.2941 83.8509
  A 0.83 0.83 0.0 0 0 263.3043 85.0247
  L 270.5509 92.1459
  A 0.83 0.83 0.0 0 0 271.7247 92.1357
  L 278.8459 84.8891
  Z"
/>
<path fill="#39a1ab" fill-opacity="0.996" d="
  M 274.49 84.33
  A 3.38 3.38 0.0 0 1 271.11 87.71
  A 3.38 3.38 0.0 0 1 267.73 84.33
  A 3.38 3.38 0.0 0 1 271.11 80.95
  A 3.38 3.38 0.0 0 1 274.49 84.33
  Z
  M 272.56 84.36
  A 1.46 1.46 0.0 0 0 271.10 82.90
  A 1.46 1.46 0.0 0 0 269.64 84.36
  A 1.46 1.46 0.0 0 0 271.10 85.82
  A 1.46 1.46 0.0 0 0 272.56 84.36
  Z"
/>
<path fill="#39a1ab" fill-opacity="0.996" d="
  M 182.27 149.73
  C 182.24 139.60 197.62 138.79 196.26 145.84
  A 0.44 0.44 0.0 0 1 195.44 145.97
  C 191.75 139.27 185.17 143.66 185.19 149.73
  C 185.20 155.80 191.80 160.15 195.46 153.43
  A 0.44 0.44 0.0 0 1 196.28 153.56
  C 197.67 160.60 182.29 159.87 182.27 149.73
  Z"
/>
<path fill="#39a1ab" fill-opacity="0.996" d="
  M 215.60 158.06
  L 213.32 158.06
  A 0.70 0.69 87.3 0 1 212.63 157.43
  Q 212.38 154.86 211.17 152.67
  A 0.85 0.84 -14.3 0 0 210.43 152.24
  L 204.80 152.24
  A 0.84 0.82 11.0 0 0 204.03 152.75
  L 202.05 157.64
  A 0.90 0.89 -78.7 0 1 201.22 158.20
  L 200.39 158.20
  A 0.51 0.51 0.0 0 1 199.93 157.46
  Q 201.33 154.51 205.51 143.59
  Q 206.40 141.27 209.12 141.50
  A 0.77 0.77 0.0 0 1 209.78 142.00
  L 215.86 157.67
  A 0.29 0.28 79.3 0 1 215.60 158.06
  Z
  M 210.56 150.18
  L 208.17 144.00
  A 0.51 0.50 -44.8 0 0 207.23 144.00
  L 204.83 149.91
  A 0.75 0.75 0.0 0 0 205.53 150.94
  L 210.04 150.94
  A 0.56 0.56 0.0 0 0 210.56 150.18
  Z"
/>
<path fill="#39a1ab" fill-opacity="0.996" d="
  M 251.7202 141.2133
  A 8.59 7.89 -91.6 0 1 259.8469 149.5797
  A 8.59 7.89 -91.6 0 1 252.1998 158.3867
  A 8.59 7.89 -91.6 0 1 244.0731 150.0203
  A 8.59 7.89 -91.6 0 1 251.7202 141.2133
  Z
  M 252.0905 142.5702
  A 7.24 5.07 -89.6 0 0 246.9701 149.7746
  A 7.24 5.07 -89.6 0 0 251.9895 157.0498
  A 7.24 5.07 -89.6 0 0 257.1099 149.8454
  A 7.24 5.07 -89.6 0 0 252.0905 142.5702
  Z"
/>
<path fill="#39a1ab" fill-opacity="0.996" d="
  M 331.22 157.60
  A 0.29 0.28 79.2 0 1 330.96 157.99
  L 328.69 157.99
  A 0.69 0.69 0.0 0 1 328.00 157.37
  Q 327.75 154.80 326.55 152.62
  A 0.85 0.84 -14.4 0 0 325.81 152.19
  L 320.20 152.20
  A 0.83 0.82 11.0 0 0 319.43 152.71
  L 317.46 157.58
  A 0.90 0.89 -78.8 0 1 316.63 158.14
  L 315.80 158.14
  A 0.51 0.51 0.0 0 1 315.35 157.40
  Q 316.74 154.46 320.90 143.58
  Q 321.78 141.26 324.50 141.49
  A 0.77 0.77 0.0 0 1 325.15 141.99
  L 331.22 157.60
  Z
  M 320.14 150.02
  A 0.63 0.63 0.0 0 0 320.73 150.89
  L 325.33 150.90
  A 0.63 0.63 0.0 0 0 325.92 150.04
  L 323.64 144.14
  A 0.63 0.63 0.0 0 0 322.47 144.13
  L 320.14 150.02
  Z"
/>
<path fill="#39a1ab" fill-opacity="0.996" d="
  M 338.07 149.65
  C 337.99 155.72 344.53 160.17 348.29 153.51
  A 0.44 0.44 0.0 0 1 349.11 153.65
  C 350.40 160.71 335.02 159.76 335.15 149.61
  C 335.27 139.47 350.67 138.90 349.20 145.93
  A 0.44 0.44 0.0 0 1 348.38 146.04
  C 344.79 139.29 338.14 143.58 338.07 149.65
  Z"
/>
<path fill="#39a1ab" fill-opacity="0.996" d="
  M 353.61 157.83
  Q 354.16 152.22 353.90 143.80
  Q 353.88 143.24 353.13 142.11
  A 0.41 0.41 0.0 0 1 353.47 141.47
  L 356.68 141.47
  A 0.40 0.39 -75.2 0 1 357.02 142.06
  Q 355.96 143.91 356.49 148.38
  A 0.37 0.37 0.0 0 0 357.14 148.57
  L 360.73 144.24
  A 4.86 4.79 -17.4 0 0 361.66 142.49
  Q 361.66 142.48 361.69 142.15
  A 0.77 0.77 0.0 0 1 362.46 141.43
  L 365.73 141.43
  A 0.42 0.41 36.0 0 1 365.86 142.24
  Q 365.51 142.35 364.38 142.95
  A 2.80 2.60 4.8 0 0 363.68 143.50
  L 358.80 148.93
  A 0.85 0.85 0.0 0 0 358.81 150.06
  L 365.35 157.25
  A 0.53 0.53 0.0 0 1 364.96 158.13
  L 364.10 158.13
  A 1.63 1.61 -20.6 0 1 362.89 157.59
  L 356.93 151.05
  A 0.28 0.27 24.1 0 0 356.45 151.23
  L 356.45 157.88
  A 0.20 0.20 0.0 0 1 356.25 158.08
  L 353.83 158.08
  A 0.22 0.22 0.0 0 1 353.61 157.83
  Z"
/>
<path fill="#39a1ab" fill-opacity="0.996" d="
  M 124.72 157.61
  A 0.29 0.28 79.5 0 1 124.46 158.00
  L 122.20 157.99
  A 0.69 0.69 0.0 0 1 121.51 157.36
  Q 121.28 154.80 120.08 152.62
  A 0.85 0.83 -14.1 0 0 119.35 152.19
  L 113.75 152.17
  A 0.83 0.82 11.2 0 0 112.99 152.68
  L 111.00 157.53
  A 0.90 0.89 -78.5 0 1 110.17 158.08
  L 109.35 158.08
  A 0.51 0.51 0.0 0 1 108.89 157.34
  Q 110.30 154.42 114.49 143.58
  Q 115.38 141.28 118.09 141.52
  A 0.77 0.76 -7.6 0 1 118.74 142.01
  L 124.72 157.61
  Z
  M 119.43 150.17
  L 116.85 143.51
  A 0.27 0.26 45.8 0 0 116.36 143.50
  L 113.66 150.16
  A 0.54 0.54 0.0 0 0 114.16 150.90
  L 118.93 150.90
  A 0.54 0.54 0.0 0 0 119.43 150.17
  Z"
/>
<path fill="#39a1ab" fill-opacity="0.996" d="
  M 132.56 157.76
  A 0.24 0.23 80.9 0 1 132.34 158.07
  L 129.39 158.07
  A 0.24 0.23 -87.7 0 1 129.16 157.81
  Q 129.78 151.61 129.40 143.75
  Q 129.36 142.90 129.15 142.68
  Q 128.84 142.38 128.77 142.13
  A 0.50 0.49 -8.3 0 1 129.24 141.51
  C 133.10 141.39 139.13 140.74 140.08 145.38
  C 141.12 150.46 137.01 152.34 132.56 151.96
  A 0.59 0.58 -85.7 0 0 131.93 152.51
  Q 131.76 155.35 132.56 157.76
  Z
  M 131.93 144.06
  L 132.18 149.30
  A 1.12 1.12 0.0 0 0 133.35 150.36
  L 134.34 150.32
  A 3.38 3.37 87.3 0 0 137.54 146.78
  L 137.51 146.06
  A 3.38 3.37 87.3 0 0 133.98 142.84
  L 133.00 142.89
  A 1.12 1.12 0.0 0 0 131.93 144.06
  Z"
/>
<path fill="#39a1ab" fill-opacity="0.996" d="
  M 147.63 157.79
  A 0.24 0.23 80.6 0 1 147.41 158.10
  L 144.45 158.12
  A 0.24 0.23 -88.0 0 1 144.22 157.86
  Q 144.80 151.64 144.38 143.76
  Q 144.33 142.90 144.12 142.68
  Q 143.81 142.39 143.74 142.14
  A 0.50 0.49 -8.6 0 1 144.20 141.51
  C 148.07 141.37 154.12 140.68 155.10 145.33
  C 156.17 150.42 152.06 152.33 147.59 151.97
  A 0.59 0.58 -86.0 0 0 146.96 152.53
  Q 146.81 155.37 147.63 157.79
  Z
  M 146.90 144.19
  L 147.26 149.32
  A 1.24 1.24 0.0 0 0 148.58 150.47
  L 149.59 150.40
  A 3.36 3.31 86.0 0 0 152.65 146.81
  L 152.59 145.92
  A 3.36 3.31 86.0 0 0 149.06 142.80
  L 148.05 142.87
  A 1.24 1.24 0.0 0 0 146.90 144.19
  Z"
/>
<path fill="#39a1ab" fill-opacity="0.996" d="
  M 162.68 141.97
  C 162.38 142.71 162.10 143.15 162.09 143.82
  Q 162.07 155.36 162.07 155.39
  A 0.71 0.71 0.0 0 0 162.64 156.06
  Q 166.90 156.89 169.28 155.02
  A 0.43 0.43 0.0 0 1 169.98 155.32
  Q 170.06 156.33 169.78 157.24
  A 1.07 1.06 8.5 0 1 168.76 157.99
  L 159.81 157.99
  A 0.53 0.53 0.0 0 1 159.29 157.37
  Q 159.37 156.94 159.56 156.30
  Q 159.83 155.45 159.82 155.11
  Q 159.74 148.06 159.83 144.21
  A 2.15 2.09 -60.4 0 0 159.54 143.10
  L 159.04 142.23
  A 0.50 0.49 -15.0 0 1 159.47 141.49
  L 162.35 141.49
  A 0.35 0.35 0.0 0 1 162.68 141.97
  Z"
/>
<path fill="#39a1ab" fill-opacity="0.996" d="
  M 175.27 157.94
  Q 174.00 157.94 173.98 157.94
  A 0.56 0.55 -75.8 0 1 173.57 157.25
  C 173.71 156.76 174.05 155.91 174.05 155.31
  Q 174.05 149.15 174.05 143.66
  A 1.37 1.34 31.1 0 0 173.88 143.01
  L 173.47 142.27
  A 0.44 0.44 0.0 0 1 173.76 141.62
  Q 174.27 141.51 175.25 141.51
  Q 176.22 141.51 176.74 141.62
  A 0.44 0.44 0.0 0 1 177.03 142.26
  L 176.62 143.00
  A 1.37 1.34 -31.3 0 0 176.45 143.66
  Q 176.47 149.14 176.49 155.30
  C 176.49 155.91 176.84 156.76 176.97 157.25
  A 0.56 0.55 75.6 0 1 176.57 157.94
  Q 176.55 157.94 175.27 157.94
  Z"
/>
<path fill="#39a1ab" fill-opacity="0.996" d="
  M 225.19 157.95
  Q 224.51 157.94 223.86 157.89
  A 0.51 0.51 0.0 0 1 223.42 157.21
  L 223.92 155.79
  A 0.82 0.75 57.0 0 0 223.96 155.54
  L 224.00 143.93
  A 0.50 0.48 21.9 0 0 223.83 143.56
  Q 222.44 142.32 219.61 144.24
  A 0.48 0.48 0.0 0 1 218.86 143.84
  L 218.88 142.32
  A 0.80 0.80 0.0 0 1 219.65 141.53
  Q 223.01 141.42 225.27 141.57
  Q 227.52 141.44 230.89 141.58
  A 0.80 0.80 0.0 0 1 231.65 142.38
  L 231.65 143.89
  A 0.48 0.48 0.0 0 1 230.90 144.29
  Q 228.08 142.34 226.69 143.58
  A 0.50 0.48 -21.4 0 0 226.52 143.94
  L 226.45 155.56
  A 0.82 0.75 -56.5 0 0 226.49 155.80
  L 226.97 157.23
  A 0.51 0.51 0.0 0 1 226.53 157.90
  Q 225.87 157.95 225.19 157.95
  Z"
/>
<path fill="#39a1ab" fill-opacity="0.996" d="
  M 237.09 158.03
  Q 235.80 158.03 235.78 158.03
  A 0.56 0.56 0.0 0 1 235.36 157.34
  C 235.50 156.84 235.84 155.99 235.84 155.38
  Q 235.81 149.18 235.79 143.65
  A 1.38 1.35 30.9 0 0 235.62 143.00
  L 235.19 142.25
  A 0.44 0.44 0.0 0 1 235.48 141.60
  Q 236.00 141.49 236.99 141.48
  Q 237.97 141.47 238.49 141.59
  A 0.44 0.44 0.0 0 1 238.78 142.23
  L 238.37 142.98
  A 1.38 1.35 -31.6 0 0 238.21 143.64
  Q 238.25 149.16 238.29 155.36
  C 238.29 155.97 238.65 156.82 238.79 157.32
  A 0.56 0.56 0.0 0 1 238.39 158.01
  Q 238.37 158.02 237.09 158.03
  Z"
/>
<path fill="#39a1ab" fill-opacity="0.996" d="
  M 267.05 147.34
  L 267.05 157.78
  A 0.32 0.32 0.0 0 1 266.73 158.10
  L 264.73 158.10
  A 0.44 0.44 0.0 0 1 264.31 157.54
  Q 264.71 156.10 264.71 155.95
  Q 264.66 145.42 264.70 144.60
  A 4.19 4.11 -56.9 0 0 264.30 142.61
  L 264.25 142.49
  A 0.85 0.85 0.0 0 1 265.64 141.56
  L 276.03 152.97
  A 0.40 0.40 0.0 0 0 276.73 152.70
  L 276.67 144.11
  A 3.88 3.85 33.9 0 0 276.39 142.72
  Q 276.38 142.70 276.21 142.40
  A 0.53 0.53 0.0 0 1 276.66 141.61
  L 278.83 141.59
  A 0.42 0.42 0.0 0 1 279.17 142.27
  Q 279.07 142.40 278.82 143.24
  Q 278.63 143.85 278.64 144.27
  Q 278.70 151.16 278.52 157.48
  A 0.56 0.56 0.0 0 1 277.81 158.01
  Q 277.11 157.81 276.57 157.21
  Q 271.66 151.66 267.66 147.11
  A 0.35 0.35 0.0 0 0 267.05 147.34
  Z"
/>
<path fill="#39a1ab" fill-opacity="0.996" d="
  M 289.18 141.56
  Q 291.45 141.43 294.82 141.56
  A 0.80 0.80 0.0 0 1 295.59 142.36
  L 295.59 143.88
  A 0.48 0.48 0.0 0 1 294.84 144.28
  Q 292.01 142.33 290.61 143.57
  A 0.50 0.48 -21.5 0 0 290.44 143.94
  L 290.39 155.59
  A 0.82 0.75 -56.6 0 0 290.43 155.84
  L 290.92 157.27
  A 0.51 0.51 0.0 0 1 290.48 157.94
  Q 289.82 157.99 289.14 157.99
  Q 288.45 157.99 287.80 157.93
  A 0.51 0.51 0.0 0 1 287.36 157.26
  L 287.85 155.83
  A 0.82 0.75 56.9 0 0 287.90 155.58
  L 287.91 143.93
  A 0.50 0.48 21.8 0 0 287.74 143.56
  Q 286.35 142.31 283.51 144.25
  A 0.48 0.48 0.0 0 1 282.76 143.84
  L 282.77 142.32
  A 0.80 0.80 0.0 0 1 283.55 141.53
  Q 286.92 141.41 289.18 141.56
  Z"
/>
<path fill="#39a1ab" fill-opacity="0.996" d="
  M 298.99 142.19
  A 0.41 0.41 0.0 0 1 299.30 141.51
  C 302.44 141.56 309.33 140.46 310.38 145.44
  Q 311.18 149.20 307.47 151.21
  A 0.73 0.72 54.7 0 0 307.28 152.34
  L 311.60 157.09
  A 0.64 0.64 0.0 0 1 311.12 158.16
  L 310.23 158.16
  A 2.21 2.20 72.1 0 1 308.44 157.24
  L 304.79 152.20
  A 1.38 1.37 27.1 0 0 302.30 153.00
  L 302.30 157.87
  A 0.16 0.16 0.0 0 1 302.14 158.03
  L 299.75 158.03
  A 0.12 0.11 90.0 0 1 299.64 157.91
  L 299.94 143.49
  A 0.69 0.68 -65.3 0 0 299.78 143.05
  L 298.99 142.19
  Z
  M 302.28 144.05
  L 302.20 149.11
  A 1.04 1.04 0.0 0 0 303.23 150.16
  L 304.48 150.18
  A 3.57 3.36 0.8 0 0 308.10 146.87
  L 308.10 146.45
  A 3.57 3.36 0.8 0 0 304.58 143.04
  L 303.33 143.02
  A 1.04 1.04 0.0 0 0 302.28 144.05
  Z"
/>
<path fill="#39a1ab" fill-opacity="0.996" d="
  M 379.70 149.68
  Q 379.71 150.71 379.68 150.76
  A 0.51 0.51 0.0 0 1 378.98 150.98
  Q 377.72 150.29 373.58 150.41
  A 0.67 0.67 0.0 0 0 372.93 151.08
  L 372.93 155.48
  A 0.77 0.76 -85.1 0 0 373.56 156.24
  Q 378.04 157.06 380.32 154.95
  A 0.42 0.42 0.0 0 1 381.02 155.26
  L 381.02 156.93
  A 1.11 1.11 0.0 0 1 379.91 158.04
  L 370.42 158.04
  A 0.47 0.47 0.0 0 1 370.00 157.36
  C 370.96 155.45 370.58 152.76 370.54 149.79
  C 370.51 146.81 370.83 144.11 369.82 142.23
  A 0.47 0.47 0.0 0 1 370.23 141.54
  L 379.72 141.32
  A 1.11 1.11 0.0 0 1 380.85 142.40
  L 380.89 144.07
  A 0.42 0.42 0.0 0 1 380.20 144.40
  Q 377.87 142.34 373.41 143.26
  A 0.77 0.76 83.8 0 0 372.80 144.04
  L 372.90 148.44
  A 0.67 0.67 0.0 0 0 373.56 149.09
  Q 377.71 149.12 378.95 148.40
  A 0.51 0.51 0.0 0 1 379.66 148.60
  Q 379.69 148.65 379.70 149.68
  Z"
/>
<path fill="#39a1ab" fill-opacity="0.996" d="
  M 384.93 142.19
  A 0.41 0.41 0.0 0 1 385.24 141.50
  C 388.39 141.55 395.31 140.43 396.38 145.43
  Q 397.19 149.20 393.47 151.23
  A 0.73 0.73 0.0 0 0 393.28 152.37
  L 397.63 157.13
  A 0.65 0.64 -21.1 0 1 397.15 158.21
  L 396.26 158.21
  A 2.22 2.21 72.0 0 1 394.46 157.29
  L 390.78 152.23
  A 1.38 1.38 0.0 0 0 388.28 153.04
  L 388.29 157.94
  A 0.16 0.16 0.0 0 1 388.13 158.10
  L 385.73 158.10
  A 0.12 0.11 89.9 0 1 385.62 157.98
  L 385.88 143.49
  A 0.69 0.68 -65.4 0 0 385.72 143.05
  L 384.93 142.19
  Z
  M 388.17 143.91
  L 388.13 149.25
  A 0.89 0.89 0.0 0 0 389.02 150.15
  L 390.45 150.16
  A 3.58 3.38 0.4 0 0 394.05 146.80
  L 394.05 146.44
  A 3.58 3.38 0.4 0 0 390.49 143.04
  L 389.06 143.03
  A 0.89 0.89 0.0 0 0 388.17 143.91
  Z"
/>
<path fill="#39a1ab" fill-opacity="0.996" d="
  M 410.83 141.45
  Q 411.82 141.45 412.35 141.57
  A 0.45 0.45 0.0 0 1 412.64 142.22
  L 412.22 142.97
  A 1.39 1.36 -31.2 0 0 412.05 143.63
  Q 412.05 149.19 412.05 155.43
  C 412.05 156.04 412.40 156.90 412.54 157.40
  A 0.56 0.56 0.0 0 1 412.13 158.09
  Q 412.11 158.10 410.81 158.10
  Q 409.52 158.10 409.50 158.09
  A 0.56 0.56 0.0 0 1 409.09 157.40
  C 409.23 156.90 409.59 156.04 409.59 155.43
  Q 409.60 149.19 409.62 143.63
  A 1.39 1.36 31.3 0 0 409.45 142.97
  L 409.03 142.22
  A 0.45 0.45 0.0 0 1 409.32 141.56
  Q 409.85 141.45 410.83 141.45
  Z"
/>
<path fill="#39a1ab" fill-opacity="0.996" d="
  M 432.73 149.58
  C 432.84 158.22 424.97 158.19 418.75 158.08
  A 0.62 0.62 0.0 0 1 418.15 157.38
  C 418.15 157.36 418.77 156.97 418.81 156.14
  Q 418.86 155.15 418.78 149.76
  Q 418.71 144.38 418.64 143.39
  C 418.58 142.56 417.95 142.19 417.95 142.17
  A 0.62 0.62 0.0 0 1 418.53 141.45
  C 424.74 141.17 432.61 140.94 432.73 149.58
  Z
  M 420.68 143.48
  L 420.70 155.96
  A 0.40 0.40 0.0 0 0 421.10 156.36
  L 423.97 156.35
  A 6.05 5.98 -0.1 0 0 430.01 150.36
  L 430.01 149.04
  A 6.05 5.98 -0.1 0 0 423.95 143.07
  L 421.08 143.08
  A 0.40 0.40 0.0 0 0 420.68 143.48
  Z"
/>
<circle fill="#39a1ab" fill-opacity="0.996" cx="403.08" cy="156.18" r="1.70"/>
<path fill="#39a1ab" fill-opacity="0.996" d="
  M 182.98 183.11
  Q 183.96 184.69 185.67 184.38
  A 1.04 1.04 0.0 0 0 186.25 182.66
  L 185.51 181.85
  A 1.18 1.18 0.0 0 0 184.61 181.46
  Q 183.38 181.48 182.54 180.41
  A 1.34 1.34 0.0 0 1 182.27 179.42
  C 182.57 176.83 185.95 176.45 187.35 178.35
  A 0.47 0.46 50.8 0 1 187.29 178.97
  L 187.06 179.18
  A 0.28 0.28 0.0 0 1 186.65 179.15
  Q 185.57 177.82 184.01 178.25
  A 1.00 1.00 0.0 0 0 183.94 180.15
  C 186.00 180.89 188.74 181.85 186.85 184.64
  A 1.28 1.28 0.0 0 1 186.14 185.16
  Q 183.44 185.99 182.21 183.49
  A 0.12 0.09 52.0 0 1 182.21 183.40
  L 182.40 183.11
  A 0.34 0.34 0.0 0 1 182.98 183.11
  Z"
/>
<path fill="#39a1ab" fill-opacity="0.996" d="
  M 150.31 179.62
  A 0.51 0.50 27.3 0 0 149.39 179.91
  L 149.39 184.85
  A 0.35 0.35 0.0 0 1 149.04 185.20
  L 148.72 185.20
  A 0.15 0.15 0.0 0 1 148.57 185.05
  L 148.90 177.80
  A 0.76 0.76 0.0 0 1 150.32 177.45
  L 153.57 183.08
  A 0.39 0.39 0.0 0 0 154.30 182.89
  L 154.30 177.79
  A 0.31 0.30 0.0 0 1 154.61 177.49
  L 154.88 177.49
  A 0.45 0.45 0.0 0 1 155.33 177.95
  L 155.24 184.95
  A 0.42 0.42 0.0 0 1 154.71 185.35
  Q 154.70 185.34 154.42 185.22
  A 0.78 0.72 83.0 0 1 154.15 184.99
  L 150.31 179.62
  Z"
/>
<path fill="#39a1ab" fill-opacity="0.996" d="
  M 173.39 184.69
  A 0.32 0.32 0.0 0 1 173.26 185.30
  L 169.01 185.30
  A 0.67 0.66 90.0 0 1 168.35 184.63
  L 168.35 178.14
  A 0.76 0.75 0.0 0 1 169.11 177.39
  L 173.00 177.39
  A 0.47 0.47 0.0 0 1 173.09 178.32
  Q 172.63 178.41 170.32 178.32
  A 1.08 1.07 1.0 0 0 169.20 179.39
  L 169.20 179.68
  A 0.95 0.94 -0.0 0 0 170.15 180.62
  L 172.92 180.62
  A 0.25 0.25 0.0 0 1 173.17 180.87
  L 173.17 181.15
  A 0.31 0.31 0.0 0 1 172.86 181.46
  L 170.22 181.46
  A 0.90 0.90 0.0 0 0 169.32 182.36
  L 169.32 183.54
  A 0.86 0.85 -2.5 0 0 170.25 184.39
  Q 172.29 184.21 173.39 184.69
  Z"
/>
<path fill="#39a1ab" fill-opacity="0.996" d="
  M 181.11 184.80
  A 0.17 0.16 67.1 0 1 181.00 185.06
  L 180.07 185.20
  A 0.05 0.03 -13.7 0 1 180.05 185.19
  Q 178.87 183.25 177.52 182.20
  A 0.82 0.82 0.0 0 0 176.20 182.86
  L 176.22 184.81
  A 0.35 0.35 0.0 0 1 175.87 185.16
  L 175.58 185.16
  A 0.27 0.26 -0.5 0 1 175.31 184.90
  L 175.26 178.16
  A 0.75 0.75 0.0 0 1 175.99 177.41
  L 179.36 177.38
  A 1.15 1.14 74.8 0 1 180.37 177.97
  C 180.98 179.03 181.11 180.88 179.70 181.34
  Q 179.32 181.47 179.20 181.68
  A 0.68 0.67 -49.4 0 0 179.26 182.44
  L 181.11 184.80
  Z
  M 176.30 178.91
  L 176.28 180.59
  A 0.65 0.65 0.0 0 0 176.93 181.24
  L 177.57 181.25
  A 2.23 1.35 0.4 0 0 179.81 179.91
  L 179.81 179.63
  A 2.23 1.35 0.4 0 0 177.59 178.27
  L 176.95 178.26
  A 0.65 0.65 0.0 0 0 176.30 178.91
  Z"
/>
<path fill="#39a1ab" fill-opacity="0.996" d="
  M 188.41 185.22
  A 0.27 0.27 0.0 0 1 188.27 184.87
  L 191.17 177.91
  A 1.08 1.08 0.0 0 1 193.19 177.96
  L 195.83 184.96
  A 0.21 0.21 0.0 0 1 195.64 185.25
  Q 195.46 185.25 195.21 185.22
  Q 195.09 185.20 194.95 184.90
  Q 193.66 182.30 190.34 183.45
  A 1.24 1.22 2.1 0 0 189.61 184.12
  Q 188.99 185.51 188.41 185.22
  Z
  M 190.90 182.46
  L 193.03 182.54
  A 0.25 0.25 0.0 0 0 193.29 182.30
  L 193.30 182.16
  A 3.13 1.32 -87.9 0 0 192.09 178.98
  A 3.13 1.32 -87.9 0 0 190.66 182.06
  L 190.66 182.20
  A 0.25 0.25 0.0 0 0 190.90 182.46
  Z"
/>
<path fill="#39a1ab" fill-opacity="0.996" d="
  M 215.23 184.57
  A 0.37 0.37 0.0 0 1 214.87 185.00
  L 214.55 185.01
  A 0.31 0.30 -2.5 0 1 214.23 184.72
  L 213.94 178.21
  A 0.73 0.72 85.0 0 1 214.56 177.46
  Q 215.24 177.37 217.10 177.29
  C 219.69 177.20 219.92 180.26 218.25 181.72
  A 1.19 1.16 19.6 0 1 217.68 181.97
  L 216.15 182.19
  A 1.03 1.01 3.4 0 0 215.31 182.92
  Q 215.10 183.63 215.23 184.57
  Z
  M 218.3263 179.1999
  A 1.85 1.55 -17.3 0 0 216.0991 178.2701
  A 1.85 1.55 -17.3 0 0 214.7937 180.3001
  A 1.85 1.55 -17.3 0 0 217.0209 181.2299
  A 1.85 1.55 -17.3 0 0 218.3263 179.1999
  Z"
/>
<path fill="#39a1ab" fill-opacity="0.996" d="
  M 221.90 184.71
  A 0.38 0.38 0.0 0 1 221.52 185.13
  L 221.19 185.13
  A 0.32 0.31 -0.0 0 1 220.87 184.82
  L 220.87 178.14
  A 0.74 0.74 0.0 0 1 221.54 177.40
  Q 222.24 177.34 224.15 177.34
  C 226.80 177.36 226.90 180.51 225.12 181.92
  A 1.22 1.19 22.1 0 1 224.53 182.16
  L 222.95 182.31
  A 1.05 1.04 6.0 0 0 222.06 183.02
  Q 221.81 183.74 221.90 184.71
  Z
  M 225.16 179.80
  A 1.64 1.64 0.0 0 0 223.52 178.16
  A 1.64 1.64 0.0 0 0 221.88 179.80
  A 1.64 1.64 0.0 0 0 223.52 181.44
  A 1.64 1.64 0.0 0 0 225.16 179.80
  Z"
/>
<path fill="#39a1ab" fill-opacity="0.996" d="
  M 237.60 181.19
  C 237.56 183.29 239.01 184.73 241.08 184.38
  Q 242.05 184.22 242.46 183.60
  Q 243.02 182.78 243.48 182.85
  A 0.51 0.51 0.0 0 1 243.81 183.66
  C 241.27 187.03 236.34 185.07 236.41 181.18
  C 236.47 177.29 241.47 175.50 243.89 178.96
  A 0.51 0.51 0.0 0 1 243.53 179.75
  Q 243.07 179.81 242.54 178.97
  Q 242.15 178.34 241.19 178.14
  C 239.13 177.71 237.63 179.11 237.60 181.19
  Z"
/>
<path fill="#39a1ab" fill-opacity="0.996" d="
  M 244.87 185.25
  A 0.27 0.27 0.0 0 1 244.73 184.90
  L 247.55 177.94
  A 1.08 1.08 0.0 0 1 249.56 177.96
  L 252.26 184.92
  A 0.21 0.21 0.0 0 1 252.08 185.21
  Q 251.90 185.21 251.65 185.18
  Q 251.53 185.16 251.38 184.87
  Q 250.07 182.29 246.77 183.47
  A 1.24 1.21 1.5 0 0 246.05 184.14
  Q 245.45 185.53 244.87 185.25
  Z
  M 250.05 181.61
  Q 249.53 181.40 249.30 180.22
  Q 249.21 179.71 248.92 179.52
  Q 248.29 179.13 248.22 179.12
  A 0.56 0.56 0.0 0 0 247.60 179.69
  Q 247.61 180.91 246.81 181.66
  A 0.38 0.38 0.0 0 0 247.01 182.31
  Q 249.08 182.64 250.06 182.17
  A 0.31 0.30 -46.4 0 0 250.05 181.61
  Z"
/>
<path fill="#39a1ab" fill-opacity="0.996" d="
  M 262.91 181.10
  Q 263.17 180.37 263.15 180.10
  A 2.56 2.56 0.0 0 1 265.03 177.47
  C 268.22 176.61 270.73 177.66 270.68 181.25
  Q 270.65 183.66 269.05 184.81
  A 2.35 2.26 -67.9 0 1 268.15 185.21
  Q 263.72 186.19 262.86 181.95
  A 1.64 1.62 -42.1 0 1 262.91 181.10
  Z
  M 266.1604 178.1408
  A 3.19 2.92 -101.2 0 0 263.9156 181.8372
  A 3.19 2.92 -101.2 0 0 267.3996 184.3992
  A 3.19 2.92 -101.2 0 0 269.6444 180.7028
  A 3.19 2.92 -101.2 0 0 266.1604 178.1408
  Z"
/>
<path fill="#39a1ab" fill-opacity="0.996" d="
  M 274.30 179.34
  A 0.42 0.42 0.0 0 0 273.51 179.55
  L 273.55 184.96
  A 0.43 0.42 89.6 0 1 273.14 185.39
  L 272.77 185.39
  A 0.27 0.27 0.0 0 1 272.50 185.12
  L 272.45 178.07
  A 0.92 0.92 0.0 0 1 274.17 177.60
  L 277.46 183.22
  A 0.49 0.49 0.0 0 0 278.37 182.97
  L 278.34 177.91
  A 0.28 0.28 0.0 0 1 278.62 177.63
  L 278.92 177.62
  A 0.33 0.33 0.0 0 1 279.26 177.96
  L 279.31 184.70
  A 0.86 0.86 0.0 0 1 277.71 185.13
  L 274.30 179.34
  Z"
/>
<path fill="#39a1ab" fill-opacity="0.996" d="
  M 305.41 181.60
  C 305.15 177.74 309.94 175.53 312.64 178.76
  A 0.51 0.51 0.0 0 1 312.36 179.58
  Q 311.91 179.67 311.31 178.88
  Q 310.87 178.29 309.90 178.17
  C 307.81 177.93 306.45 179.44 306.60 181.53
  C 306.74 183.60 308.30 184.91 310.33 184.38
  Q 311.27 184.13 311.63 183.48
  Q 312.11 182.62 312.57 182.65
  A 0.51 0.51 0.0 0 1 312.97 183.42
  C 310.74 186.99 305.68 185.47 305.41 181.60
  Z"
/>
<path fill="#39a1ab" fill-opacity="0.996" d="
  M 320.32 185.00
  A 0.07 0.07 0.0 0 1 320.28 185.11
  L 319.21 185.32
  A 0.03 0.02 58.3 0 1 319.19 185.31
  L 316.43 182.13
  A 0.38 0.38 0.0 0 0 315.76 182.31
  Q 315.56 183.44 315.71 184.72
  A 0.59 0.58 -2.5 0 1 315.11 185.37
  L 314.81 185.32
  A 0.33 0.32 4.1 0 1 314.53 185.00
  L 314.53 177.70
  A 0.34 0.33 -0.0 0 1 314.87 177.37
  L 315.23 177.37
  A 0.43 0.43 0.0 0 1 315.66 177.80
  L 315.66 179.71
  A 0.38 0.37 -22.7 0 0 316.30 179.97
  L 318.87 177.40
  A 0.42 0.42 0.0 0 1 319.47 177.40
  L 319.70 177.63
  A 0.33 0.33 0.0 0 1 319.69 178.10
  L 316.81 180.72
  A 0.28 0.28 0.0 0 0 316.79 181.12
  L 320.32 185.00
  Z"
/>
<rect fill="#39a1ab" fill-opacity="0.996" x="-0.58" y="-3.93" transform="translate(322.11,181.33) rotate(-0.3)" width="1.16" height="7.86" rx="0.41"/>
<path fill="#39a1ab" fill-opacity="0.996" d="
  M 326.41 179.24
  A 0.43 0.42 29.9 0 0 325.62 179.45
  L 325.66 184.88
  A 0.43 0.42 89.6 0 1 325.25 185.31
  L 324.88 185.32
  A 0.27 0.27 0.0 0 1 324.60 185.04
  L 324.55 177.97
  A 0.93 0.93 0.0 0 1 326.28 177.49
  L 329.59 183.14
  A 0.49 0.49 0.0 0 0 330.50 182.89
  L 330.46 177.81
  A 0.28 0.28 0.0 0 1 330.75 177.52
  L 331.05 177.52
  A 0.34 0.34 0.0 0 1 331.39 177.85
  L 331.44 184.62
  A 0.86 0.86 0.0 0 1 329.83 185.06
  L 326.41 179.24
  Z"
/>
<path fill="#39a1ab" fill-opacity="0.996" d="
  M 339.77 179.41
  L 338.42 178.54
  A 2.14 2.11 67.3 0 0 337.80 178.28
  Q 334.34 177.51 334.13 180.74
  Q 333.82 185.34 338.70 184.08
  A 0.97 0.97 0.0 0 0 338.73 182.21
  Q 338.31 182.08 336.95 182.28
  A 0.34 0.33 -4.4 0 1 336.56 181.95
  L 336.56 181.69
  A 0.32 0.32 0.0 0 1 336.88 181.37
  L 339.89 181.37
  A 0.88 0.88 0.0 0 1 340.72 182.55
  Q 339.71 185.37 337.02 185.39
  Q 334.24 185.41 333.42 183.02
  C 332.89 181.51 333.01 178.12 335.35 177.45
  Q 338.39 176.59 340.38 178.67
  A 0.48 0.48 0.0 0 1 339.77 179.41
  Z"
/>
<path fill="#39a1ab" fill-opacity="0.996" d="
  M 344.59 183.44
  L 344.77 183.14
  A 0.34 0.34 0.0 0 1 345.35 183.13
  Q 346.37 184.71 348.08 184.37
  A 1.04 1.04 0.0 0 0 348.64 182.63
  L 347.88 181.83
  A 1.19 1.19 0.0 0 0 346.97 181.45
  Q 345.73 181.49 344.87 180.42
  A 1.35 1.35 0.0 0 1 344.58 179.43
  C 344.85 176.82 348.24 176.39 349.68 178.28
  A 0.47 0.46 49.9 0 1 349.63 178.90
  L 349.40 179.12
  A 0.28 0.28 0.0 0 1 348.98 179.09
  Q 347.88 177.77 346.32 178.23
  A 1.00 1.00 0.0 0 0 346.27 180.14
  C 348.36 180.85 351.13 181.78 349.27 184.61
  A 1.29 1.29 0.0 0 1 348.57 185.15
  Q 345.86 186.02 344.59 183.53
  A 0.12 0.09 51.1 0 1 344.59 183.44
  Z"
/>
<path fill="#39a1ab" fill-opacity="0.996" d="
  M 355.0895 177.0514
  A 4.22 3.94 -91.5 0 1 359.1386 181.1669
  A 4.22 3.94 -91.5 0 1 355.3105 185.4886
  A 4.22 3.94 -91.5 0 1 351.2614 181.3731
  A 4.22 3.94 -91.5 0 1 355.0895 177.0514
  Z
  M 358.27 181.22
  A 3.07 3.07 0.0 0 0 355.20 178.15
  A 3.07 3.07 0.0 0 0 352.13 181.22
  A 3.07 3.07 0.0 0 0 355.20 184.29
  A 3.07 3.07 0.0 0 0 358.27 181.22
  Z"
/>
<path fill="#39a1ab" fill-opacity="0.996" d="
  M 365.50 184.63
  A 0.34 0.34 0.0 0 1 365.30 185.21
  Q 362.78 185.54 361.27 185.27
  A 0.64 0.62 4.3 0 1 360.76 184.69
  L 360.37 177.91
  A 0.46 0.45 -3.3 0 1 360.80 177.44
  L 361.08 177.43
  A 0.41 0.41 0.0 0 1 361.52 177.82
  L 361.85 183.61
  A 0.70 0.70 0.0 0 0 362.63 184.26
  Q 364.84 184.00 365.50 184.63
  Z"
/>
<path fill="#39a1ab" fill-opacity="0.996" d="
  M 371.68 177.87
  A 0.30 0.30 0.0 0 1 371.98 177.57
  L 372.42 177.57
  A 0.26 0.26 0.0 0 1 372.68 177.83
  L 372.68 182.90
  A 2.46 2.46 0.0 0 1 370.22 185.36
  L 369.44 185.36
  A 2.82 2.81 -0.0 0 1 366.62 182.55
  L 366.62 177.85
  A 0.50 0.49 -90.0 0 1 367.11 177.35
  L 367.43 177.35
  A 0.37 0.36 -90.0 0 1 367.79 177.72
  L 367.79 182.48
  A 1.97 1.97 0.0 0 0 369.76 184.45
  L 370.14 184.45
  A 1.54 1.54 0.0 0 0 371.68 182.91
  L 371.68 177.87
  Z"
/>
<path fill="#39a1ab" fill-opacity="0.996" d="
  M 388.2816 177.0331
  A 4.21 3.95 -87.8 0 1 392.0671 181.3916
  A 4.21 3.95 -87.8 0 1 387.9584 185.4469
  A 4.21 3.95 -87.8 0 1 384.1729 181.0884
  A 4.21 3.95 -87.8 0 1 388.2816 177.0331
  Z
  M 391.24 181.24
  A 3.12 3.12 0.0 0 0 388.12 178.12
  A 3.12 3.12 0.0 0 0 385.00 181.24
  A 3.12 3.12 0.0 0 0 388.12 184.36
  A 3.12 3.12 0.0 0 0 391.24 181.24
  Z"
/>
<path fill="#39a1ab" fill-opacity="0.996" d="
  M 395.56 179.26
  A 0.42 0.41 30.3 0 0 394.78 179.46
  L 394.78 184.80
  A 0.42 0.41 -90.0 0 1 394.37 185.22
  L 394.01 185.22
  A 0.27 0.27 0.0 0 1 393.74 184.95
  L 393.74 178.00
  A 0.91 0.91 0.0 0 1 395.44 177.54
  L 398.65 183.11
  A 0.48 0.48 0.0 0 0 399.55 182.87
  L 399.55 177.88
  A 0.28 0.28 0.0 0 1 399.83 177.60
  L 400.13 177.60
  A 0.33 0.33 0.0 0 1 400.46 177.93
  L 400.46 184.58
  A 0.85 0.85 0.0 0 1 398.88 185.00
  L 395.56 179.26
  Z"
/>
<path fill="#39a1ab" fill-opacity="0.996" d="
  M 141.52 178.43
  Q 140.62 181.39 141.91 183.59
  A 1.96 1.95 -53.8 0 0 145.50 183.03
  Q 145.92 181.17 145.53 178.25
  A 0.55 0.55 0.0 0 1 146.07 177.63
  L 146.33 177.63
  A 0.32 0.32 0.0 0 1 146.65 177.95
  L 146.65 182.85
  A 2.49 2.48 2.9 0 1 143.91 185.32
  L 143.27 185.26
  A 2.94 2.93 2.9 0 1 140.63 182.34
  L 140.63 178.20
  A 0.42 0.42 0.0 0 1 141.13 177.79
  Q 141.38 177.84 141.52 178.02
  Q 141.61 178.12 141.52 178.43
  Z"
/>
<rect fill="#39a1ab" fill-opacity="0.996" x="-0.58" y="-3.85" transform="translate(157.93,181.43) rotate(-0.3)" width="1.16" height="7.70" rx="0.34"/>
<path fill="#39a1ab" fill-opacity="0.996" d="
  M 159.94 177.88
  A 0.27 0.26 0.6 0 1 160.29 177.54
  L 160.99 177.82
  A 0.57 0.56 -87.8 0 1 161.31 178.17
  L 162.72 182.75
  A 0.62 0.62 0.0 0 0 163.88 182.80
  L 165.95 177.70
  A 0.25 0.25 0.0 0 1 166.18 177.54
  L 166.62 177.53
  A 0.32 0.32 0.0 0 1 166.92 177.97
  L 164.88 183.02
  A 0.41 0.40 -88.0 0 1 164.64 183.25
  Q 163.97 183.51 164.32 184.51
  A 0.62 0.62 0.0 0 1 163.76 185.33
  L 163.44 185.33
  A 0.90 0.89 78.5 0 1 162.60 184.77
  L 159.94 177.88
  Z"
/>
<path fill="#39a1ab" fill-opacity="0.996" d="
  M 202.01 184.62
  A 0.34 0.33 -27.2 0 1 201.82 185.19
  Q 199.33 185.54 197.84 185.28
  A 0.63 0.61 3.8 0 1 197.33 184.72
  L 196.89 178.02
  A 0.45 0.44 -3.7 0 1 197.31 177.55
  L 197.59 177.53
  A 0.41 0.41 0.0 0 1 198.02 177.91
  L 198.40 183.64
  A 0.69 0.69 0.0 0 0 199.18 184.28
  Q 201.35 184.00 202.01 184.62
  Z"
/>
<path fill="#39a1ab" fill-opacity="0.996" d="
  M 205.29 185.11
  A 0.27 0.27 0.0 0 1 205.15 184.76
  L 207.96 177.90
  A 1.07 1.07 0.0 0 1 209.95 177.93
  L 212.59 184.81
  A 0.21 0.21 0.0 0 1 212.41 185.10
  Q 212.23 185.10 211.99 185.07
  Q 211.87 185.05 211.72 184.76
  Q 210.44 182.21 207.17 183.36
  A 1.22 1.20 1.7 0 0 206.46 184.02
  Q 205.86 185.39 205.29 185.11
  Z
  M 207.64 182.44
  L 209.90 182.56
  A 0.23 0.23 0.0 0 0 210.14 182.34
  L 210.15 182.22
  A 3.05 1.28 -86.9 0 0 209.03 179.11
  L 208.87 179.10
  A 3.05 1.28 -86.9 0 0 207.43 182.07
  L 207.42 182.19
  A 0.23 0.23 0.0 0 0 207.64 182.44
  Z"
/>
<path fill="#39a1ab" fill-opacity="0.996" d="
  M 232.26 185.29
  Q 229.81 185.47 228.37 185.12
  A 0.62 0.59 7.6 0 1 227.91 184.54
  L 227.91 177.98
  A 0.44 0.43 0.0 0 1 228.35 177.55
  L 228.62 177.55
  A 0.40 0.40 0.0 0 1 229.02 177.95
  L 229.02 183.56
  A 0.67 0.67 0.0 0 0 229.74 184.23
  Q 231.88 184.10 232.48 184.74
  A 0.33 0.33 0.0 0 1 232.26 185.29
  Z"
/>
<rect fill="#39a1ab" fill-opacity="0.996" x="-0.62" y="-3.78" transform="translate(234.37,181.29) rotate(-1.4)" width="1.24" height="7.56" rx="0.27"/>
<path fill="#39a1ab" fill-opacity="0.996" d="
  M 259.39 178.23
  Q 259.37 178.25 257.30 178.29
  A 0.86 0.86 0.0 0 0 256.46 179.15
  L 256.46 184.87
  A 0.41 0.41 0.0 0 1 256.05 185.28
  L 255.77 185.28
  A 0.30 0.30 0.0 0 1 255.47 184.98
  L 255.47 178.93
  A 0.61 0.61 0.0 0 0 254.86 178.32
  L 252.89 178.32
  A 0.39 0.39 0.0 0 1 252.82 177.55
  Q 255.30 177.14 259.21 177.63
  A 0.34 0.34 0.0 0 1 259.39 178.23
  Z"
/>
<path fill="#39a1ab" fill-opacity="0.996" d="
  M 260.13 177.76
  Q 260.82 177.59 261.03 177.70
  A 0.63 0.62 24.1 0 1 261.34 178.49
  Q 260.14 181.54 261.35 184.36
  A 0.53 0.53 0.0 0 1 261.04 185.07
  L 260.98 185.09
  A 0.50 0.49 -17.0 0 1 260.35 184.76
  Q 259.73 182.56 260.37 179.26
  Q 260.48 178.65 260.02 178.23
  A 0.27 0.27 0.0 0 1 260.13 177.76
  Z"
/>
<ellipse fill="#39a1ab" fill-opacity="0.996" cx="0.00" cy="0.00" transform="translate(286.37,177.92) rotate(-180.0)" rx="3.23" ry="0.59"/>
<path fill="#39a1ab" fill-opacity="0.996" d="
  M 296.63 185.02
  A 0.17 0.17 0.0 0 1 296.52 185.29
  L 295.56 185.43
  A 0.05 0.03 -13.3 0 1 295.53 185.42
  Q 294.33 183.40 292.95 182.31
  A 0.85 0.85 0.0 0 0 291.58 182.98
  L 291.58 184.99
  A 0.36 0.36 0.0 0 1 291.22 185.35
  L 290.92 185.35
  A 0.28 0.27 -0.0 0 1 290.64 185.08
  L 290.64 178.12
  A 0.77 0.77 0.0 0 1 291.41 177.35
  L 294.89 177.35
  A 1.19 1.17 75.2 0 1 295.92 177.96
  C 296.55 179.06 296.66 180.98 295.20 181.44
  Q 294.81 181.57 294.69 181.79
  A 0.70 0.69 -49.0 0 0 294.74 182.57
  L 296.63 185.02
  Z
  M 291.28 179.12
  L 291.68 181.10
  A 0.53 0.53 0.0 0 0 292.31 181.51
  L 292.56 181.46
  A 3.33 1.40 -11.5 0 0 295.55 179.43
  L 295.49 179.15
  A 3.33 1.40 -11.5 0 0 291.95 178.44
  L 291.69 178.50
  A 0.53 0.53 0.0 0 0 291.28 179.12
  Z"
/>
<path fill="#39a1ab" fill-opacity="0.996" d="
  M 297.38 184.45
  L 299.95 178.11
  A 1.15 1.15 0.0 0 1 302.08 178.11
  L 304.62 184.47
  A 0.56 0.56 0.0 0 1 303.78 185.14
  Q 303.61 185.01 303.55 183.86
  A 0.60 0.60 0.0 0 0 302.96 183.29
  Q 300.97 183.26 299.42 183.29
  Q 298.65 183.30 298.54 183.77
  Q 298.41 184.27 298.35 184.82
  A 0.34 0.34 0.0 0 1 297.89 185.09
  L 297.60 184.97
  A 0.40 0.40 0.0 0 1 297.38 184.45
  Z
  M 300.98 182.45
  Q 301.38 182.45 301.60 182.45
  A 1.03 1.03 0.0 0 0 302.48 180.90
  L 301.25 178.82
  A 0.26 0.15 69.3 0 0 301.09 178.69
  Q 301.03 178.68 300.99 178.68
  Q 300.95 178.68 300.88 178.69
  A 0.26 0.15 -69.1 0 0 300.73 178.82
  L 299.49 180.90
  A 1.03 1.03 0.0 0 0 300.37 182.45
  Q 300.58 182.45 300.98 182.45
  Z"
/>
<path fill="#39a1ab" fill-opacity="0.996" d="
  M 377.19 177.38
  Q 378.68 177.38 380.29 177.61
  A 0.34 0.33 49.0 0 1 380.24 178.28
  L 378.34 178.28
  A 0.77 0.77 0.0 0 0 377.57 179.09
  Q 377.90 185.37 377.16 185.37
  Q 376.42 185.36 376.79 179.09
  A 0.77 0.77 0.0 0 0 376.03 178.27
  L 374.13 178.26
  A 0.34 0.33 -48.6 0 1 374.09 177.59
  Q 375.69 177.37 377.19 177.38
  Z"
/>
<rect fill="#39a1ab" fill-opacity="0.996" x="-0.62" y="-3.83" transform="translate(382.03,181.42) rotate(-0.2)" width="1.24" height="7.66" rx="0.34"/>
<ellipse fill="#39a1ab" fill-opacity="0.996" cx="0.00" cy="0.00" transform="translate(286.21,182.21) rotate(-91.1)" rx="3.14" ry="0.48"/>
</svg>
