<svg xmlns="http://www.w3.org/2000/svg" version="1.2" viewBox="124.55 24.9 375.35 164.33">
	<title>logo_full</title>
	<style>
		.s0 { fill: #fbfcfc } 
	</style>
	<g id="Layer 1">
		<path class="s0" d="m312.9 24.9q9.6 0 11.8 0.1 0.1 0 0.2 0 0.1 0 0.1 0.1 0.1 0.1 0.2 0.2 0 0.1 0 0.2v9.1q0 0.1 0 0.2 0.1 0.1 0.1 0.2 0.1 0 0.2 0.1 0.1 0 0.2 0h10q0.1 0 0.3 0 0.1 0.1 0.2 0.2 0 0.1 0.1 0.2 0 0.1 0 0.2v10q0 0.1 0.1 0.2 0 0.1 0.1 0.2 0.1 0.1 0.2 0.2 0.1 0 0.3 0h9.9q0.1 0 0.2 0.1 0.1 0 0.2 0.1 0.1 0.1 0.2 0.2 0 0.1 0 0.2v10q0 0.1 0 0.2 0.1 0.2 0.2 0.2 0.1 0.1 0.2 0.2 0.1 0 0.2 0h10q0.1 0 0.2 0.1 0.1 0 0.2 0.1 0 0.1 0.1 0.2 0 0.1 0 0.2v23.7q0 0.1 0 0.2 0 0.1-0.1 0.2-0.1 0-0.2 0.1 0 0-0.1 0h-10.1q-0.1 0-0.3 0-0.1 0.1-0.1 0.2-0.1 0.1-0.2 0.2 0 0.1 0 0.2v10.1q0 0.1-0.1 0.2 0 0.1-0.1 0.1 0 0.1-0.1 0.1-0.1 0.1-0.2 0.1h-10.2q-0.1 0-0.2 0-0.1 0-0.1 0.1-0.1 0.1-0.1 0.2-0.1 0-0.1 0.1v10.2q0 0.1 0 0.2 0 0.1-0.1 0.2-0.1 0-0.2 0.1-0.1 0-0.2 0h-10q-0.2 0-0.3 0.1-0.1 0-0.1 0.1-0.1 0.1-0.2 0.2 0 0.1 0 0.2v9.9q0 0.2-0.1 0.3 0 0.1-0.1 0.2-0.1 0.1-0.2 0.2-0.2 0-0.3 0-1.1 0-11.6 0-10.6 0-11.7 0-0.1 0-0.2 0-0.2-0.1-0.3-0.2-0.1-0.1-0.1-0.2-0.1-0.1-0.1-0.3v-9.9q0-0.1 0-0.2-0.1-0.1-0.1-0.2-0.1-0.1-0.2-0.1-0.1-0.1-0.2-0.1h-10.1q-0.1 0-0.2 0-0.1-0.1-0.2-0.1 0-0.1-0.1-0.2 0-0.1 0-0.2v-10.2q0-0.1 0-0.1-0.1-0.1-0.1-0.2-0.1-0.1-0.2-0.1-0.1 0-0.2 0h-10.2q-0.1 0-0.2-0.1-0.1 0-0.1-0.1-0.1 0-0.1-0.1-0.1-0.1-0.1-0.2v-10.1q0-0.1 0-0.2-0.1-0.1-0.1-0.2-0.1-0.1-0.2-0.2-0.1 0-0.3 0h-10q-0.1 0-0.2 0-0.1-0.1-0.2-0.1 0-0.1-0.1-0.2 0-0.1 0-0.2v-23.7q0-0.1 0-0.2 0.1-0.1 0.2-0.2 0-0.1 0.1-0.1 0.2-0.1 0.3-0.1h9.9q0.1 0 0.3 0 0.1-0.1 0.1-0.2 0.1 0 0.2-0.2 0-0.1 0-0.2v-10q0-0.1 0.1-0.2 0-0.1 0.1-0.2 0.1-0.1 0.2-0.1 0.1-0.1 0.2-0.1h10q0.1 0 0.2 0 0.1-0.1 0.2-0.2 0.1-0.1 0.1-0.2 0.1-0.1 0.1-0.2v-10q0-0.1 0-0.2 0.1-0.1 0.2-0.2 0-0.1 0.2-0.2 0.1 0 0.2 0h10q0.1 0 0.2 0 0.1-0.1 0.2-0.1 0-0.1 0.1-0.2 0-0.1 0-0.2v-9.1q0-0.1 0.1-0.2 0-0.1 0.1-0.2 0.1-0.1 0.2-0.1 0.1 0 0.2 0 2.1-0.1 11.8-0.1zm-21.5 23.5q-0.3 0.2-0.5 0.2-6.1-0.2-10-0.1-0.1 0-0.2 0.1-0.1 0-0.2 0.1-0.1 0.1-0.1 0.2-0.1 0.1-0.1 0.2v10.3q0 0 0 0.1 0 0.1-0.1 0.1 0 0.1-0.1 0.1-0.1 0-0.1 0h-10.4q0 0-0.1 0.1-0.1 0-0.2 0.1 0 0-0.1 0.1 0 0.1 0 0.2 0 0.5 0 9.7 0 9.1 0 9.7 0 0.1 0 0.2 0.1 0 0.1 0.1 0.1 0.1 0.2 0.1 0.1 0 0.1 0h10.4q0 0 0.1 0.1 0.1 0 0.1 0 0.1 0.1 0.1 0.2 0 0 0 0.1v10.2q0 0.1 0.1 0.2 0 0.2 0.1 0.3 0.1 0 0.2 0.1 0.1 0 0.2 0 3.9 0.1 10 0 0.2 0 0.5 0.2 0.2 0.2 0.2 0.4-0.2 6.1-0.1 10 0 0.1 0 0.2 0.1 0.1 0.2 0.2 0 0.1 0.2 0.2 0.1 0 0.2 0h10.2q0.1 0 0.2 0 0 0.1 0.1 0.1 0 0.1 0 0.1 0.1 0.1 0.1 0.2v10.3q0 0.1 0 0.1 0 0.1 0.1 0.2 0.1 0.1 0.2 0.1 0 0 0.1 0 0.6 0 9.7 0 9.2 0 9.7 0 0.1 0 0.2 0 0.1 0 0.2-0.1 0-0.1 0.1-0.2 0 0 0-0.1v-10.3q0-0.1 0-0.2 0.1 0 0.1-0.1 0.1 0 0.1-0.1 0.1 0 0.2 0h10.2q0.1 0 0.2 0 0.1-0.1 0.2-0.2 0.1-0.1 0.1-0.2 0.1-0.1 0.1-0.2 0.1-3.9-0.1-10 0-0.2 0.2-0.4 0.2-0.2 0.5-0.2 6.1 0.1 9.9 0.1 0.2-0.1 0.3-0.1 0.1 0 0.2-0.1 0.1-0.1 0.1-0.2 0-0.2 0.1-0.3v-10.2q0-0.1 0-0.1 0-0.1 0.1-0.1 0-0.1 0.1-0.1 0 0 0.1-0.1h10.3q0.1 0 0.2 0 0.1 0 0.1-0.1 0.1-0.1 0.1-0.1 0.1-0.1 0.1-0.2 0-0.5 0-9.7 0-9.2 0-9.7 0-0.1-0.1-0.2 0-0.1-0.1-0.1 0-0.1-0.1-0.1-0.1-0.1-0.2-0.1h-10.3q-0.1 0-0.1 0-0.1 0-0.1-0.1-0.1 0-0.1-0.1 0-0.1-0.1-0.1l0.1-10.3q-0.1-0.1-0.1-0.2 0-0.1-0.1-0.2-0.1-0.1-0.2-0.1-0.1-0.1-0.3-0.1-3.8-0.1-9.9 0.1-0.3 0-0.5-0.2-0.2-0.2-0.2-0.5 0.2-6.1 0.1-9.9 0-0.1-0.1-0.3 0-0.1-0.1-0.2-0.1 0-0.2-0.1-0.1 0-0.2 0h-10.2q-0.1 0-0.2-0.1 0 0-0.1 0 0-0.1-0.1-0.2 0 0 0-0.1v-10.3q0-0.1 0-0.2-0.1-0.1-0.1-0.1-0.1-0.1-0.2-0.1-0.1-0.1-0.2-0.1-0.5 0-9.7 0-9.1 0-9.7 0-0.1 0-0.1 0.1-0.1 0-0.2 0.1-0.1 0-0.1 0.1 0 0.1 0 0.2v10.3q0 0.1-0.1 0.1 0 0.1 0 0.2-0.1 0-0.1 0-0.1 0.1-0.2 0.1h-10.2q-0.1 0-0.2 0-0.2 0.1-0.2 0.1-0.1 0.1-0.2 0.2 0 0.2 0 0.3-0.1 3.8 0.1 9.9 0 0.3-0.2 0.5z"/>
		<path class="s0" d="m312.9 29.5q5.1 0 6 0.1 0.1 0 0.3 0 0.1 0.1 0.2 0.2 0.1 0.1 0.1 0.2 0.1 0.2 0.1 0.3v9.9q0 0.1 0 0.2 0.1 0.1 0.1 0.1 0.1 0.1 0.2 0.1 0.1 0.1 0.2 0.1h10.2q0.1 0 0.2 0 0.1 0.1 0.2 0.2 0.1 0 0.2 0.2 0 0.1 0 0.2 0 5.3-0.1 10.3 0 0 0.2 0.2 0.1 0.2 0.2 0.2 5-0.1 10.3-0.1 0.1 0 0.2 0 0.1 0.1 0.2 0.1 0.1 0.1 0.1 0.2 0.1 0.1 0.1 0.3v10.2q0 0.1 0 0.2 0 0.1 0.1 0.1 0.1 0.1 0.2 0.1 0 0.1 0.1 0.1h10q0.1 0 0.2 0 0.2 0.1 0.3 0.2 0.1 0.1 0.1 0.2 0.1 0.1 0.1 0.3 0 0.9 0 6 0 5.1 0 6 0 0.2-0.1 0.3 0 0.1-0.1 0.2-0.1 0.1-0.3 0.2-0.1 0-0.2 0h-10q-0.1 0-0.1 0.1-0.1 0-0.2 0.1-0.1 0-0.1 0.1 0 0.1 0 0.2v10.2q0 0.1-0.1 0.3 0 0.1-0.1 0.2-0.1 0-0.2 0.1-0.1 0-0.2 0-5.3 0-10.3-0.1-0.1 0-0.2 0.2-0.2 0.2-0.2 0.2 0.1 5 0.1 10.3 0 0.1 0 0.2-0.1 0.1-0.2 0.2-0.1 0.1-0.2 0.2-0.1 0-0.2 0h-10.2q-0.1 0-0.2 0-0.1 0.1-0.2 0.1 0 0.1-0.1 0.2 0 0.1 0 0.2v9.9q0 0.1-0.1 0.3 0 0.1-0.1 0.2-0.1 0.1-0.2 0.2-0.2 0-0.3 0-0.9 0.1-6 0.1-5.2 0-6.1-0.1-0.1 0-0.2 0-0.2-0.1-0.3-0.2-0.1-0.1-0.1-0.2-0.1-0.2-0.1-0.3v-9.9q0-0.1 0-0.2 0-0.1-0.1-0.2-0.1 0-0.2-0.1 0 0-0.1 0h-10.3q-0.1 0-0.2 0-0.1-0.1-0.2-0.2-0.1-0.1-0.1-0.2-0.1-0.1-0.1-0.2 0-5.3 0.1-10.3 0 0-0.1-0.2-0.2-0.2-0.3-0.2-5 0.1-10.2 0.1-0.2 0-0.3 0-0.1-0.1-0.2-0.1-0.1-0.1-0.1-0.2 0-0.2-0.1-0.3v-10.2q0-0.1 0-0.2 0-0.1-0.1-0.1 0-0.1-0.1-0.1-0.1-0.1-0.2-0.1h-9.9q-0.2 0-0.3 0-0.1-0.1-0.2-0.2-0.1-0.1-0.2-0.2-0.1-0.1-0.1-0.3 0-0.9 0-6 0-5.1 0-6 0-0.2 0.1-0.3 0.1-0.1 0.2-0.2 0.1-0.1 0.2-0.2 0.1 0 0.3 0h9.9q0.1 0 0.2-0.1 0.1 0 0.1-0.1 0.1 0 0.1-0.1 0-0.1 0-0.2v-10.2q0.1-0.2 0.1-0.3 0-0.1 0.1-0.2 0.1 0 0.2-0.1 0.1 0 0.3 0 5.2 0 10.2 0.1 0.1 0 0.3-0.2 0.1-0.2 0.1-0.2-0.1-5-0.1-10.3 0-0.1 0.1-0.2 0-0.2 0.1-0.2 0.1-0.1 0.2-0.2 0.1 0 0.2 0h10.3q0.1 0 0.1-0.1 0.1 0 0.2-0.1 0.1 0 0.1-0.1 0-0.1 0-0.2v-9.9q0-0.1 0.1-0.3 0-0.1 0.1-0.2 0.1-0.1 0.3-0.2 0.1 0 0.2 0 0.9-0.1 6.1-0.1zm-15.9 24.6q-0.1 0.1-0.1 0.1-9.8-0.1-10.4-0.1-0.1 0.1-0.2 0.1-0.1 0-0.2 0.1-0.1 0.1-0.1 0.2-0.1 0.1-0.1 0.2v10.2q0 0.1 0 0.2 0 0.1-0.1 0.1-0.1 0.1-0.1 0.1-0.1 0.1-0.2 0.1h-10.3q-0.1 0-0.2 0-0.1 0-0.1 0.1-0.1 0.1-0.2 0.2 0 0.1 0 0.2 0 2.7 0 4 0 1.3 0 4 0 0.1 0 0.2 0.1 0.1 0.2 0.1 0 0.1 0.1 0.2 0.1 0 0.2 0h10.3q0.1 0 0.2 0 0 0.1 0.1 0.1 0.1 0.1 0.1 0.2 0 0.1 0 0.2v10.2q0 0.1 0.1 0.2 0 0.1 0.1 0.2 0.1 0 0.2 0.1 0.1 0 0.2 0 0.6 0 10.4 0 0 0 0.1 0.1 0.2 0.1 0.2 0.2-0.1 9.8-0.1 10.3 0 0.2 0.1 0.3 0 0.1 0.1 0.2 0.1 0 0.2 0.1 0.1 0 0.2 0h10.2q0.1 0 0.2 0.1 0 0 0.1 0.1 0.1 0 0.1 0.1 0 0.1 0 0.2v10.2q0 0.1 0.1 0.2 0 0.1 0.1 0.2 0.1 0.1 0.2 0.1 0.1 0 0.2 0 2.6 0 4 0 1.3 0 3.9 0 0.1 0.1 0.2 0 0.1 0 0.2-0.1 0.1-0.1 0.1-0.2 0.1-0.1 0.1-0.2v-10.2q0-0.1 0-0.2 0-0.1 0.1-0.1 0.1-0.1 0.2-0.1 0-0.1 0.1-0.1h10.2q0.1 0 0.2 0 0.1-0.1 0.2-0.1 0.1-0.1 0.1-0.2 0.1-0.1 0.1-0.3 0-0.5 0-10.3 0-0.1 0.1-0.2 0.1-0.1 0.2-0.1 9.7 0 10.3 0 0.1 0 0.2 0 0.1 0 0.2-0.1 0.1-0.1 0.1-0.2 0.1-0.1 0.1-0.2v-10.2q0-0.1 0-0.2 0.1-0.1 0.1-0.1 0.1-0.1 0.2-0.1 0-0.1 0.1-0.1h10.3q0.1 0 0.2 0 0.1-0.1 0.2-0.1 0-0.1 0.1-0.2 0-0.1 0-0.2 0-2.7 0-4 0-1.3 0-4 0-0.1 0-0.2-0.1-0.1-0.1-0.2-0.1 0-0.2-0.1-0.1 0-0.2 0h-10.3q-0.1 0-0.1-0.1-0.1 0-0.2-0.1 0 0-0.1-0.1 0-0.1 0-0.2v-10.2q0-0.1-0.1-0.2 0-0.1-0.1-0.2-0.1-0.1-0.2-0.1-0.1 0-0.2 0-0.6 0-10.3 0-0.1 0-0.2-0.1-0.1-0.1-0.1-0.2 0-9.8 0-10.4 0-0.1 0-0.2-0.1-0.1-0.2-0.2 0 0-0.1-0.1-0.1 0-0.3 0h-10.1q-0.1 0-0.2-0.1-0.1 0-0.2-0.1 0 0-0.1-0.1 0-0.1 0-0.2v-10.2q0-0.1-0.1-0.2 0-0.1-0.1-0.2 0-0.1-0.1-0.1-0.1-0.1-0.2-0.1-2.7 0.1-4 0.1-1.3 0-4-0.1-0.1 0-0.2 0.1-0.1 0-0.2 0.1-0.1 0.1-0.1 0.2 0 0.1 0 0.2v10.2q-0.1 0.1-0.1 0.2 0 0.1-0.1 0.1 0 0.1-0.1 0.1-0.1 0.1-0.2 0.1h-10.2q-0.1 0-0.2 0-0.1 0.1-0.2 0.1-0.1 0.1-0.1 0.2-0.1 0.1-0.1 0.2 0 0.6 0.1 10.4 0 0-0.2 0.2z"/>
		<path class="s0" d="m312.9 46.4q5 0 12-0.1 0 0 0.1 0.1 0.1 0 0.1 0.1 0.1 0 0.1 0.1 0.1 0.1 0.1 0.1 0 5.4-0.1 10.5 0 0.1 0.2 0.2 0.1 0.1 0.1 0.1 5.1 0 10.5 0 0.1 0 0.2 0 0 0 0.1 0.1 0.1 0.1 0.1 0.1 0 0.1 0 0.2 0 6.9 0 12 0 5 0 12 0 0.1 0 0.1 0 0.1-0.1 0.2-0.1 0-0.1 0.1-0.1 0-0.2 0-5.4 0-10.5 0 0 0-0.1 0.1-0.2 0.1-0.2 0.1 0.1 5.2 0.1 10.5 0 0.1-0.1 0.2 0 0.1 0 0.1-0.1 0.1-0.2 0.1-0.1 0-0.1 0-7 0-12 0-5.1 0-12 0-0.1 0-0.2 0-0.1 0-0.1-0.1-0.1 0-0.1-0.1 0-0.1 0-0.2 0-5.3 0-10.5 0 0-0.1-0.1-0.1-0.1-0.2-0.1-5.1 0-10.5 0-0.1 0-0.1 0-0.1-0.1-0.2-0.1 0-0.1 0-0.2-0.1 0-0.1-0.1 0.1-7 0.1-12 0-5.1-0.1-12 0-0.1 0.1-0.2 0 0 0-0.1 0.1 0 0.2-0.1 0 0 0.1 0 5.4 0 10.5 0 0.1 0 0.2-0.1 0.1-0.1 0.1-0.2-0.1-5.1 0-10.5 0 0 0-0.1 0-0.1 0.1-0.1 0-0.1 0.1-0.1 0.1-0.1 0.2-0.1 6.9 0.1 12 0.1zm-10.4 13.2c-0.3 0.3-6.4 0.1-10.3 0.1q-0.1 0-0.3 0.1-0.1 0-0.2 0.1 0 0.1-0.1 0.2-0.1 0.1-0.1 0.2-0.1 1.6-0.1 9.6 0 8 0.1 9.6 0 0.1 0.1 0.2 0.1 0.1 0.1 0.2 0.1 0.1 0.3 0.1 0.1 0.1 0.2 0.1c3.9 0 10-0.2 10.3 0.1 0.3 0.3 0.2 6.5 0.2 10.3q0 0.2 0 0.3 0.1 0.1 0.1 0.2 0.1 0.1 0.2 0.1 0.2 0.1 0.3 0.1 1.6 0.1 9.6 0.1 7.9 0 9.5-0.1 0.1 0 0.2-0.1 0.2 0 0.2-0.1 0.1-0.1 0.2-0.2 0-0.1 0-0.3c0-3.8-0.1-10 0.2-10.3 0.2-0.3 6.4-0.1 10.3-0.1q0.1 0 0.2-0.1 0.1 0 0.2-0.1 0.1-0.1 0.2-0.2 0-0.1 0-0.3 0.1-1.5 0.1-9.5 0-8-0.1-9.6 0-0.1 0-0.2-0.1-0.1-0.2-0.2-0.1-0.1-0.2-0.2-0.1 0-0.2 0c-3.9 0-10.1 0.2-10.3-0.1-0.3-0.3-0.2-6.5-0.2-10.4q0-0.1 0-0.2-0.1-0.1-0.2-0.2 0-0.1-0.2-0.2-0.1 0-0.2 0-1.6-0.1-9.6-0.1-7.9 0-9.5 0.1-0.1 0-0.3 0-0.1 0.1-0.2 0.2 0 0.1-0.1 0.2 0 0.1 0 0.2c-0.1 3.9 0.1 10.1-0.2 10.4z"/>
		<path class="s0" d="m325.4 69.7q0.1 0.1 0.1 0.1 0 0.1 0 0.2 0 0 0 0.1 0 0-0.1 0.1l-12.4 12.3q0 0-0.1 0.1 0 0-0.1 0 0 0-0.1 0 0-0.1-0.1-0.1l-12.3-12.4q-0.1 0-0.1-0.1 0 0 0-0.1 0-0.1 0-0.1 0-0.1 0.1-0.1l12.4-12.3q0-0.1 0.1-0.1 0 0 0.1 0 0 0 0.1 0 0 0 0.1 0.1zm-12.4-9.4q-0.1 0-0.1 0-0.1-0.1-0.1-0.1-0.1 0-0.1 0.1-0.1 0-0.1 0l-9.3 9.3q0 0-0.1 0.1 0 0 0 0.1 0 0 0 0.1 0.1 0 0.1 0.1l9.3 9.3q0 0 0.1 0 0 0 0.1 0 0 0 0.1 0 0 0 0 0l9.3-9.3q0.1 0 0.1-0.1 0 0 0-0.1 0 0 0-0.1 0 0-0.1-0.1z"/>
		<path class="s0" d="m316.7 69.9q0 0.7-0.3 1.4-0.3 0.8-0.8 1.3-0.6 0.5-1.3 0.8-0.7 0.3-1.5 0.3-0.7 0-1.5-0.3-0.7-0.3-1.2-0.8-0.5-0.5-0.8-1.3-0.3-0.7-0.3-1.4 0-0.8 0.3-1.5 0.3-0.7 0.8-1.3 0.5-0.5 1.2-0.8 0.8-0.3 1.5-0.3 0.8 0 1.5 0.3 0.7 0.3 1.3 0.8 0.5 0.6 0.8 1.3 0.3 0.7 0.3 1.5zm-2.1 0q0-0.3-0.2-0.7-0.1-0.3-0.3-0.5-0.3-0.2-0.6-0.4-0.3-0.1-0.6-0.1-0.4 0-0.7 0.1-0.3 0.2-0.5 0.4-0.3 0.2-0.4 0.5-0.1 0.4-0.2 0.7 0.1 0.3 0.2 0.7 0.1 0.3 0.4 0.5 0.2 0.2 0.5 0.4 0.3 0.1 0.7 0.1 0.3 0 0.6-0.1 0.3-0.2 0.6-0.4 0.2-0.2 0.3-0.5 0.2-0.4 0.2-0.7z"/>
		<path class="s0" d="m124.9 155.6q-0.1 0-0.2-0.1-0.1-0.1-0.1-0.2-0.1-0.1 0-0.2 0-0.1 0.1-0.1 0.1-0.2 0.6-0.6c1-0.8 3.9-9.2 6.6-16.2q0.1-0.2 0.2-0.3 0-0.1 0.1-0.2 0.1-0.1 0.2-0.2 0.1-0.1 0.3-0.2 1.3-0.7 3-1 0.1 0 0.2 0 0.2 0 0.3 0.1 0.1 0.1 0.2 0.2 0.1 0.1 0.1 0.2l6.4 16.9q0 0 0 0.1 0 0 0.1 0 0 0.1 0 0.1 0 0 0.1 0l1 1.2q0.1 0 0.1 0.1 0 0.1 0 0.2-0.1 0-0.1 0.1-0.1 0-0.2 0l-3.9 0.1q-0.1-0.1-0.2-0.1-0.1 0-0.1-0.1-0.1-0.1-0.1-0.2 0-0.1 0-0.2 0.3-1.7-1.6-5.7-0.1-0.1-0.1-0.2-0.1-0.1-0.2-0.1-0.1-0.1-0.2-0.1-0.1 0-0.2 0h-6.6q-0.1 0-0.3 0-0.1 0.1-0.2 0.1-0.1 0.1-0.1 0.2-0.1 0.1-0.2 0.2-1.7 3.3-1.6 5.5 0 0.2-0.1 0.3 0 0.1-0.1 0.2-0.1 0.1-0.2 0.1-0.1 0.1-0.2 0.1zm5.6-8.5q0 0 0 0.1 0 0.1 0.1 0.2 0 0 0.1 0.1 0 0 0.1 0l6.2 0.1q0.1 0 0.2 0 0.1-0.1 0.1-0.2 0.1 0 0.1-0.1 0-0.1 0-0.2l-3-8.3q-0.1-0.1-0.2-0.2-0.1 0-0.2 0-0.1 0-0.2 0-0.1 0.1-0.1 0.2z"/>
		<path class="s0" d="m213.6 146.1c0 4.6 3.1 9.8 8.3 7.9q2.5-0.9 3.1-3.5 0.1-0.2 0.2-0.4 0.2-0.1 0.4-0.1 0.2 0 0.3 0.1 0.2 0.1 0.3 0.3 0.3 0.8 0 2.9 0 0.2-0.1 0.3 0 0.2-0.1 0.3-0.1 0.1-0.2 0.2-0.1 0.1-0.2 0.2-7.2 4.1-12.7-1.2-3-2.9-3-6.9-0.1-4.1 2.9-7 5.5-5.4 12.7-1.3 0.1 0.1 0.2 0.2 0.2 0.1 0.2 0.2 0.1 0.1 0.2 0.3 0 0.1 0.1 0.2 0.2 2.1-0.1 3 0 0.2-0.2 0.3-0.1 0.1-0.3 0.1-0.2 0-0.4-0.2-0.1-0.1-0.2-0.3-0.7-2.6-3.1-3.5c-5.3-1.8-8.3 3.4-8.3 7.9z"/>
		<path class="s0" d="m230 155q0.1-0.1 0.7-0.6c1-0.8 3.8-9.2 6.6-16.2q0.1-0.1 0.1-0.3 0.1-0.1 0.2-0.2 0.1-0.1 0.2-0.2 0.1-0.1 0.2-0.2 1.4-0.7 3.1-1 0.1 0 0.2 0 0.2 0.1 0.3 0.1 0.1 0.1 0.2 0.2 0.1 0.1 0.1 0.2l6.4 16.9q0 0.1 0 0.1 0 0.1 0 0.1 0 0 0.1 0.1 0 0 0 0l1.1 1.1q0 0.1 0.1 0.2 0 0.1-0.1 0.1 0 0.1-0.1 0.2 0 0-0.1 0h-3.9q-0.1 0-0.2 0-0.1-0.1-0.2-0.1 0-0.1-0.1-0.2 0-0.1 0-0.2 0.4-1.8-1.6-5.8 0 0-0.1-0.1-0.1-0.1-0.1-0.2-0.1 0-0.2-0.1-0.1 0-0.2 0h-6.7q-0.1 0-0.2 0.1-0.1 0-0.2 0-0.1 0.1-0.2 0.2-0.1 0.1-0.1 0.2-1.8 3.4-1.7 5.6 0 0.1 0 0.2-0.1 0.1-0.2 0.2 0 0.1-0.1 0.2-0.2 0-0.3 0h-2.8q-0.1 0-0.2 0-0.1-0.1-0.1-0.2 0-0.1 0-0.2 0-0.1 0.1-0.2zm9-15.9l-3.1 7.8q0 0.1 0 0.2 0 0.1 0.1 0.2 0.1 0.1 0.2 0.2 0.1 0 0.2 0h5.8q0.1 0 0.2 0 0.1-0.1 0.2-0.2 0.1-0.1 0.1-0.2 0-0.1 0-0.3l-2.9-7.7q-0.1-0.1-0.2-0.2-0.1-0.1-0.2-0.1-0.1 0-0.2 0.1-0.1 0.1-0.2 0.2z"/>
		<path class="s0" d="m290.7 136.2c1.2 0 2.4 0.2 3.5 0.7 1.1 0.5 2.2 1.3 3 2.2 0.9 0.9 1.6 2 2 3.3 0.5 1.2 0.7 2.5 0.8 3.8 0 1.3-0.3 2.6-0.7 3.8-0.5 1.2-1.2 2.3-2 3.3-0.9 0.9-1.9 1.6-3.1 2.1-1.1 0.5-2.3 0.8-3.5 0.8-1.2 0-2.4-0.2-3.5-0.7-1.2-0.5-2.2-1.3-3-2.2-0.9-0.9-1.6-2-2.1-3.3-0.4-1.2-0.7-2.5-0.7-3.8 0-1.3 0.3-2.6 0.7-3.8 0.5-1.2 1.2-2.3 2-3.3 0.9-0.9 1.9-1.6 3-2.1 1.2-0.5 2.4-0.8 3.6-0.8zm0.1 1.5q-1.1 0-2.2 0.7-1 0.6-1.8 1.8-0.8 1.2-1.3 2.7c-0.3 1.1-0.4 2.2-0.4 3.3 0 1.1 0.1 2.2 0.4 3.3q0.4 1.5 1.2 2.7 0.9 1.2 1.9 1.9 1.1 0.6 2.2 0.6 1.1 0 2.2-0.6 1-0.7 1.9-1.9 0.8-1.2 1.2-2.7c0.3-1.1 0.4-2.2 0.4-3.3 0-1.1-0.1-2.2-0.4-3.2q-0.4-1.6-1.2-2.8-0.8-1.2-1.9-1.8-1-0.7-2.2-0.7z"/>
		<path class="s0" d="m363.8 155.6q-0.2 0-0.3-0.1 0 0-0.1-0.1 0-0.1 0-0.2 0-0.1 0.1-0.2 0.2-0.1 0.7-0.6c1-0.8 3.9-9.2 6.6-16.2q0.1-0.2 0.1-0.3 0.1-0.1 0.2-0.2 0.1-0.1 0.2-0.2 0.1-0.1 0.2-0.2 1.4-0.7 3.1-1 0.1 0 0.2 0 0.2 0 0.3 0.1 0.1 0 0.2 0.2 0.1 0.1 0.1 0.2l6.4 16.9q0 0.1 0 0.1 0 0 0.1 0.1 0 0 0 0 0 0.1 0.1 0.1l1 1.1q0.1 0.1 0.1 0.2 0 0 0 0.1-0.1 0.1-0.1 0.2-0.1 0-0.2 0h-3.9q-0.1 0-0.2 0-0.1-0.1-0.1-0.2-0.1 0-0.1-0.1 0-0.1 0-0.2 0.3-1.8-1.6-5.8-0.1-0.1-0.1-0.2-0.1 0-0.2-0.1-0.1-0.1-0.2-0.1-0.1 0-0.2 0h-6.7q-0.1 0-0.2 0-0.1 0.1-0.2 0.1-0.1 0.1-0.2 0.2-0.1 0.1-0.1 0.2-1.7 3.4-1.7 5.6 0 0.1 0 0.2 0 0.1-0.1 0.2-0.1 0.1-0.2 0.2-0.1 0-0.3 0zm5.7-8.6q0 0.1 0 0.2 0 0.1 0.1 0.2 0 0 0.1 0.1 0 0 0.1 0l6.2 0.1q0.1 0 0.2-0.1 0.1 0 0.1-0.1 0.1 0 0.1-0.1 0-0.1 0-0.2l-3-8.2q-0.1-0.1-0.2-0.2 0 0-0.1 0-0.2 0-0.2 0-0.1 0.1-0.2 0.2z"/>
		<path class="s0" d="m386.7 146.2q0-4.1 3-7 5.5-5.3 12.7-1.3 0.1 0.1 0.2 0.2 0.1 0.1 0.2 0.2 0.1 0.1 0.1 0.3 0.1 0.1 0.1 0.3 0.3 2 0 2.9-0.1 0.2-0.2 0.3-0.2 0.1-0.4 0.1-0.2 0-0.3-0.2-0.2-0.1-0.2-0.3-0.7-2.6-3.2-3.4c-5.3-1.9-8.3 3.3-8.3 7.8 0.1 4.6 3.1 9.8 8.4 7.9q2.4-0.9 3.1-3.5 0-0.2 0.2-0.3 0.1-0.2 0.3-0.2 0.2 0 0.4 0.1 0.2 0.1 0.2 0.3 0.3 0.8 0.1 2.9-0.1 0.2-0.1 0.3-0.1 0.2-0.2 0.3 0 0.1-0.1 0.2-0.2 0.1-0.3 0.2-7.1 4.1-12.6-1.2-3.1-2.9-3.1-6.9z"/>
		<path class="s0" d="m148.2 155l0.5-0.6q0.1-0.1 0.1-0.2 0.1-0.1 0.2-0.3 0-0.1 0-0.2 0.1-0.2 0.1-0.3v-14.7q0-0.2-0.1-0.3 0-0.2-0.1-0.3 0-0.2-0.1-0.3-0.1-0.1-0.2-0.2l-0.3-0.3q-0.1-0.1-0.2-0.2 0-0.1 0-0.3 0.1-0.1 0.2-0.1 0.1-0.1 0.2-0.1c3.9-0.2 12.2-1 13 5.1 0.5 4.1-2.5 6.9-6.5 6.9q-0.7 0-2.4 0-0.1 0-0.2 0-0.1 0-0.2 0.1-0.1 0.1-0.2 0.2 0 0.1 0 0.2-0.5 4 0.6 5.9 0 0.1 0 0.2 0 0.1 0 0.2-0.1 0.1-0.2 0.1 0 0.1-0.1 0.1h-3.8q-0.1 0-0.2-0.1-0.1 0-0.2-0.1 0-0.1 0-0.2 0-0.1 0.1-0.2zm3.7-15.6l0.1 6.2q0 0.2 0.1 0.5 0.1 0.2 0.3 0.4 0.2 0.2 0.4 0.3 0.3 0.1 0.5 0.1l1.6-0.1q0.7 0 1.3-0.3 0.7-0.3 1.2-0.8 0.5-0.6 0.7-1.3 0.3-0.7 0.2-1.4v-1.3q0-0.7-0.3-1.4-0.3-0.7-0.8-1.2-0.5-0.5-1.1-0.8-0.7-0.3-1.4-0.2h-1.6q-0.2 0-0.5 0.1-0.2 0.1-0.4 0.3-0.2 0.2-0.3 0.4-0.1 0.3 0 0.5z"/>
		<path class="s0" d="m165.9 155.6q-0.1 0-0.2 0-0.1-0.1-0.1-0.2-0.1-0.1 0-0.2 0-0.1 0-0.2l0.5-0.6q0.1-0.1 0.2-0.2 0.1-0.1 0.1-0.2 0.1-0.2 0.1-0.3 0-0.2 0-0.3l-0.1-14.7q0-0.2 0-0.4 0-0.1-0.1-0.2 0-0.2-0.1-0.3-0.1-0.1-0.2-0.2l-0.4-0.3q-0.1-0.1-0.1-0.2 0-0.1 0-0.3 0.1-0.1 0.2-0.2 0.1 0 0.2 0c3.9-0.2 12.2-1.1 13 5 0.6 4.1-2.5 7-6.5 7q-0.7 0-2.4 0-0.1 0-0.2 0-0.1 0-0.2 0.1-0.1 0.1-0.1 0.2-0.1 0.1-0.1 0.2-0.5 4 0.7 5.9 0 0.1 0 0.2 0 0.1 0 0.2-0.1 0.1-0.2 0.1-0.1 0.1-0.2 0.1zm3.5-16.3l-0.1 6.2q0 0.2 0.1 0.5 0.1 0.2 0.3 0.4 0.2 0.2 0.4 0.3 0.3 0.1 0.5 0.1h1.5q0.7 0 1.4-0.2 0.6-0.3 1.1-0.8 0.5-0.5 0.8-1.2 0.3-0.7 0.3-1.4v-1.4q0-0.7-0.2-1.4-0.3-0.7-0.8-1.2-0.5-0.6-1.1-0.8-0.6-0.3-1.3-0.4h-1.5q-0.3 0-0.5 0.1-0.3 0.1-0.5 0.3-0.1 0.2-0.3 0.4-0.1 0.2-0.1 0.5z"/>
		<path class="s0" d="m183.4 136.6h3.9q0.1 0 0.2 0 0.1 0.1 0.1 0.1 0.1 0.1 0.1 0.2-0.1 0.1-0.1 0.2l-0.5 0.5q-0.1 0.1-0.1 0.2-0.1 0.1-0.1 0.2-0.1 0.1-0.1 0.2 0 0.1 0 0.2v14.8q0 0.1 0 0.2 0.1 0.1 0.2 0.2 0.1 0.1 0.2 0.2 0.1 0 0.2 0h5.4q0.2 0 0.3 0 0.1 0 0.2-0.1 0.1 0 0.2-0.1 0.1-0.1 0.2-0.2l1.2-1.4q0.1-0.1 0.2-0.1 0.1 0 0.2 0 0.2 0.1 0.2 0.2 0.1 0.1 0.1 0.2v2.7q0 0.1 0 0.2-0.1 0.1-0.2 0.2-0.1 0.1-0.2 0.1-0.1 0.1-0.2 0.1h-11.7q-0.1 0-0.2-0.1 0 0-0.1-0.1 0 0 0-0.1 0-0.1 0.1-0.2c0.3-0.5 0.9-0.9 0.9-1.7q-0.3-9.4 0-14.9 0-0.1 0-0.1 0-0.1-0.1-0.2 0-0.1 0-0.1-0.1-0.1-0.1-0.2l-0.7-0.7q-0.1-0.1-0.1-0.2 0-0.1 0-0.2 0.1-0.1 0.2-0.2 0.1-0.1 0.2 0z"/>
		<path class="s0" d="m203.4 146q0 6.9 0 7.5 0 0.1 0.1 0.3 0 0.2 0.1 0.3 0 0.2 0.1 0.3 0.1 0.2 0.3 0.3l0.1 0.1q0.1 0.1 0.1 0.2 0 0.1 0 0.3-0.1 0.1-0.2 0.1-0.1 0.1-0.2 0.1-1 0-1.9 0-1 0-1.9 0-0.2 0-0.3-0.1-0.1 0-0.1-0.2-0.1-0.1 0-0.2 0-0.1 0.1-0.2l0.1-0.1q0.1-0.1 0.2-0.3 0.1-0.1 0.2-0.3 0.1-0.1 0.1-0.3 0-0.2 0-0.4 0-0.5 0-7.4 0-6.9 0-7.4 0-0.2 0-0.3 0-0.2-0.1-0.4-0.1-0.1-0.2-0.3-0.1-0.1-0.2-0.2l-0.1-0.1q-0.1-0.1-0.1-0.2 0-0.1 0-0.3 0-0.1 0.2-0.2 0.1 0 0.2 0 0.9-0.1 1.9-0.1 1 0 1.9 0.1 0.1 0 0.2 0 0.1 0.1 0.2 0.2 0 0.2 0 0.3 0 0.1-0.1 0.2l-0.1 0.1q-0.1 0.1-0.2 0.2-0.1 0.2-0.2 0.3-0.1 0.2-0.1 0.4-0.1 0.2-0.1 0.3 0 0.6 0 7.4z"/>
		<path class="s0" d="m259.8 155.5q-1.9 0-2 0-0.1 0-0.2-0.1-0.1 0-0.2-0.1 0-0.1 0-0.3 0-0.1 0.1-0.2l0.4-0.4q0.1-0.1 0.2-0.2 0-0.1 0.1-0.2 0-0.1 0-0.2 0-0.1 0-0.3l0.1-14.3q0-0.1-0.1-0.2 0-0.2-0.1-0.3-0.1-0.1-0.2-0.1-0.1-0.1-0.2-0.1-3-0.7-4.3 1.6 0 0.1-0.1 0.1-0.1 0.1-0.2 0-0.1 0-0.2 0-0.1-0.1-0.1-0.2-0.3-1.4-0.1-2.8 0-0.1 0-0.2 0.1-0.1 0.2-0.2 0.1-0.1 0.2-0.2 0.1 0 0.3 0 0.6 0 6.5 0 5.8 0 6.5 0 0.1 0 0.2 0.1 0.1 0 0.2 0.1 0.1 0.1 0.2 0.2 0 0.1 0.1 0.3 0.1 1.3-0.2 2.7 0 0.1-0.1 0.2 0 0.1-0.2 0.1-0.1 0-0.2-0.1-0.1 0-0.1-0.1-1.3-2.3-4.3-1.6-0.1 0-0.2 0.1-0.1 0-0.2 0.1-0.1 0.1-0.1 0.3-0.1 0.1-0.1 0.2v14.3q0 0.2 0 0.3 0.1 0.1 0.1 0.2 0 0.1 0.1 0.2 0.1 0.1 0.1 0.2l0.4 0.4q0.1 0.1 0.1 0.3 0.1 0.1 0 0.2 0 0.1-0.1 0.1-0.1 0.1-0.2 0.1-0.1 0-2.1 0z"/>
		<path class="s0" d="m275 146q0 6.9 0 7.5 0 0.1 0 0.3 0.1 0.2 0.1 0.4 0.1 0.1 0.2 0.3 0.1 0.1 0.2 0.2l0.1 0.1q0.1 0.1 0.2 0.2 0 0.1-0.1 0.3 0 0.1-0.1 0.2-0.1 0-0.2 0-1 0.1-2 0.1-0.9 0-1.9-0.1-0.1 0-0.2 0-0.1-0.1-0.1-0.2-0.1-0.2-0.1-0.3 0.1-0.1 0.2-0.2l0.1-0.1q0.1-0.1 0.2-0.2 0.1-0.2 0.2-0.3 0-0.2 0.1-0.4 0-0.2 0-0.3 0-0.6 0-7.5 0-6.9 0-7.4 0-0.2-0.1-0.3 0-0.2-0.1-0.4 0-0.1-0.1-0.3-0.1-0.1-0.3-0.2l-0.1-0.1q0-0.1-0.1-0.2 0-0.2 0-0.3 0.1-0.1 0.2-0.2 0.1-0.1 0.2-0.1 1 0 1.9 0 1 0 2 0 0.1 0 0.2 0.1 0.1 0.1 0.1 0.2 0.1 0.1 0 0.3 0 0.1-0.1 0.2h-0.1q-0.1 0.2-0.2 0.3-0.1 0.2-0.2 0.3 0 0.2-0.1 0.4 0 0.1 0 0.3 0 0.5 0 7.4z"/>
		<path class="s0" d="m333.8 136.6q5.9 0 6.6 0 0.1 0 0.2 0.1 0.1 0 0.2 0.1 0.1 0.1 0.2 0.2 0.1 0.1 0.1 0.3 0.2 1.3-0.1 2.7-0.1 0.1-0.1 0.2-0.1 0.1-0.2 0.1-0.2 0-0.3 0-0.1-0.1-0.1-0.2-1.3-2.3-4.3-1.6-0.1 0-0.2 0.1-0.1 0-0.2 0.1-0.1 0.1-0.1 0.3-0.1 0.1-0.1 0.2v14.4q0 0.1 0 0.3 0.1 0.1 0.1 0.2 0 0.1 0.1 0.2 0.1 0.1 0.1 0.2l0.4 0.4q0.1 0.1 0.1 0.2 0 0.2 0 0.3 0 0.1-0.1 0.1-0.1 0.1-0.2 0.1-0.1 0-2.1 0-1.9 0-2 0-0.2 0-0.2-0.1-0.1 0-0.2-0.1 0-0.1 0-0.3 0-0.1 0.1-0.2l0.4-0.4q0.1-0.1 0.1-0.2 0.1-0.1 0.1-0.2 0.1-0.1 0.1-0.2 0-0.2 0-0.3l0.1-14.4q0-0.1-0.1-0.2 0-0.2-0.1-0.3-0.1-0.1-0.2-0.1-0.1-0.1-0.2-0.1-3.1-0.7-4.3 1.6-0.1 0.1-0.2 0.1-0.1 0.1-0.2 0.1-0.1 0-0.2-0.1-0.1-0.1-0.1-0.2-0.3-1.4-0.1-2.8 0-0.1 0.1-0.2 0-0.1 0.1-0.2 0.1-0.1 0.3-0.2 0.1 0 0.2 0 0.6 0 6.5 0z"/>
		<path class="s0" d="m345.1 154.9l0.3-0.3q0.2-0.1 0.2-0.2 0.1-0.2 0.2-0.3 0-0.1 0.1-0.3 0-0.1 0-0.2v-15.1q0-0.1 0-0.1 0-0.1-0.1-0.2 0-0.1 0-0.2-0.1-0.1-0.1-0.1l-0.7-0.7q0-0.1 0-0.2-0.1-0.1 0-0.2 0-0.1 0.1-0.2 0.1 0 0.2 0c5.9-0.1 13.2-0.9 13.3 5.8q0 3.9-3.7 5.3-0.2 0.1-0.3 0.2-0.1 0.2-0.1 0.4-0.1 0.1 0 0.3 0 0.2 0.1 0.3l5.4 6.2q0.1 0 0.1 0.1 0 0.1 0 0.2-0.1 0.1-0.2 0.1 0 0.1-0.1 0.1h-2.8q-0.2 0-0.3-0.1-0.2 0-0.3-0.1-0.1-0.1-0.2-0.2-0.2-0.1-0.2-0.2l-4.3-6.2q-0.1-0.1-0.1-0.2-0.1 0-0.2-0.1-0.1 0-0.2-0.1-0.1 0-0.2 0h-1.6q-0.1 0-0.2 0.1-0.1 0-0.2 0.1-0.1 0.1-0.2 0.2 0 0.1 0 0.2v4.6q0 0.1 0 0.2 0 0.2 0.1 0.3 0 0.1 0.1 0.2 0 0.1 0.1 0.2l0.5 0.5q0.1 0.1 0.1 0.2 0 0.1-0.1 0.2 0 0.1-0.1 0.1-0.1 0.1-0.2 0.1h-4q-0.1 0-0.2-0.1-0.1-0.1-0.1-0.2-0.1-0.1 0-0.2 0-0.1 0.1-0.2zm3.9-16.1v7.4q0 0.1 0.1 0.2 0 0.1 0.1 0.1 0.1 0.1 0.2 0.2 0.1 0 0.2 0h2q0.8 0 1.5-0.3 0.7-0.3 1.3-0.9 0.5-0.6 0.8-1.3 0.3-0.8 0.3-1.6v-0.4q0-0.8-0.3-1.5-0.3-0.7-0.9-1.3-0.5-0.6-1.2-0.9-0.8-0.3-1.5-0.3h-2q-0.2 0-0.3 0.1-0.1 0-0.1 0.1-0.1 0.1-0.2 0.2 0 0.1 0 0.2z"/>
		<path class="s0" d="m407.6 154.9l0.5-0.4q0.1-0.1 0.2-0.1 0-0.1 0.1-0.2 0-0.1 0-0.2 0.1-0.1 0.1-0.2v-15.3q0-0.2-0.1-0.3 0-0.1-0.1-0.2 0-0.1-0.1-0.2-0.1-0.1-0.2-0.1-0.4-0.2-0.5-0.4-0.1-0.1-0.1-0.2 0-0.2 0.1-0.3 0-0.1 0.2-0.2 0.1 0 0.2 0l4.2-0.1q0.2 0 0.3 0.1 0.1 0.1 0.1 0.2 0 0.1 0 0.2 0 0.1-0.1 0.2l-0.6 0.5q-0.1 0.1-0.2 0.2 0 0.1-0.1 0.2 0 0.1 0 0.2-0.1 0.1-0.1 0.2v6.3q0 0.1 0.1 0.2 0.1 0.1 0.2 0.1 0 0 0.1 0 0.1 0 0.2-0.1l5.8-6.7q0.1-0.1 0.2-0.2 0-0.1 0-0.2 0-0.1-0.1-0.2 0-0.1-0.1-0.2-0.1-0.1-0.2-0.2 0-0.1 0-0.2 0-0.1 0-0.2 0.1-0.1 0.2-0.2 0.1-0.1 0.2-0.1l4.3 0.1q0.1 0 0.1 0 0.1 0 0.1 0 0 0 0.1 0.1 0 0 0 0 0.2 0.7-1 0.8-0.4 0-0.7 0.3-3.3 3.4-6.7 7.4-0.1 0.1-0.1 0.2-0.1 0.2-0.1 0.3 0 0.1 0.1 0.2 0 0.1 0.1 0.2l8 9.2q0.1 0 0.1 0 0 0.1 0 0.1-0.1 0.1-0.1 0.1 0 0-0.1 0h-2.9q-0.1 0-0.2 0-0.1 0-0.2-0.1 0 0-0.1-0.1-0.1 0-0.1-0.1l-6.6-8.1q0-0.1-0.1-0.2-0.1 0-0.2 0-0.1 0.1-0.2 0.2-0.1 0-0.1 0.1v6.4q0 0.1 0.1 0.2 0 0.1 0 0.2 0.1 0.1 0.1 0.2 0.1 0.1 0.1 0.1l0.6 0.5q0.1 0.1 0.1 0.2 0.1 0.1 0 0.2 0 0.1-0.1 0.2-0.1 0.1-0.2 0.1h-4.2q-0.1 0-0.2-0.1-0.1-0.1-0.2-0.2 0-0.1 0-0.2 0.1-0.1 0.1-0.2z"/>
		<path class="s0" d="m438.2 146q0 1.1-0.1 1.1 0 0.1 0 0.2-0.1 0.1-0.1 0.2-0.1 0-0.2 0-0.1 0-0.2 0-2.2-0.9-6.4-0.6-0.1 0-0.2 0.1-0.1 0-0.2 0.1-0.1 0.1-0.2 0.3 0 0.1 0 0.2v5.6q0 0.1 0 0.2 0.1 0.1 0.1 0.2 0.1 0.1 0.2 0.1 0.1 0.1 0.3 0.1h5.8q0.1 0 0.3-0.1 0.2 0 0.3-0.1 0.2-0.1 0.3-0.2 0.1-0.1 0.2-0.2 0.8-1 1.1-1.2 0.1 0 0.2 0 0.2 0 0.3 0.1 0.1 0 0.1 0.1 0.1 0.1 0.1 0.2v2.5q0 0.1-0.1 0.2 0 0.2-0.1 0.3-0.1 0.1-0.2 0.1-0.2 0.1-0.3 0.1h-11.8q-0.2 0-0.3-0.1-0.1-0.1-0.2-0.2 0-0.2 0-0.3 0-0.1 0.1-0.2 0.1-0.1 0.3-0.2 0.1-0.1 0.1-0.1 0.1-0.1 0.2-0.2 0-0.1 0-0.2 0.1-0.1 0.1-0.2 0-0.3 0-7.8 0-7.6 0-7.9 0-0.1-0.1-0.2 0-0.1-0.1-0.2 0-0.1-0.1-0.2-0.1 0-0.1-0.1-0.2-0.1-0.3-0.2-0.1-0.1-0.1-0.2 0-0.1 0-0.3 0.1-0.1 0.2-0.2 0.1-0.1 0.2-0.1h11.9q0.1 0 0.2 0.1 0.2 0 0.3 0.1 0.1 0.1 0.1 0.3 0.1 0.1 0.1 0.2v2.4q0 0.2-0.1 0.3 0 0.1-0.1 0.1-0.1 0.1-0.3 0.1-0.1 0-0.2 0-0.3-0.2-1.1-1.2-0.1-0.1-0.2-0.2-0.1-0.1-0.3-0.2-0.1-0.1-0.3-0.1-0.2-0.1-0.3-0.1h-5.9q-0.1 0-0.2 0.1-0.1 0-0.2 0.1-0.1 0.1-0.1 0.2 0 0.1 0 0.2v5.6q0 0.1 0 0.2 0.1 0.2 0.2 0.3 0.1 0.1 0.2 0.1 0.1 0.1 0.2 0.1 4.2 0.3 6.4-0.6 0.1 0 0.2 0 0.1 0 0.2 0 0 0.1 0.1 0.2 0 0.1 0 0.2 0 0 0.1 1z"/>
		<path class="s0" d="m444.9 155.6q-0.2 0-0.3-0.1-0.1 0-0.1-0.2-0.1-0.1 0-0.2 0-0.1 0.1-0.2l0.4-0.3q0.1-0.1 0.1-0.2 0.1-0.1 0.2-0.3 0-0.1 0.1-0.2 0-0.2 0-0.3v-15q0-0.1 0-0.2 0-0.1-0.1-0.2 0-0.1 0-0.2-0.1 0-0.1-0.1l-0.6-0.7q-0.1-0.1-0.1-0.2 0-0.1 0-0.2 0-0.1 0.1-0.2 0.1 0 0.2 0c5.9-0.1 13.2-0.8 13.3 5.8q0 3.9-3.7 5.4-0.2 0-0.3 0.2-0.1 0.1-0.1 0.3-0.1 0.2 0 0.3 0 0.2 0.1 0.3l5.4 6.2q0.1 0 0.1 0.1 0 0.1 0 0.2-0.1 0.1-0.2 0.1 0 0.1-0.1 0.1h-2.8q-0.2 0-0.3-0.1-0.2 0-0.3-0.1-0.1 0-0.2-0.1-0.2-0.1-0.2-0.3l-4.3-6.2q-0.1-0.1-0.1-0.2-0.1 0-0.2-0.1-0.1 0-0.2 0-0.1-0.1-0.2 0l-1.6-0.1q-0.1 0-0.2 0.1-0.1 0-0.2 0.1-0.1 0.1-0.2 0.2 0 0.1 0 0.2v4.6q0 0.2 0 0.3 0 0.1 0.1 0.2 0 0.1 0.1 0.2 0 0.1 0.1 0.2l0.5 0.5q0.1 0.1 0.1 0.2 0 0.1-0.1 0.2 0 0.1-0.1 0.1-0.1 0.1-0.2 0.1zm3.6-16.7v7.2q0 0.1 0.1 0.2 0 0.1 0.1 0.2 0.1 0.1 0.2 0.2 0.1 0 0.2 0h2q0.7 0 1.5-0.3 0.7-0.3 1.2-0.9 0.6-0.5 0.9-1.3 0.3-0.7 0.3-1.5v-0.5q0-0.8-0.3-1.5-0.3-0.8-0.9-1.3-0.5-0.6-1.3-0.9-0.7-0.3-1.5-0.3h-1.9q-0.1 0-0.2 0.1-0.2 0-0.2 0.1-0.1 0.1-0.2 0.2 0 0.1 0 0.3z"/>
		<path class="s0" d="m474.5 136.5q1 0 1.9 0 0.1 0 0.3 0.1 0.1 0.1 0.1 0.2 0.1 0.1 0 0.2 0 0.2-0.1 0.3h-0.1q-0.1 0.2-0.2 0.3-0.1 0.2-0.2 0.3-0.1 0.2-0.1 0.3 0 0.2 0 0.4 0 0.5 0 7.4 0 7 0 7.5 0 0.2 0 0.3 0.1 0.2 0.1 0.4 0.1 0.1 0.2 0.3 0.1 0.1 0.2 0.2l0.1 0.1q0.1 0.1 0.1 0.2 0.1 0.2 0 0.3 0 0.1-0.1 0.2-0.1 0.1-0.3 0.1-0.9 0-1.9 0-1 0-1.9 0-0.1 0-0.2-0.1-0.1-0.1-0.2-0.2 0-0.1 0-0.3 0-0.1 0.1-0.2l0.1-0.1q0.1-0.1 0.2-0.2 0.1-0.2 0.2-0.3 0.1-0.2 0.1-0.4 0.1-0.1 0-0.3 0.1-0.5 0.1-7.4 0-7-0.1-7.5 0-0.2 0-0.4 0-0.1-0.1-0.3-0.1-0.1-0.2-0.3-0.1-0.1-0.2-0.3h-0.1q-0.1-0.1-0.1-0.3 0-0.1 0-0.2 0.1-0.1 0.2-0.2 0.1-0.1 0.2-0.1 0.9 0 1.9 0z"/>
		<path class="s0" d="m499.9 146c0 4.8-2.1 8.1-7.1 9.3q-1.3 0.4-9.6 0.3-0.1 0-0.2-0.1-0.1-0.1-0.2-0.2 0-0.1 0-0.3 0-0.1 0.1-0.2l0.2-0.1q0.1-0.1 0.2-0.2 0.1-0.1 0.2-0.2 0.1-0.2 0.1-0.3 0-0.2 0-0.3 0.1-1 0-7.6 0-6.7 0-7.7 0-0.1-0.1-0.2 0-0.2-0.1-0.3 0-0.2-0.1-0.3-0.1-0.1-0.2-0.2l-0.2-0.1q-0.1-0.1-0.2-0.2 0-0.1 0-0.3 0.1-0.1 0.2-0.2 0.1 0 0.2 0 8.3-0.2 9.6 0.1c5 1.1 7.2 4.4 7.2 9.3zm-13.6-7.2v14.6q0 0.1 0.1 0.2 0 0.1 0.1 0.1 0 0.1 0.1 0.1 0.1 0.1 0.2 0.1l3.1-0.1q1.4 0 2.6-0.5 1.3-0.5 2.2-1.5 0.9-1 1.4-2.3 0.5-1.3 0.5-2.7v-1.5q0-1.4-0.5-2.7-0.5-1.3-1.5-2.2-0.9-1-2.2-1.6-1.2-0.5-2.5-0.5h-3.2q-0.1 0-0.2 0.1-0.1 0-0.1 0.1-0.1 0-0.1 0.1 0 0.1 0 0.2z"/>
		<path class="s0" d="m304.5 155l0.5-0.5q0.1-0.1 0.2-0.2 0.1-0.1 0.1-0.2 0.1-0.1 0.1-0.3 0-0.1 0-0.2v-15q0-0.1 0-0.1 0-0.1 0-0.1 0-0.1-0.1-0.1 0-0.1 0-0.1l-0.8-1q-0.1 0-0.1-0.1 0-0.1 0-0.1 0-0.1 0.1-0.1 0-0.1 0.1-0.1 1.3-0.1 2.2 0.2 0.1 0 0.2 0.1 0.1 0 0.2 0.1 0.1 0.1 0.2 0.2 0.1 0 0.2 0.1l11.3 12.6q0 0 0.1 0.1 0.1 0 0.2-0.1 0.1 0 0.1-0.1 0 0 0.1-0.1v-11.3q0-0.1-0.1-0.1 0-0.1 0-0.1 0-0.1 0-0.2-0.1 0-0.1 0l-0.8-0.9q0-0.1-0.1-0.2 0 0 0.1-0.1 0-0.1 0.1-0.1 0-0.1 0.1-0.1h3.7q0.1 0 0.2 0.1 0.1 0.1 0.2 0.2 0 0.1 0 0.2-0.1 0.1-0.2 0.2-0.1 0.1-0.4 0.2-0.1 0.1-0.1 0.2-0.1 0-0.2 0.1-0.1 0.1-0.1 0.3 0 0.1 0 0.2v16.1q0 0.3-0.2 0.6-0.3 0.4-0.6 0.5-0.4 0.1-0.7 0-0.4-0.1-0.6-0.3l-11.3-12.8q0-0.1-0.1-0.1 0 0-0.1 0 0 0-0.1 0.1 0 0 0 0.1v11q0 0.1 0 0.2 0 0.1 0.1 0.2 0 0.1 0.1 0.2 0 0.1 0.1 0.1l0.5 0.7q0.1 0 0.1 0.1 0 0.1 0 0.2-0.1 0.1-0.1 0.1-0.1 0.1-0.2 0.1h-3.9q-0.1 0-0.2-0.1-0.1 0-0.1-0.1-0.1-0.1 0-0.2 0-0.1 0.1-0.2z"/>
		<path class="s0" d="m465.6 155.7c-1.2 0-2.1-0.9-2.1-2 0-1.2 0.9-2.1 2.1-2.1 1.1 0 2 0.9 2 2.1 0 1.1-0.9 2-2 2z"/>
		<path class="s0" d="m153.6 183.9q-1.8-2.7-2.1-3-0.1-0.1-0.2-0.1-0.1-0.1-0.1 0-0.1 0-0.2 0.1 0 0 0 0.1l-0.1 7.2q0 0.1 0 0.2 0 0.1-0.1 0.1 0 0.1-0.1 0.1-0.1 0.1-0.2 0.1h-0.3q-0.1 0-0.2-0.1-0.1 0-0.1-0.1-0.1 0-0.1-0.1 0-0.1 0-0.2v-9.2q0-0.3 0.1-0.4 0.1-0.2 0.3-0.3 0.2-0.1 0.4 0 0.3 0 0.4 0.2 1.2 1.2 3.6 4.8 1.9 2.7 2.1 3 0.1 0.1 0.2 0.1 0.1 0 0.2 0 0.1 0 0.1-0.1 0.1-0.1 0.1-0.2v-7.2q0-0.1 0-0.1 0.1-0.1 0.1-0.2 0.1 0 0.2-0.1 0 0 0.1 0h0.3q0.1 0 0.2 0 0.1 0.1 0.1 0.1 0.1 0.1 0.1 0.2 0.1 0 0.1 0.1l-0.1 9.3q0 0.2-0.1 0.4-0.1 0.2-0.3 0.3-0.2 0-0.4 0-0.2-0.1-0.4-0.2-1.2-1.3-3.6-4.8z"/>
		<path class="s0" d="m182.4 183.6q0 0.9-4.1 0.5-0.2 0-0.4 0-0.2 0.1-0.4 0.2-0.1 0.2-0.2 0.4-0.1 0.2-0.1 0.4v1.9q0 0.1 0 0.3 0.1 0.2 0.2 0.3 0.2 0.1 0.3 0.2 0.2 0.1 0.4 0.1h4q0.1 0 0.1 0 0.1 0 0.1 0.1 0.1 0 0.1 0.1 0.1 0.1 0.1 0.2v0.4q0 0-0.1 0.1 0 0 0 0.1-0.1 0-0.1 0.1-0.1 0-0.2 0l-5.3-0.1q-0.1 0-0.2 0-0.1 0-0.2-0.1-0.1-0.1-0.2-0.2-0.1-0.1-0.1-0.2-0.2-0.7-0.1-4.9 0.1-4.1 0.3-4.8 0-0.1 0.1-0.2 0-0.1 0.1-0.2 0.1-0.1 0.3-0.1 0.1 0 0.2 0l5.3 0.1q0.1 0 0.1 0 0.1 0.1 0.1 0.1 0.1 0.1 0.1 0.1 0 0.1 0 0.1v0.4q0 0.1 0 0.2-0.1 0.1-0.1 0.1-0.1 0.1-0.1 0.1-0.1 0-0.2 0l-3.9-0.1q-0.2 0-0.4 0-0.2 0.1-0.3 0.2-0.1 0.1-0.2 0.3-0.1 0.2-0.1 0.4l-0.1 1.8q0 0.2 0.1 0.4 0.1 0.2 0.3 0.4 0.1 0.1 0.3 0.2 0.2 0.1 0.5 0.1 4.1-0.3 4 0.5z"/>
		<path class="s0" d="m185 188.3v-9.1q0-0.2 0-0.3 0.1-0.2 0.2-0.3 0.1-0.1 0.3-0.2 0.1-0.1 0.3-0.1c2.8-0.5 6.5-0.5 6.9 3q0.2 1.6-2.2 2.9-0.2 0.1-0.3 0.2-0.1 0.2-0.1 0.4-0.1 0.2 0 0.3 0 0.2 0.2 0.4l2.4 2.8q0.1 0.1 0.1 0.2 0 0.1 0 0.2 0 0.1-0.1 0.1-0.1 0.1-0.3 0.1h-0.5q0 0 0 0-0.1 0-0.1 0 0 0 0 0 0 0-0.1-0.1l-3.4-3.9q-0.2-0.2-0.6-0.3-0.3-0.1-0.7 0-0.3 0.1-0.5 0.4-0.3 0.3-0.3 0.7v2.7q0 0.1 0 0.1 0 0.1-0.1 0.2 0 0-0.1 0.1-0.1 0-0.1 0h-0.4q-0.1 0-0.2-0.1-0.1 0-0.2-0.1 0 0-0.1-0.1 0-0.1 0-0.2zm1.1-8.2v2.6q0 0.1 0 0.2 0.1 0.2 0.2 0.3 0.1 0.1 0.2 0.1 0.2 0.1 0.3 0.1l2.4 0.1q0.4 0 0.8-0.2 0.4-0.1 0.7-0.3 0.3-0.3 0.5-0.6 0.1-0.3 0.1-0.7v-0.4q0.1-0.4-0.1-0.7-0.2-0.3-0.4-0.6-0.3-0.3-0.7-0.4-0.4-0.2-0.8-0.2h-2.4q-0.2 0-0.3 0-0.1 0.1-0.2 0.2-0.1 0.1-0.2 0.2-0.1 0.1-0.1 0.3z"/>
		<path class="s0" d="m194.8 185.8l1.9 1.7q0.3 0.2 0.7 0.4 0.4 0.1 0.8 0.1 0.5 0 0.9-0.2 0.3-0.2 0.6-0.5l0.3-0.3q0.2-0.2 0.3-0.5 0.1-0.4 0-0.7 0-0.3-0.2-0.5-0.2-0.3-0.5-0.4-1.3-0.7-2.9-1.1-0.5-0.1-0.9-0.4-0.5-0.3-0.8-0.6-0.3-0.4-0.4-0.9-0.2-0.5-0.2-0.9c0.2-3.7 5.2-3.6 7-0.9q0.1 0.1 0.1 0.3 0 0.2-0.1 0.3-0.1 0.2-0.3 0.2-0.2 0-0.3 0-1-0.4-1.7-1.2-0.3-0.3-0.8-0.5-0.5-0.1-1 0.1-0.5 0.1-0.9 0.5-0.4 0.4-0.5 1-0.3 0.8 0.5 1.4c1.9 1.4 3.7 0.4 5.1 3.1q0.1 0.1 0.1 0.3 0 0.1 0 0.3 0 0.1 0 0.3 0 0.1-0.1 0.3c-1.5 3.7-5.9 3.5-7.3-0.2q0-0.2 0-0.3 0-0.1 0.2-0.2 0.1-0.1 0.2-0.1 0.1 0 0.2 0.1z"/>
		<path class="s0" d="m230 178.2q0.6 0 0.8 0.4 1.6 3.4 4.2 9.6 0 0.1 0 0.2 0 0.1 0 0.2 0 0.1-0.1 0.1-0.1 0.1-0.1 0.1l-0.5 0.2q0 0-0.1 0-0.1 0-0.1 0-0.1-0.1-0.1-0.1-0.1-0.1-0.1-0.1l-0.7-2q-0.1-0.1-0.2-0.3-0.1-0.1-0.3-0.2-0.2-0.1-0.3-0.1-0.2-0.1-0.4 0-0.7 0.1-2 0.1-1.3 0-2-0.1-0.2-0.1-0.4-0.1-0.1 0.1-0.3 0.2-0.2 0.1-0.3 0.2-0.1 0.1-0.2 0.3l-0.7 2q0 0-0.1 0.1 0 0-0.1 0.1 0 0-0.1 0-0.1 0-0.1 0l-0.5-0.2q0 0-0.1-0.1-0.1-0.1-0.1-0.1 0-0.1 0-0.2 0-0.1 0-0.2 2.6-6.2 4.2-9.6 0.2-0.4 0.8-0.4zm-0.1 7.2q1.8 0 1.8 0 0.2 0 0.2-0.1 0.1 0 0.2-0.1 0.1-0.1 0.1-0.2 0-0.2-0.1-0.3l-1.9-4.8q0 0 0 0 0 0 0 0 0 0-0.1 0 0 0 0 0 0 0-0.1 0 0 0 0 0 0 0-0.1 0 0 0 0 0 0 0 0 0 0 0 0 0l-2.1 4.8q-0.1 0.1 0 0.2 0 0.1 0 0.2 0.1 0.1 0.2 0.1 0 0.1 0.2 0.1 0 0 1.7 0.1z"/>
		<path class="s0" d="m238.6 185q-0.2 0.1-0.3 0.1-0.1 0.1-0.2 0.2-0.1 0.1-0.1 0.2 0 0.1 0 0.3v2.6q0 0-0.1 0.1 0 0.1 0 0.1-0.1 0.1-0.2 0.1 0 0-0.1 0h-0.5q0 0-0.1 0-0.1-0.1-0.2-0.1 0-0.1-0.1-0.2 0 0 0-0.1v-9.3q0-0.2 0.1-0.3 0-0.1 0.1-0.2 0.1-0.2 0.2-0.2 0.1-0.1 0.3-0.1c2.4-0.2 5.8-0.4 6.7 2.5q0.5 1.8-1.5 3.5 0 0-0.2 0.1-0.1 0.1-0.2 0.1-0.1 0-0.2 0.1-0.1 0-0.2 0zm-0.7-5l0.1 3.1q0 0.1 0 0.2 0.1 0.1 0.2 0.2 0 0.1 0.2 0.2 0.1 0 0.2 0l1.4-0.1q0.6 0 1.1-0.1 0.6-0.2 1-0.5 0.4-0.3 0.6-0.7 0.3-0.3 0.2-0.7v-0.3q0-0.4-0.2-0.7-0.2-0.4-0.7-0.7-0.4-0.3-1-0.4-0.5-0.1-1.1-0.1h-1.4q-0.1 0-0.3 0.1-0.1 0-0.1 0.1-0.1 0.1-0.2 0.2 0 0.1 0 0.2z"/>
		<path class="s0" d="m247.3 185.8v2.6q0 0-0.1 0.1 0 0.1 0 0.1-0.1 0.1-0.1 0.1-0.1 0-0.2 0h-0.4q-0.1 0-0.2 0-0.1-0.1-0.1-0.1-0.1-0.1-0.1-0.2-0.1 0-0.1-0.1v-9.3q0-0.2 0.1-0.3 0-0.1 0.1-0.2 0.1-0.1 0.2-0.2 0.2-0.1 0.3-0.1c2.4-0.2 5.8-0.4 6.7 2.6q0.6 1.8-1.4 3.4-0.1 0-0.2 0.1-0.1 0.1-0.3 0.1-0.1 0.1-0.2 0.1-0.1 0-0.2 0l-3.2 0.6q-0.2 0-0.3 0-0.1 0.1-0.2 0.2 0 0.1-0.1 0.2 0 0.1 0 0.3zm-0.1-5.5l0.1 2.6q0 0.2 0 0.3 0.1 0.2 0.2 0.3 0.1 0.1 0.3 0.1 0.1 0.1 0.3 0.1l1.4-0.1q0.6 0 1.1-0.2 0.5-0.2 0.9-0.4 0.4-0.3 0.6-0.7 0.2-0.4 0.2-0.8v-0.2q-0.1-0.4-0.3-0.8-0.2-0.3-0.6-0.6-0.4-0.3-1-0.4-0.5-0.1-1.1-0.1l-1.4 0.1q-0.2 0-0.3 0-0.1 0.1-0.2 0.2-0.1 0.1-0.2 0.3 0 0.1 0 0.3z"/>
		<path class="s0" d="m266.6 183.6q0-3.2 3.1-4.9 3.9-2.1 7.1 2.2 0.1 0.1 0.1 0.2 0 0 0 0.1 0 0.1 0 0.1 0 0.1-0.1 0.2l-0.3 0.3q-0.1 0.1-0.2 0.2-0.1 0-0.2 0-0.1 0-0.2-0.1-0.1 0-0.1-0.1-2.6-4.2-6.3-1.5-1.5 1.1-1.5 3.3 0 2.3 1.5 3.3 3.7 2.7 6.3-1.4 0.1-0.1 0.1-0.2 0.1 0 0.2 0 0.1 0 0.2 0 0.1 0.1 0.2 0.1l0.3 0.4q0.1 0.1 0.1 0.1 0 0.1 0 0.2 0 0 0 0.1 0 0.1-0.1 0.1-3.2 4.3-7.1 2.2-3.1-1.6-3.1-4.9z"/>
		<path class="s0" d="m292.5 189q-1 0-0.7-8.4 0-0.2-0.1-0.4 0-0.2-0.2-0.3-0.1-0.2-0.2-0.3-0.2-0.1-0.4-0.1-0.7-0.1-1.7 0.1-0.1 0-0.3 0-0.1-0.1-0.2-0.1-0.1-0.1-0.2-0.2-0.1-0.1-0.1-0.2-0.2-0.4 0.2-0.7 0-0.1 0-0.1 0.1 0 0.1 0 0-0.1 0.1-0.1 0 0 0 0 0.1 0 3.7 0 3.5 0 3.6 0 0 0 0 0 0.1 0 0.1 0 0 0.1 0.1 0.1 0 0 0 0 0.4 0.4 0.3 0.7-0.1 0.2-0.2 0.3 0 0.1-0.2 0.1-0.1 0.1-0.2 0.1-0.1 0-0.2 0-1.1-0.2-1.8 0-0.2 0-0.3 0.1-0.2 0.1-0.3 0.3-0.1 0.1-0.2 0.3 0 0.2 0 0.4 0.3 8.4-0.7 8.4z"/>
		<path class="s0" d="m312.7 183.6q0 1.1-0.5 2.1-0.4 1-1.1 1.8-0.8 0.8-1.8 1.2-1 0.4-2.1 0.4-1.1 0-2.1-0.4-1-0.4-1.8-1.2-0.8-0.8-1.2-1.8-0.4-1-0.4-2.1 0-1.1 0.4-2.1 0.4-1 1.2-1.8 0.8-0.7 1.8-1.2 1-0.4 2.1-0.4 1.1 0 2.1 0.4 1 0.5 1.8 1.2 0.7 0.8 1.1 1.8 0.5 1 0.5 2.1zm-1.3 0q0-0.8-0.3-1.6-0.3-0.8-0.9-1.4-0.6-0.6-1.4-0.9-0.8-0.3-1.6-0.3-0.9 0-1.6 0.3-0.8 0.3-1.4 0.9-0.6 0.6-0.9 1.4-0.4 0.8-0.4 1.6 0 0.9 0.4 1.6 0.3 0.8 0.9 1.4 0.6 0.6 1.4 0.9 0.7 0.4 1.6 0.4 0.8 0 1.6-0.4 0.8-0.3 1.4-0.9 0.6-0.6 0.9-1.4 0.3-0.7 0.3-1.6z"/>
		<path class="s0" d="m319.7 183.2q1.9 2.8 2.2 3.2 0 0 0.1 0.1 0.1 0 0.2 0 0.1-0.1 0.1-0.1 0.1-0.1 0.1-0.2v-7.4q0-0.1 0-0.2 0.1-0.1 0.1-0.1 0.1-0.1 0.2-0.1 0-0.1 0.1-0.1h0.4q0.1 0 0.1 0.1 0.1 0 0.2 0.1 0 0 0.1 0.1 0 0.1 0 0.2v9.5q0 0.2-0.1 0.4-0.1 0.2-0.3 0.3-0.2 0.1-0.5 0-0.2 0-0.3-0.2-1.3-1.3-3.8-4.9-1.9-2.7-2.2-3.1 0-0.1-0.1-0.1-0.1 0-0.2 0-0.1 0-0.1 0.1-0.1 0.1-0.1 0.2v7.4q0 0.1 0 0.2-0.1 0-0.1 0.1-0.1 0.1-0.2 0.1 0 0-0.1 0h-0.4q-0.1 0-0.1 0-0.1 0-0.2-0.1 0-0.1-0.1-0.1 0-0.1 0-0.2v-9.6q0-0.2 0.1-0.4 0.1-0.1 0.3-0.2 0.3-0.1 0.5-0.1 0.2 0.1 0.3 0.2 1.3 1.4 3.8 4.9z"/>
		<path class="s0" d="m333.1 178.2q3.5-0.1 3.6 0 0 0 0.1 0 0 0 0 0 0.1 0 0.1 0 0 0.1 0.1 0.1 0.3 0.3 0.2 0.7 0 0.1-0.1 0.2-0.1 0.1-0.2 0.2-0.1 0.1-0.3 0.1-0.1 0-0.2 0-1-0.2-1.7-0.1-0.2 0.1-0.4 0.2-0.1 0.1-0.3 0.2-0.1 0.2-0.1 0.3-0.1 0.2-0.1 0.4 0.4 8.4-0.6 8.4-1 0-0.7-8.4 0-0.1-0.1-0.3-0.1-0.2-0.2-0.4-0.1-0.1-0.3-0.2-0.1-0.1-0.3-0.1-0.7-0.1-1.7 0.1-0.2 0-0.3 0-0.1-0.1-0.2-0.1-0.1-0.1-0.2-0.2-0.1-0.1-0.2-0.2-0.1-0.4 0.3-0.7 0-0.1 0-0.1 0 0 0.1 0 0 0 0-0.1 0.1 0 0.1 0 0.1 0 3.6 0z"/>
		<path class="s0" d="m339.9 188.8h-0.3q-0.1 0-0.2 0-0.1 0-0.2-0.1-0.1-0.1-0.1-0.2-0.1-0.1-0.1-0.2l0.1-9.1q0-0.2 0-0.3 0.1-0.2 0.2-0.3 0.1-0.1 0.3-0.2 0.1-0.1 0.3-0.1c2.8-0.5 6.5-0.4 6.9 3q0.2 1.6-2.2 3-0.2 0-0.3 0.2-0.1 0.2-0.1 0.3-0.1 0.2 0 0.4 0 0.2 0.2 0.3l2.4 2.8q0.1 0.1 0.1 0.2 0.1 0.2 0 0.3 0 0.1-0.1 0.1-0.1 0.1-0.2 0.1h-0.6q0 0 0 0-0.1 0-0.1 0 0 0 0-0.1 0 0-0.1 0l-3.4-3.9q-0.2-0.3-0.6-0.4-0.4-0.1-0.7 0.1-0.4 0.1-0.6 0.4-0.2 0.3-0.2 0.7v2.7q0 0 0 0.1 0 0.1-0.1 0.1-0.1 0.1-0.1 0.1-0.1 0-0.2 0zm0.4-8.6v2.6q0 0.2 0.1 0.3 0 0.1 0.1 0.2 0.1 0.1 0.3 0.2 0.1 0.1 0.3 0.1l1.5-0.1q0.5 0 1.1-0.1 0.5-0.2 0.9-0.5 0.4-0.3 0.6-0.6 0.2-0.4 0.2-0.8v-0.2q0-0.4-0.2-0.7-0.2-0.4-0.6-0.7-0.5-0.2-1-0.4-0.5-0.1-1.1-0.1h-1.5q-0.1 0-0.3 0.1-0.1 0-0.2 0.1-0.1 0.1-0.2 0.3 0 0.1 0 0.3z"/>
		<path class="s0" d="m352.8 186.3q-1.3-0.1-2-0.2-0.1 0-0.3 0-0.2 0-0.4 0.1-0.1 0.1-0.3 0.2-0.1 0.2-0.1 0.4l-0.8 1.9q0 0.1-0.1 0.1 0 0.1-0.1 0.1 0 0-0.1 0 0 0-0.1 0l-0.4-0.2q-0.1 0-0.2-0.1 0 0-0.1-0.1 0-0.1 0-0.2 0-0.1 0-0.1 2.6-6.2 4.3-9.6 0.1-0.4 0.8-0.4 0.6 0 0.7 0.4 1.6 3.4 4.2 9.6 0 0.1 0 0.2 0 0 0 0.1 0 0.1-0.1 0.2-0.1 0-0.2 0.1l-0.4 0.1q0 0-0.1 0-0.1 0-0.1 0-0.1 0-0.1-0.1-0.1 0-0.1-0.1l-0.7-1.9q-0.1-0.2-0.2-0.3-0.1-0.2-0.3-0.3-0.2-0.1-0.3-0.1-0.2 0-0.4 0-0.7 0.2-2 0.2zm0-1q1.5 0 1.6 0 0.1 0 0.2-0.1 0.1-0.1 0.2-0.2 0.1-0.1 0.1-0.2 0-0.1 0-0.3c-0.1-0.7-0.7-1.7-1.1-2.9q-0.3-1.1-1-1.1-0.7 0-1 1c-0.4 1.3-1.1 2.3-1.2 3q0 0.1 0 0.3 0 0.1 0.1 0.2 0.1 0.1 0.2 0.2 0.1 0.1 0.2 0.1 0.1 0 1.7 0z"/>
		<path class="s0" d="m360.1 183.7q0.1 2.2 1.6 3.3 3.7 2.6 6.3-1.5 0-0.1 0.1-0.2 0.1 0 0.2 0 0.1-0.1 0.2 0 0.1 0 0.2 0.1l0.3 0.4q0 0 0.1 0.1 0 0.1 0 0.1 0 0.1 0 0.2 0 0-0.1 0.1-3.2 4.3-7.1 2.3-3.1-1.6-3.1-4.9-0.1-3.3 3-5 3.9-2.1 7.2 2.2 0 0 0 0.1 0.1 0.1 0.1 0.1 0 0.1-0.1 0.2 0 0.1 0 0.1l-0.4 0.4q0 0.1-0.1 0.1-0.1 0-0.2 0-0.1 0-0.2 0-0.1-0.1-0.2-0.2-2.6-4.1-6.3-1.4-1.5 1.1-1.5 3.4z"/>
		<path class="s0" d="m373.7 183.5q0 0.2 0 0.2 3.2 3.1 4.5 4.6 0.1 0.1 0.1 0.3 0 0.2-0.1 0.3-0.2 0.1-0.3 0.1-0.2 0.1-0.3 0-2.4-1.7-4.4-4.3-0.1-0.1-0.2-0.2-0.2 0-0.3 0-0.1 0.1-0.2 0.2-0.1 0.1-0.1 0.3v3.3q0 0.2-0.1 0.3 0 0.1-0.1 0.1-0.1 0.1-0.2 0.1-0.1 0.1-0.2 0.1-0.5-0.1-0.6-0.6 0-0.2 0-4.8 0-4.6 0-4.8 0-0.5 0.5-0.5 0.1 0 0.3 0 0.1 0 0.1 0.1 0.1 0.1 0.2 0.2 0 0.1 0 0.2v3.3q0 0.2 0.1 0.3 0.1 0.1 0.3 0.2 0.1 0 0.3 0 0.1-0.1 0.2-0.2 2-2.6 4.3-4.3 0.1-0.1 0.3-0.1 0.2 0 0.3 0.1 0.1 0.2 0.1 0.3 0 0.2-0.1 0.4-1.2 1.5-4.4 4.6 0 0 0 0.2z"/>
		<path class="s0" d="m400.7 184.8q-0.1 0-0.2 0 0 0-0.1-0.1 0 0-0.1-0.1 0-0.1 0-0.2v-0.4q0-0.1 0-0.1 0-0.1 0.1-0.1 0-0.1 0.1-0.1 0.1 0 0.1 0h4.2q0.3 0 0.5 0.1 0.2 0.1 0.3 0.2 0.2 0.2 0.3 0.5 0 0.2 0 0.4c-1 4.9-6.9 5.6-9.7 1.8q-0.1-0.1-0.2-0.2 0-0.1-0.1-0.3-0.1-0.1-0.1-0.2-0.1-0.1-0.1-0.3c-2-6.4 5.6-10.6 9.6-5.2q0.2 0.2 0.1 0.4 0 0.2-0.2 0.4-0.1 0.1-0.3 0.1-0.3 0-0.4-0.1l-1.5-1.3q-0.2-0.1-0.4-0.3-0.2-0.1-0.4-0.1-0.2-0.1-0.4-0.2-0.2 0-0.4 0-4.6-0.3-4.7 4.3c-0.1 4.6 6 6 7.6 1.6q0 0 0-0.1 0-0.1-0.1-0.2 0-0.1-0.1-0.1-0.1-0.1-0.2-0.1z"/>
		<path class="s0" d="m411.5 185.9l1.9 1.6q0.3 0.3 0.7 0.4 0.4 0.1 0.9 0.1 0.4 0 0.8-0.2 0.4-0.2 0.7-0.5l0.2-0.3q0.2-0.3 0.3-0.6 0.1-0.3 0-0.6 0-0.3-0.2-0.6-0.2-0.2-0.5-0.3-1.3-0.7-2.9-1.1-0.5-0.1-1-0.4-0.4-0.2-0.7-0.6-0.3-0.4-0.5-0.9-0.1-0.4-0.1-0.9c0.1-3.7 5.1-3.7 7-0.9q0.1 0.1 0.1 0.3-0.1 0.2-0.2 0.3-0.1 0.1-0.2 0.2-0.2 0-0.4-0.1-1-0.4-1.6-1.1-0.4-0.4-0.9-0.5-0.5-0.1-1 0.1-0.5 0.1-0.9 0.5-0.4 0.4-0.5 1-0.2 0.8 0.5 1.4c2 1.4 3.8 0.3 5.2 3.1q0.1 0.1 0.1 0.3 0 0.1 0 0.3 0 0.1 0 0.3 0 0.1-0.1 0.2c-1.5 3.8-5.9 3.6-7.3-0.1q-0.1-0.1 0-0.3 0-0.1 0.1-0.2 0.1 0 0.3 0 0.1 0 0.2 0.1z"/>
		<path class="s0" d="m430.6 183.6q0 1.1-0.4 2.1-0.5 1-1.2 1.8-0.8 0.8-1.8 1.2-1 0.4-2.1 0.4-1.1 0-2.1-0.4-1-0.4-1.8-1.2-0.8-0.8-1.2-1.8-0.4-1-0.4-2.1 0-1.1 0.4-2.1 0.4-1 1.2-1.8 0.8-0.8 1.8-1.2 1-0.4 2.1-0.4 1.1 0 2.1 0.4 1 0.4 1.8 1.2 0.7 0.8 1.2 1.8 0.4 1 0.4 2.1zm-5.6-4.3q-0.8 0-1.5 0.3-0.8 0.4-1.4 1-0.5 0.6-0.8 1.4-0.3 0.8-0.3 1.7 0 0.8 0.3 1.6 0.3 0.8 0.9 1.4 0.6 0.6 1.4 1 0.7 0.3 1.5 0.3 0.9 0 1.6-0.4 0.8-0.3 1.3-0.9 0.6-0.7 0.9-1.5 0.3-0.8 0.3-1.6 0-0.9-0.3-1.7-0.4-0.8-0.9-1.4-0.6-0.6-1.4-0.9-0.7-0.3-1.6-0.3z"/>
		<path class="s0" d="m454.5 188.8q-1.1 0-0.7-8.3 0-0.2-0.1-0.4 0-0.2-0.2-0.3-0.1-0.2-0.2-0.3-0.2-0.1-0.4-0.1-0.7-0.1-1.7 0-0.1 0.1-0.2 0-0.2 0-0.3 0-0.1-0.1-0.2-0.2-0.1-0.1-0.1-0.2-0.1-0.4 0.2-0.7 0-0.1 0.1-0.1 0 0 0 0 0.1 0 0.1 0 0-0.1 0.1-0.1 0 0 3.6 0 3.5 0 3.5 0 0.1 0 0.1 0.1 0 0 0.1 0 0 0 0 0 0.1 0 0.1 0.1 0.4 0.3 0.2 0.7 0 0.1-0.1 0.2-0.1 0.1-0.2 0.2-0.1 0-0.2 0-0.2 0.1-0.3 0-1-0.1-1.7 0-0.2 0-0.4 0.1-0.1 0.1-0.2 0.3-0.2 0.1-0.2 0.3-0.1 0.2-0.1 0.4 0.4 8.3-0.6 8.3z"/>
		<path class="s0" d="m474.5 183.6q0 1.1-0.4 2.1-0.5 1-1.2 1.8-0.8 0.8-1.8 1.2-1 0.4-2.1 0.4-1.1 0-2.1-0.4-1-0.4-1.8-1.2-0.7-0.8-1.2-1.8-0.4-1-0.4-2.1 0-1.1 0.4-2.1 0.5-1 1.2-1.8 0.8-0.7 1.8-1.1 1-0.5 2.1-0.5 1.1 0 2.1 0.5 1 0.4 1.8 1.1 0.7 0.8 1.2 1.8 0.4 1 0.4 2.1zm-5.8-4.3q-0.8 0-1.6 0.4-0.7 0.4-1.3 1.1-0.5 0.6-0.7 1.4-0.3 0.9-0.2 1.7 0 0.9 0.4 1.7 0.4 0.7 1 1.3 0.6 0.6 1.4 0.9 0.8 0.2 1.6 0.2 0.8-0.1 1.5-0.5 0.8-0.4 1.3-1 0.5-0.7 0.8-1.5 0.3-0.8 0.2-1.7-0.1-0.8-0.4-1.6-0.4-0.8-1-1.4-0.7-0.5-1.4-0.8-0.8-0.3-1.6-0.2z"/>
		<path class="s0" d="m142.9 189.1c-5.3 0-4-7.1-3.9-10.1q0-0.1 0-0.2 0.1-0.1 0.2-0.2 0 0 0.1-0.1 0.1 0 0.2 0h0.4q0 0 0.1 0 0 0 0.1 0.1 0 0 0 0.1 0.1 0 0.1 0.1v6.5q0 0.1 0 0.1 0 0 0 0 0 0 0 0 0 0.1 0 0.1 0.3 2.4 2.7 2.4 2.4 0 2.7-2.4 0-0.1 0-0.1 0 0 0 0 0 0 0 0 0-0.1 0-0.1v-6.5q0-0.1 0-0.1 0.1-0.1 0.1-0.1 0-0.1 0.1-0.1 0 0 0.1 0h0.3q0.1 0 0.2 0 0.1 0 0.2 0.1 0.1 0.1 0.1 0.2 0.1 0.1 0.1 0.2c0.1 3 1.4 10.1-3.9 10.1z"/>
		<path class="s0" d="m162 178.3h0.1c0.4 0 0.7 0.3 0.7 0.7l-0.1 9.3c0 0.3-0.3 0.6-0.6 0.6h-0.1c-0.3 0-0.6-0.3-0.6-0.6v-9.3c0-0.4 0.3-0.7 0.6-0.7z"/>
		<path class="s0" d="m169.3 186.8q0.3 0 0.5-0.2 0 0 0 0 0 0 0 0 0 0 0 0 0-0.1 0.1-0.1l2.9-7.9q0-0.1 0-0.1 0.1-0.1 0.1-0.1 0.1 0 0.1-0.1 0.1 0 0.2 0h0.4q0.1 0 0.2 0.1 0.1 0 0.1 0.1 0.1 0.1 0.1 0.2 0 0.1 0 0.2-1.6 4.6-3.6 8.9-0.5 1.3-1.1 1.3-0.5 0-1.1-1.3-1.9-4.4-3.5-8.9 0-0.1 0-0.2 0-0.1 0.1-0.2 0.1-0.1 0.2-0.1 0.1-0.1 0.2-0.1h0.4q0 0 0.1 0 0 0 0.1 0.1 0 0 0.1 0.1 0 0 0 0.1l2.9 7.9q0 0 0 0.1 0 0 0 0 0 0 0 0 0 0 0 0 0.3 0.2 0.5 0.2z"/>
		<path class="s0" d="m207.5 186.2q-1.3 0-1.9-0.1-0.2 0-0.4 0-0.2 0-0.3 0.1-0.2 0.1-0.3 0.2-0.2 0.2-0.2 0.3l-0.8 2q0 0 0 0.1-0.1 0-0.1 0.1-0.1 0-0.1 0-0.1 0-0.2 0l-0.4-0.2q-0.1 0-0.1-0.1-0.1 0-0.1-0.1-0.1-0.1-0.1-0.2 0-0.1 0.1-0.2 2.5-6.1 4.1-9.5 0.2-0.4 0.8-0.4 0.6 0 0.8 0.4 1.6 3.4 4.2 9.5 0 0.1 0 0.2 0 0.1 0 0.2 0 0.1-0.1 0.1-0.1 0.1-0.2 0.1l-0.4 0.2q0 0-0.1 0-0.1 0-0.1 0-0.1-0.1-0.1-0.1-0.1-0.1-0.1-0.1l-0.7-2q-0.1-0.1-0.2-0.3-0.1-0.1-0.3-0.2-0.2-0.1-0.3-0.1-0.2 0-0.4 0-0.6 0.1-2 0.1zm0.1-0.8q1.6 0 1.6-0.1 0.2 0 0.3-0.1 0.1 0 0.2-0.1 0-0.2 0.1-0.3 0-0.1 0-0.2c-0.2-0.8-0.8-1.8-1.2-3q-0.3-1.1-1-1.1-0.7 0-1 1.1c-0.4 1.2-1.1 2.3-1.2 3q0 0.1 0 0.2 0.1 0.2 0.1 0.3 0.1 0.1 0.2 0.2 0.1 0 0.3 0.1 0 0 1.6 0z"/>
		<path class="s0" d="m220.1 188.9h-5.1q-0.1 0-0.3 0-0.1-0.1-0.2-0.2-0.1-0.1-0.2-0.2 0-0.2 0-0.3v-9.3q0-0.1 0-0.2 0-0.1 0.1-0.1 0.1-0.1 0.2-0.2 0.1 0 0.2 0h0.3q0.1 0 0.2 0 0.1 0.1 0.1 0.1 0.1 0.1 0.1 0.2 0.1 0.1 0.1 0.1v8.3q0 0.2 0 0.3 0.1 0.2 0.2 0.3 0.1 0.1 0.3 0.2 0.1 0 0.3 0h4q0 0 0 0.1 0 0 0.1 0 0 0 0 0 0 0 0 0.1v0.4q0 0.1 0 0.2-0.1 0.1-0.1 0.1-0.1 0.1-0.2 0.1 0 0-0.1 0z"/>
		<path class="s0" d="m261.4 188.1v0.5q0 0-0.1 0.1 0 0.1 0 0.1-0.1 0.1-0.2 0.1 0 0.1-0.1 0.1l-5.1-0.1q-0.1 0-0.3-0.1-0.1-0.1-0.2-0.2-0.1-0.1-0.2-0.2 0-0.2 0-0.3l0.2-9.3q0-0.1 0-0.2 0.1-0.1 0.1-0.1 0.1-0.1 0.2-0.1 0.1-0.1 0.2-0.1h0.3q0.1 0 0.2 0.1 0.1 0 0.2 0.1 0 0 0 0.1 0.1 0.1 0.1 0.2l-0.2 8.2q0 0.2 0.1 0.4 0 0.1 0.1 0.2 0.2 0.1 0.3 0.2 0.2 0.1 0.3 0.1l4 0.1q0 0 0 0 0 0 0.1 0 0 0 0 0 0 0.1 0 0.1z"/>
		<path class="s0" d="m263.8 178.4h0.2c0.3 0 0.5 0.2 0.5 0.5v9.4c0 0.3-0.2 0.5-0.5 0.5h-0.2c-0.3 0-0.6-0.2-0.6-0.5v-9.4c0-0.3 0.3-0.5 0.6-0.5z"/>
		<path class="s0" d="m282.8 186.4q-1.4 0-2-0.2-0.2 0-0.4 0-0.2 0.1-0.3 0.2-0.2 0-0.3 0.2-0.2 0.1-0.2 0.3l-0.8 2q0 0.1 0 0.1-0.1 0.1-0.1 0.1-0.1 0-0.2 0 0 0-0.1 0l-0.4-0.2q-0.1 0-0.2-0.1 0 0-0.1-0.1 0-0.1 0-0.2 0-0.1 0-0.2 2.6-6.2 4.2-9.7 0.2-0.4 0.9-0.4 0.6 0 0.8 0.4 1.6 3.4 4.3 9.7 0 0.1 0 0.2 0 0.1 0 0.1-0.1 0.1-0.1 0.2-0.1 0-0.2 0.1l-0.4 0.1q-0.1 0.1-0.1 0.1-0.1 0-0.2-0.1 0 0-0.1 0 0-0.1 0-0.1l-0.8-2q-0.1-0.2-0.2-0.3-0.1-0.2-0.3-0.3-0.1-0.1-0.3-0.1-0.2 0-0.4 0-0.7 0.2-2 0.2zm-2.2-1.9q-0.1 0.2-0.1 0.3 0 0.1 0.1 0.3 0.1 0.1 0.2 0.1 0.1 0.1 0.3 0.1l3.3 0.1q0.1 0 0.3-0.1 0.1-0.1 0.2-0.2 0-0.1 0.1-0.2 0-0.2-0.1-0.3l-1.6-3.9q0-0.2-0.2-0.3-0.1-0.1-0.3-0.1-0.1 0-0.3 0.1-0.1 0.1-0.2 0.3z"/>
		<path class="s0" d="m299.1 178.3h0.1c0.3 0 0.6 0.3 0.6 0.6l-0.1 9.4c0 0.4-0.2 0.6-0.6 0.6-0.3 0-0.6-0.2-0.6-0.6v-9.4c0-0.3 0.3-0.6 0.6-0.6z"/>
		<path class="s0" d="m380.9 178.4h0.1c0.3 0 0.6 0.2 0.6 0.6v9.3c0 0.4-0.3 0.7-0.7 0.7-0.3 0-0.6-0.3-0.6-0.7v-9.3c0-0.4 0.3-0.6 0.6-0.6z"/>
		<path class="s0" d="m388.2 183.8q-1.9-2.8-2.2-3.1-0.1-0.1-0.2-0.1-0.1-0.1-0.2 0 0 0-0.1 0.1-0.1 0.1-0.1 0.2v7.5q0 0.1-0.1 0.2 0 0-0.1 0.1 0 0.1-0.1 0.1-0.1 0-0.2 0h-0.3q-0.1 0-0.2 0-0.1-0.1-0.1-0.1-0.1-0.1-0.1-0.2 0 0 0-0.1v-9.7q0-0.2 0.2-0.4 0.1-0.2 0.3-0.3 0.2-0.1 0.4 0 0.2 0 0.4 0.2 1.3 1.3 3.8 5 1.9 2.8 2.2 3.2 0 0.1 0.1 0.1 0.1 0 0.2 0 0.1 0 0.1-0.1 0.1-0.1 0.1-0.2l0.1-7.5q0-0.1 0-0.2 0-0.1 0.1-0.1 0.1-0.1 0.1-0.1 0.1-0.1 0.2-0.1h0.3q0.1 0 0.2 0.1 0.1 0 0.2 0.1 0 0 0 0.1 0.1 0.1 0.1 0.2l-0.1 9.7q0 0.2-0.1 0.4-0.1 0.2-0.4 0.3-0.2 0-0.4 0-0.2-0.1-0.4-0.2-1.2-1.4-3.7-5.1z"/>
		<path class="s0" d="m438.8 188.1v0.5q0 0 0 0.1 0 0.1-0.1 0.2 0 0-0.1 0-0.1 0.1-0.2 0.1l-5.1-0.1q-0.2 0-0.3 0-0.2-0.1-0.3-0.2-0.1-0.1-0.1-0.2-0.1-0.2-0.1-0.3l0.1-9.4q0-0.1 0-0.2 0.1-0.1 0.1-0.2 0.1-0.1 0.2-0.1 0.1 0 0.2 0h0.3q0.1 0 0.2 0 0.1 0 0.2 0.1 0 0.1 0.1 0.1 0 0.1 0 0.2v8.4q0 0.1 0 0.3 0.1 0.2 0.2 0.3 0.1 0.1 0.3 0.2 0.1 0 0.3 0l4 0.1q0 0 0.1 0 0 0 0 0 0 0 0 0 0 0.1 0 0.1z"/>
		<path class="s0" d="m444.5 187.9q2.5 0 2.8-2.5 0 0 0 0 0 0 0 0 0-0.1 0-0.1 0 0 0 0v-6.7q0 0 0-0.1 0 0 0.1-0.1 0 0 0.1-0.1 0 0 0.1 0h0.3q0.1 0 0.2 0.1 0.1 0 0.2 0.1 0.1 0 0.1 0.1 0.1 0.1 0.1 0.2c0.1 3.1 1.4 10.3-3.9 10.3-5.4 0.1-4.2-7.2-4-10.2q0-0.1 0-0.2 0.1-0.1 0.1-0.2 0.1-0.1 0.2-0.1 0.1-0.1 0.2-0.1h0.3q0.1 0 0.2 0.1 0 0 0.1 0 0 0.1 0 0.1 0.1 0.1 0.1 0.1l-0.1 6.7q0 0 0.1 0 0 0.1 0 0.1 0 0 0 0 0 0 0 0.1 0.3 2.4 2.7 2.4z"/>
		<path class="s0" d="m460.8 178.4h0.1c0.3 0 0.6 0.2 0.6 0.6l-0.1 9.3c0 0.3-0.2 0.6-0.6 0.6-0.3 0-0.6-0.3-0.6-0.6v-9.3c0-0.4 0.3-0.6 0.6-0.6z"/>
		<path class="s0" d="m480.3 183.8q-1.9-2.8-2.2-3.1 0-0.1-0.1-0.1-0.1-0.1-0.2 0-0.1 0-0.1 0.1-0.1 0.1-0.1 0.2v7.4q0 0.1-0.1 0.2 0 0 0 0.1-0.1 0.1-0.2 0.1-0.1 0-0.2 0h-0.3q-0.1 0-0.2 0 0 0-0.1-0.1-0.1-0.1-0.1-0.1 0-0.1 0-0.2v-9.6q0-0.2 0.1-0.4 0.2-0.2 0.4-0.3 0.2-0.1 0.4 0 0.2 0 0.4 0.2 1.2 1.3 3.7 4.9 1.9 2.8 2.2 3.2 0 0.1 0.1 0.1 0.1 0 0.2 0 0.1 0 0.2-0.1 0-0.1 0-0.2v-7.4q0-0.1 0.1-0.2 0-0.1 0.1-0.1 0-0.1 0.1-0.1 0.1-0.1 0.2-0.1h0.3q0.1 0 0.2 0.1 0.1 0 0.1 0.1 0.1 0 0.1 0.1 0.1 0.1 0.1 0.2l-0.1 9.6q0 0.2-0.1 0.4-0.1 0.1-0.4 0.2-0.2 0.1-0.4 0.1-0.2-0.1-0.3-0.2-1.3-1.4-3.8-5z"/>
	</g>
</svg>