<?xml version="1.0" encoding="UTF-8" standalone="no"?>
<!DOCTYPE svg PUBLIC "-//W3C//DTD SVG 1.1//EN" "http://www.w3.org/Graphics/SVG/1.1/DTD/svg11.dtd">
<svg xmlns="http://www.w3.org/2000/svg" version="1.1" viewBox="0.00 0.00 623.00 251.00">
<path fill="#fbfcfc" d="
  M 312.86 24.88
  Q 322.50 24.88 324.66 24.95
  A 0.56 0.55 -89.2 0 1 325.20 25.51
  L 325.20 34.60
  A 0.50 0.50 0.0 0 0 325.70 35.10
  L 335.72 35.10
  A 0.62 0.62 0.0 0 1 336.34 35.72
  L 336.34 45.69
  A 0.63 0.62 -90.0 0 0 336.96 46.32
  L 346.92 46.32
  A 0.58 0.57 -0.0 0 1 347.50 46.89
  L 347.50 56.92
  A 0.59 0.59 0.0 0 0 348.09 57.51
  L 358.05 57.51
  A 0.59 0.59 0.0 0 1 358.64 58.10
  L 358.64 81.83
  A 0.47 0.46 0.0 0 1 358.17 82.29
  L 348.07 82.29
  A 0.60 0.59 -90.0 0 0 347.48 82.89
  L 347.48 93.00
  A 0.48 0.47 -0.0 0 1 347.00 93.47
  L 336.80 93.47
  A 0.47 0.47 0.0 0 0 336.33 93.94
  L 336.33 104.12
  A 0.50 0.49 -90.0 0 1 335.84 104.62
  L 325.75 104.62
  A 0.56 0.56 0.0 0 0 325.19 105.18
  L 325.19 115.14
  A 0.70 0.69 89.8 0 1 324.50 115.84
  Q 323.40 115.85 312.86 115.85
  Q 302.32 115.85 301.22 115.84
  A 0.70 0.69 -89.8 0 1 300.53 115.14
  L 300.53 105.18
  A 0.56 0.56 0.0 0 0 299.97 104.62
  L 289.88 104.62
  A 0.50 0.49 90.0 0 1 289.39 104.12
  L 289.39 93.94
  A 0.47 0.47 0.0 0 0 288.92 93.47
  L 278.72 93.47
  A 0.48 0.47 -0.0 0 1 278.24 93.00
  L 278.24 82.89
  A 0.60 0.59 90.0 0 0 277.65 82.29
  L 267.55 82.29
  A 0.47 0.46 -0.0 0 1 267.08 81.83
  L 267.08 58.10
  A 0.59 0.59 0.0 0 1 267.67 57.51
  L 277.63 57.51
  A 0.59 0.59 0.0 0 0 278.22 56.92
  L 278.22 46.89
  A 0.58 0.57 -0.0 0 1 278.80 46.32
  L 288.76 46.32
  A 0.63 0.62 90.0 0 0 289.38 45.69
  L 289.38 35.72
  A 0.62 0.62 0.0 0 1 290.00 35.10
  L 300.02 35.10
  A 0.50 0.50 0.0 0 0 300.52 34.60
  L 300.52 25.51
  A 0.56 0.55 89.2 0 1 301.06 24.95
  Q 303.22 24.88 312.86 24.88
  Z
  M 291.35 48.40
  Q 291.13 48.62 290.88 48.61
  Q 284.79 48.42 280.93 48.52
  A 0.63 0.62 89.5 0 0 280.32 49.15
  L 280.32 59.37
  A 0.36 0.35 0.0 0 1 279.96 59.72
  L 269.65 59.72
  A 0.46 0.46 0.0 0 0 269.19 60.18
  Q 269.19 60.71 269.19 69.88
  Q 269.19 79.05 269.19 79.58
  A 0.46 0.46 0.0 0 0 269.65 80.04
  L 279.96 80.04
  A 0.36 0.35 0.0 0 1 280.32 80.39
  L 280.32 90.61
  A 0.63 0.62 -89.5 0 0 280.93 91.24
  Q 284.79 91.34 290.88 91.15
  Q 291.13 91.15 291.35 91.37
  Q 291.57 91.59 291.56 91.83
  Q 291.37 97.93 291.47 101.79
  A 0.63 0.62 -0.5 0 0 292.10 102.40
  L 302.32 102.40
  A 0.36 0.35 90.0 0 1 302.67 102.76
  L 302.67 113.07
  A 0.46 0.46 0.0 0 0 303.13 113.53
  Q 303.66 113.53 312.83 113.53
  Q 322.01 113.53 322.53 113.53
  A 0.46 0.46 0.0 0 0 322.99 113.07
  L 323.00 102.76
  A 0.36 0.35 -90.0 0 1 323.35 102.40
  L 333.57 102.40
  A 0.63 0.62 0.5 0 0 334.20 101.79
  Q 334.30 97.93 334.10 91.83
  Q 334.10 91.59 334.32 91.37
  Q 334.54 91.15 334.78 91.16
  Q 340.88 91.35 344.74 91.25
  A 0.63 0.62 89.5 0 0 345.35 90.62
  L 345.35 80.40
  A 0.36 0.35 -0.0 0 1 345.71 80.05
  L 356.02 80.05
  A 0.46 0.46 0.0 0 0 356.48 79.58
  Q 356.48 79.06 356.48 69.88
  Q 356.48 60.71 356.48 60.18
  A 0.46 0.46 0.0 0 0 356.02 59.72
  L 345.71 59.72
  A 0.36 0.35 0.0 0 1 345.35 59.37
  L 345.35 49.15
  A 0.63 0.62 -89.5 0 0 344.74 48.52
  Q 340.88 48.42 334.79 48.61
  Q 334.54 48.62 334.32 48.40
  Q 334.10 48.18 334.11 47.93
  Q 334.30 41.84 334.20 37.98
  A 0.63 0.62 -0.5 0 0 333.57 37.37
  L 323.35 37.37
  A 0.36 0.35 90.0 0 1 323.00 37.01
  L 323.00 26.70
  A 0.46 0.46 0.0 0 0 322.54 26.24
  Q 322.01 26.24 312.84 26.24
  Q 303.66 26.24 303.14 26.24
  A 0.46 0.46 0.0 0 0 302.67 26.70
  L 302.67 37.01
  A 0.36 0.35 -90.0 0 1 302.32 37.37
  L 292.10 37.37
  A 0.63 0.62 0.5 0 0 291.47 37.98
  Q 291.37 41.84 291.56 47.93
  Q 291.57 48.18 291.35 48.40
  Z"
/>
<path fill="#fbfcfc" d="
  M 312.86 29.53
  Q 317.99 29.53 318.88 29.56
  A 0.74 0.73 -88.9 0 1 319.59 30.30
  L 319.59 40.22
  A 0.47 0.46 0.0 0 0 320.06 40.68
  L 330.29 40.68
  A 0.62 0.61 -90.0 0 1 330.90 41.30
  Q 330.90 46.56 330.80 51.56
  Q 330.80 51.63 330.96 51.79
  Q 331.13 51.95 331.19 51.95
  Q 336.19 51.86 341.45 51.86
  A 0.62 0.61 -0.0 0 1 342.07 52.47
  L 342.07 62.70
  A 0.47 0.46 90.0 0 0 342.53 63.17
  L 352.45 63.17
  A 0.74 0.73 -1.1 0 1 353.19 63.87
  Q 353.23 64.76 353.23 69.89
  Q 353.23 75.02 353.19 75.92
  A 0.74 0.73 1.1 0 1 352.45 76.62
  L 342.53 76.62
  A 0.47 0.46 -90.0 0 0 342.07 77.09
  L 342.07 87.32
  A 0.62 0.61 -0.0 0 1 341.45 87.93
  Q 336.19 87.93 331.19 87.83
  Q 331.13 87.83 330.96 88.00
  Q 330.80 88.16 330.80 88.22
  Q 330.90 93.22 330.90 98.48
  A 0.62 0.61 90.0 0 1 330.29 99.10
  L 320.06 99.10
  A 0.47 0.46 -0.0 0 0 319.59 99.56
  L 319.59 109.48
  A 0.74 0.73 88.9 0 1 318.89 110.22
  Q 317.99 110.26 312.86 110.26
  Q 307.74 110.26 306.84 110.22
  A 0.74 0.73 -88.9 0 1 306.14 109.49
  L 306.14 99.57
  A 0.47 0.46 0.0 0 0 305.67 99.11
  L 295.44 99.11
  A 0.62 0.61 -90.0 0 1 294.83 98.49
  Q 294.83 93.23 294.92 88.22
  Q 294.92 88.16 294.76 88.00
  Q 294.60 87.83 294.53 87.84
  Q 289.53 87.93 284.27 87.93
  A 0.62 0.61 -0.0 0 1 283.65 87.32
  L 283.65 77.09
  A 0.47 0.46 90.0 0 0 283.19 76.62
  L 273.27 76.62
  A 0.74 0.73 -1.1 0 1 272.53 75.92
  Q 272.49 75.02 272.49 69.90
  Q 272.49 64.77 272.53 63.87
  A 0.74 0.73 1.1 0 1 273.27 63.17
  L 283.19 63.17
  A 0.47 0.46 90.0 0 0 283.65 62.70
  L 283.65 52.47
  A 0.62 0.61 -0.0 0 1 284.27 51.86
  Q 289.53 51.86 294.53 51.95
  Q 294.59 51.96 294.76 51.79
  Q 294.92 51.63 294.92 51.57
  Q 294.82 46.56 294.82 41.30
  A 0.62 0.61 90.0 0 1 295.43 40.68
  L 305.66 40.68
  A 0.47 0.46 -0.0 0 0 306.13 40.22
  L 306.13 30.30
  A 0.74 0.73 88.9 0 1 306.83 29.57
  Q 307.73 29.53 312.86 29.53
  Z
  M 297.04 54.07
  Q 296.92 54.19 296.87 54.19
  Q 287.09 54.15 286.52 54.15
  A 0.58 0.57 0.0 0 0 285.94 54.72
  L 285.94 64.91
  A 0.46 0.46 0.0 0 1 285.48 65.37
  L 275.23 65.37
  A 0.53 0.52 -0.2 0 0 274.70 65.89
  Q 274.72 68.56 274.72 69.89
  Q 274.72 71.21 274.70 73.88
  A 0.53 0.52 0.2 0 0 275.23 74.40
  L 285.48 74.41
  A 0.46 0.46 0.0 0 1 285.94 74.87
  L 285.93 85.06
  A 0.58 0.57 0.0 0 0 286.51 85.63
  Q 287.08 85.63 296.87 85.59
  Q 296.91 85.59 297.03 85.72
  Q 297.16 85.84 297.16 85.88
  Q 297.12 95.67 297.12 96.24
  A 0.58 0.57 -90.0 0 0 297.69 96.82
  L 307.88 96.82
  A 0.46 0.46 0.0 0 1 308.34 97.28
  L 308.34 107.53
  A 0.53 0.52 89.8 0 0 308.86 108.05
  Q 311.53 108.03 312.85 108.03
  Q 314.18 108.04 316.84 108.05
  A 0.53 0.52 -89.8 0 0 317.37 107.53
  L 317.37 97.28
  A 0.46 0.46 0.0 0 1 317.83 96.82
  L 328.02 96.82
  A 0.58 0.57 -90.0 0 0 328.59 96.24
  Q 328.59 95.67 328.56 85.89
  Q 328.56 85.85 328.68 85.72
  Q 328.81 85.60 328.85 85.60
  Q 338.63 85.64 339.20 85.64
  A 0.58 0.57 0.0 0 0 339.78 85.07
  L 339.78 74.88
  A 0.46 0.46 0.0 0 1 340.24 74.42
  L 350.49 74.42
  A 0.53 0.52 -0.2 0 0 351.02 73.90
  Q 351.00 71.23 351.00 69.90
  Q 351.00 68.58 351.02 65.91
  A 0.53 0.52 0.2 0 0 350.49 65.39
  L 340.24 65.38
  A 0.46 0.46 0.0 0 1 339.78 64.92
  L 339.79 54.73
  A 0.58 0.57 0.0 0 0 339.21 54.16
  Q 338.64 54.16 328.85 54.20
  Q 328.81 54.20 328.69 54.07
  Q 328.56 53.95 328.56 53.91
  Q 328.61 44.12 328.61 43.55
  A 0.58 0.57 -90.0 0 0 328.04 42.97
  L 317.85 42.97
  A 0.46 0.46 0.0 0 1 317.39 42.51
  L 317.39 32.26
  A 0.53 0.52 89.8 0 0 316.86 31.74
  Q 314.19 31.76 312.87 31.76
  Q 311.55 31.76 308.88 31.74
  A 0.53 0.52 -89.8 0 0 308.35 32.26
  L 308.35 42.51
  A 0.46 0.46 0.0 0 1 307.89 42.97
  L 297.70 42.97
  A 0.58 0.57 -90.0 0 0 297.13 43.55
  Q 297.13 44.12 297.17 53.90
  Q 297.17 53.94 297.04 54.07
  Z"
/>
<path fill="#fbfcfc" d="
  M 312.86 46.37
  Q 317.92 46.37 324.85 46.34
  A 0.41 0.40 -0.4 0 1 325.26 46.74
  Q 325.27 52.12 325.23 57.23
  Q 325.23 57.27 325.36 57.40
  Q 325.48 57.52 325.52 57.52
  Q 330.63 57.48 336.01 57.48
  A 0.41 0.40 -89.7 0 1 336.41 57.90
  Q 336.38 64.83 336.39 69.89
  Q 336.39 74.94 336.42 81.87
  A 0.41 0.40 89.6 0 1 336.01 82.29
  Q 330.63 82.30 325.52 82.26
  Q 325.48 82.26 325.36 82.38
  Q 325.24 82.50 325.24 82.54
  Q 325.28 87.65 325.27 93.03
  A 0.41 0.40 0.3 0 1 324.86 93.44
  Q 317.92 93.41 312.87 93.41
  Q 307.82 93.41 300.88 93.44
  A 0.41 0.40 -0.4 0 1 300.47 93.03
  Q 300.46 87.65 300.50 82.54
  Q 300.50 82.50 300.38 82.38
  Q 300.25 82.26 300.21 82.26
  Q 295.10 82.30 289.72 82.29
  A 0.41 0.40 -89.7 0 1 289.32 81.88
  Q 289.35 74.94 289.35 69.89
  Q 289.35 64.84 289.32 57.90
  A 0.41 0.40 89.6 0 1 289.72 57.49
  Q 295.10 57.48 300.21 57.52
  Q 300.25 57.52 300.37 57.40
  Q 300.50 57.28 300.50 57.23
  Q 300.45 52.12 300.46 46.74
  A 0.41 0.40 0.3 0 1 300.87 46.34
  Q 307.81 46.37 312.86 46.37
  Z
  M 302.53 59.58
  C 302.24 59.87 296.07 59.69 292.19 59.71
  A 0.66 0.66 0.0 0 0 291.54 60.33
  Q 291.44 61.90 291.44 69.89
  Q 291.44 77.88 291.54 79.45
  A 0.66 0.66 0.0 0 0 292.20 80.07
  C 296.07 80.08 302.24 79.90 302.53 80.19
  C 302.82 80.48 302.65 86.65 302.67 90.53
  A 0.66 0.66 0.0 0 0 303.28 91.19
  Q 304.86 91.28 312.85 91.28
  Q 320.83 91.28 322.41 91.18
  A 0.66 0.66 0.0 0 0 323.02 90.53
  C 323.04 86.65 322.86 80.48 323.15 80.19
  C 323.44 79.90 329.61 80.08 333.49 80.06
  A 0.66 0.66 0.0 0 0 334.14 79.44
  Q 334.24 77.87 334.24 69.88
  Q 334.24 61.89 334.14 60.32
  A 0.66 0.66 0.0 0 0 333.48 59.70
  C 329.61 59.68 323.44 59.86 323.15 59.57
  C 322.86 59.28 323.03 53.11 323.02 49.24
  A 0.66 0.66 0.0 0 0 322.40 48.58
  Q 320.82 48.48 312.84 48.48
  Q 304.85 48.49 303.28 48.58
  A 0.66 0.66 0.0 0 0 302.66 49.24
  C 302.64 53.11 302.82 59.28 302.53 59.58
  Z"
/>
<path fill="#fbfcfc" d="
  M 325.4227 69.7398
  A 0.30 0.30 0.0 0 1 325.4220 70.1641
  L 313.0402 82.5027
  A 0.30 0.30 0.0 0 1 312.6159 82.5020
  L 300.2773 70.1202
  A 0.30 0.30 0.0 0 1 300.2780 69.6959
  L 312.6598 57.3573
  A 0.30 0.30 0.0 0 1 313.0841 57.3580
  L 325.4227 69.7398
  Z
  M 313.0104 60.4051
  A 0.26 0.26 0.0 0 0 312.6427 60.4045
  L 303.3351 69.6796
  A 0.26 0.26 0.0 0 0 303.3345 70.0473
  L 312.6096 79.3549
  A 0.26 0.26 0.0 0 0 312.9773 79.3555
  L 322.2849 70.0804
  A 0.26 0.26 0.0 0 0 322.2855 69.7127
  L 313.0104 60.4051
  Z"
/>
<path fill="#fbfcfc" d="
  M 316.70 69.86
  A 3.87 3.87 0.0 0 1 312.83 73.73
  A 3.87 3.87 0.0 0 1 308.96 69.86
  A 3.87 3.87 0.0 0 1 312.83 65.99
  A 3.87 3.87 0.0 0 1 316.70 69.86
  Z
  M 314.57 69.90
  A 1.71 1.71 0.0 0 0 312.86 68.19
  A 1.71 1.71 0.0 0 0 311.15 69.90
  A 1.71 1.71 0.0 0 0 312.86 71.61
  A 1.71 1.71 0.0 0 0 314.57 69.90
  Z"
/>
<path fill="#fbfcfc" d="
  M 124.91 155.57
  A 0.35 0.35 0.0 0 1 124.67 154.96
  Q 124.82 154.83 125.35 154.40
  C 126.33 153.60 129.18 145.22 131.93 138.18
  A 1.64 1.63 85.7 0 1 132.65 137.34
  Q 134.00 136.60 135.68 136.32
  A 0.76 0.75 74.7 0 1 136.51 136.81
  L 142.88 153.68
  A 0.89 0.88 13.3 0 0 143.05 153.95
  L 144.11 155.06
  A 0.29 0.28 -21.8 0 1 143.90 155.54
  L 140.01 155.55
  A 0.45 0.44 5.7 0 1 139.57 155.02
  Q 139.92 153.27 137.97 149.30
  A 0.76 0.75 76.6 0 0 137.29 148.87
  L 130.68 148.89
  A 0.85 0.84 12.8 0 0 129.93 149.36
  Q 128.20 152.73 128.28 154.94
  A 0.59 0.59 0.0 0 1 127.69 155.56
  L 124.91 155.57
  Z
  M 130.54 147.08
  A 0.34 0.34 0.0 0 0 130.85 147.54
  L 137.06 147.60
  A 0.34 0.34 0.0 0 0 137.38 147.15
  L 134.37 138.80
  A 0.34 0.34 0.0 0 0 133.73 138.79
  L 130.54 147.08
  Z"
/>
<path fill="#fbfcfc" d="
  M 213.59 146.13
  C 213.61 150.70 216.65 155.90 221.94 153.97
  Q 224.39 153.07 225.04 150.46
  A 0.59 0.59 0.0 0 1 226.17 150.40
  Q 226.47 151.23 226.20 153.34
  A 1.26 1.25 -11.2 0 1 225.57 154.27
  Q 218.44 158.39 212.89 153.11
  Q 209.87 150.24 209.86 146.15
  Q 209.84 142.06 212.84 139.17
  Q 218.35 133.84 225.51 137.91
  A 1.26 1.25 10.8 0 1 226.15 138.84
  Q 226.43 140.95 226.14 141.78
  A 0.59 0.59 0.0 0 1 225.01 141.73
  Q 224.34 139.12 221.88 138.24
  C 216.58 136.35 213.58 141.56 213.59 146.13
  Z"
/>
<path fill="#fbfcfc" d="
  M 229.99 155.00
  Q 230.14 154.87 230.67 154.44
  C 231.66 153.64 234.53 145.24 237.30 138.19
  A 1.64 1.63 85.8 0 1 238.02 137.35
  Q 239.38 136.61 241.06 136.33
  A 0.76 0.75 74.8 0 1 241.90 136.82
  L 248.25 153.75
  A 0.90 0.88 13.4 0 0 248.42 154.02
  L 249.48 155.14
  A 0.29 0.28 -21.7 0 1 249.27 155.62
  L 245.37 155.62
  A 0.45 0.44 5.8 0 1 244.93 155.09
  Q 245.28 153.33 243.34 149.35
  A 0.77 0.75 76.7 0 0 242.66 148.92
  L 236.03 148.92
  A 0.85 0.84 12.9 0 0 235.27 149.39
  Q 233.53 152.77 233.61 154.99
  A 0.59 0.59 0.0 0 1 233.02 155.61
  L 230.23 155.61
  A 0.35 0.35 0.0 0 1 229.99 155.00
  Z
  M 239.03 139.09
  L 235.95 146.90
  A 0.47 0.47 0.0 0 0 236.39 147.54
  L 242.19 147.54
  A 0.52 0.52 0.0 0 0 242.68 146.83
  L 239.78 139.10
  A 0.40 0.40 0.0 0 0 239.03 139.09
  Z"
/>
<path fill="#fbfcfc" d="
  M 290.6725 136.1900
  A 10.01 9.26 -90.1 0 1 299.9500 146.1838
  A 10.01 9.26 -90.1 0 1 290.7075 156.2100
  A 10.01 9.26 -90.1 0 1 281.4300 146.2162
  A 10.01 9.26 -90.1 0 1 290.6725 136.1900
  Z
  M 290.8248 137.7100
  A 8.50 5.73 -89.9 0 0 285.0800 146.2000
  A 8.50 5.73 -89.9 0 0 290.7952 154.7100
  A 8.50 5.73 -89.9 0 0 296.5400 146.2200
  A 8.50 5.73 -89.9 0 0 290.8248 137.7100
  Z"
/>
<path fill="#fbfcfc" d="
  M 363.75 155.60
  A 0.35 0.35 0.0 0 1 363.51 154.99
  Q 363.66 154.86 364.19 154.43
  C 365.18 153.63 368.05 145.22 370.81 138.15
  A 1.64 1.64 0.0 0 1 371.53 137.31
  Q 372.89 136.57 374.58 136.29
  A 0.76 0.75 74.8 0 1 375.42 136.78
  L 381.79 153.72
  A 0.90 0.88 13.4 0 0 381.96 153.99
  L 383.02 155.12
  A 0.29 0.28 -21.7 0 1 382.81 155.60
  L 378.91 155.60
  A 0.45 0.44 5.7 0 1 378.47 155.07
  Q 378.81 153.31 376.87 149.32
  A 0.77 0.75 76.7 0 0 376.19 148.89
  L 369.55 148.90
  A 0.85 0.84 12.8 0 0 368.79 149.37
  Q 367.05 152.76 367.13 154.98
  A 0.59 0.59 0.0 0 1 366.54 155.60
  L 363.75 155.60
  Z
  M 369.44 147.04
  A 0.33 0.33 0.0 0 0 369.74 147.50
  L 375.96 147.57
  A 0.33 0.33 0.0 0 0 376.27 147.13
  L 373.27 138.89
  A 0.33 0.33 0.0 0 0 372.65 138.88
  L 369.44 147.04
  Z"
/>
<path fill="#fbfcfc" d="
  M 386.72 146.15
  Q 386.71 142.06 389.70 139.17
  Q 395.21 133.85 402.37 137.92
  A 1.26 1.25 10.8 0 1 403.00 138.85
  Q 403.29 140.95 403.00 141.79
  A 0.59 0.59 0.0 0 1 401.87 141.73
  Q 401.20 139.13 398.74 138.25
  C 393.44 136.36 390.44 141.57 390.45 146.14
  C 390.47 150.71 393.50 155.90 398.79 153.97
  Q 401.24 153.07 401.89 150.47
  A 0.59 0.59 0.0 0 1 403.02 150.41
  Q 403.32 151.24 403.05 153.34
  A 1.26 1.25 -11.2 0 1 402.42 154.27
  Q 395.29 158.39 389.75 153.11
  Q 386.73 150.24 386.72 146.15
  Z"
/>
<path fill="#fbfcfc" d="
  M 148.19 154.98
  L 148.66 154.43
  A 1.61 1.58 66.2 0 0 149.06 153.37
  L 149.06 138.66
  A 1.44 1.40 -69.9 0 0 148.58 137.59
  L 148.25 137.31
  A 0.43 0.43 0.0 0 1 148.53 136.57
  C 152.42 136.41 160.66 135.57 161.47 141.67
  C 162.02 145.76 158.98 148.59 154.99 148.57
  Q 154.27 148.56 152.60 148.55
  A 0.63 0.62 3.7 0 0 151.98 149.09
  Q 151.46 153.12 152.59 154.99
  A 0.40 0.40 0.0 0 1 152.25 155.59
  L 148.47 155.59
  A 0.37 0.37 0.0 0 1 148.19 154.98
  Z
  M 151.85 139.44
  L 151.97 145.58
  A 1.32 1.32 0.0 0 0 153.32 146.87
  L 154.90 146.84
  A 3.76 3.52 88.8 0 0 158.34 143.00
  L 158.32 141.74
  A 3.76 3.52 88.8 0 0 154.72 138.06
  L 153.14 138.09
  A 1.32 1.32 0.0 0 0 151.85 139.44
  Z"
/>
<path fill="#fbfcfc" d="
  M 165.92 155.62
  A 0.37 0.37 0.0 0 1 165.64 155.01
  L 166.11 154.45
  A 1.61 1.58 66.0 0 0 166.51 153.39
  L 166.45 138.65
  A 1.44 1.40 -70.1 0 0 165.96 137.58
  L 165.63 137.30
  A 0.43 0.43 0.0 0 1 165.91 136.56
  C 169.80 136.38 178.06 135.50 178.90 141.61
  C 179.46 145.71 176.43 148.56 172.43 148.56
  Q 171.71 148.55 170.03 148.55
  A 0.63 0.62 3.4 0 0 169.41 149.09
  Q 168.91 153.13 170.05 155.00
  A 0.40 0.40 0.0 0 1 169.71 155.60
  L 165.92 155.62
  Z
  M 169.45 139.33
  L 169.35 145.49
  A 1.31 1.31 0.0 0 0 170.64 146.82
  L 172.14 146.84
  A 3.71 3.51 -89.1 0 0 175.71 143.19
  L 175.73 141.83
  A 3.71 3.51 -89.1 0 0 172.28 138.07
  L 170.78 138.04
  A 1.31 1.31 0.0 0 0 169.45 139.33
  Z"
/>
<path fill="#fbfcfc" d="
  M 183.38 136.55
  L 187.35 136.55
  A 0.31 0.31 0.0 0 1 187.58 137.06
  L 187.09 137.61
  A 1.22 1.21 65.5 0 0 186.80 138.40
  L 186.80 153.21
  A 0.59 0.59 0.0 0 0 187.39 153.80
  L 192.84 153.80
  A 1.14 1.11 -68.6 0 0 193.68 153.42
  L 194.90 152.02
  A 0.40 0.40 0.0 0 1 195.60 152.28
  L 195.60 155.00
  A 0.59 0.59 0.0 0 1 195.01 155.59
  L 183.30 155.59
  A 0.30 0.30 0.0 0 1 183.06 155.12
  C 183.41 154.64 183.97 154.16 183.96 153.42
  Q 183.73 144.02 183.99 138.51
  A 0.81 0.81 0.0 0 0 183.79 137.95
  L 183.10 137.17
  A 0.37 0.37 0.0 0 1 183.38 136.55
  Z"
/>
<path fill="#fbfcfc" d="
  M 203.42 146.04
  Q 203.41 152.93 203.44 153.46
  A 1.70 1.69 -68.2 0 0 203.97 154.71
  L 204.06 154.79
  A 0.42 0.42 0.0 0 1 203.78 155.52
  Q 202.84 155.54 201.88 155.54
  Q 200.91 155.54 199.97 155.52
  A 0.42 0.42 0.0 0 1 199.70 154.78
  L 199.79 154.71
  A 1.70 1.69 68.2 0 0 200.32 153.45
  Q 200.34 152.92 200.35 146.04
  Q 200.35 139.15 200.33 138.62
  A 1.70 1.69 -68.2 0 0 199.80 137.37
  L 199.71 137.29
  A 0.42 0.42 0.0 0 1 199.99 136.56
  Q 200.93 136.54 201.89 136.54
  Q 202.86 136.54 203.79 136.56
  A 0.42 0.42 0.0 0 1 204.07 137.29
  L 203.98 137.37
  A 1.70 1.69 68.2 0 0 203.45 138.63
  Q 203.42 139.16 203.42 146.04
  Z"
/>
<path fill="#fbfcfc" d="
  M 259.83 155.53
  Q 257.90 155.53 257.79 155.52
  A 0.40 0.40 0.0 0 1 257.52 154.85
  L 257.93 154.38
  A 1.29 1.25 66.5 0 0 258.25 153.54
  L 258.29 139.20
  A 0.76 0.75 6.3 0 0 257.70 138.46
  Q 254.69 137.82 253.43 140.07
  A 0.36 0.36 0.0 0 1 252.77 139.97
  Q 252.46 138.61 252.66 137.24
  A 0.76 0.76 0.0 0 1 253.37 136.59
  Q 253.99 136.55 259.86 136.56
  Q 265.73 136.57 266.35 136.60
  A 0.76 0.76 0.0 0 1 267.06 137.26
  Q 267.25 138.63 266.94 139.99
  A 0.36 0.36 0.0 0 1 266.27 140.09
  Q 265.02 137.83 262.01 138.47
  A 0.76 0.75 -6.2 0 0 261.42 139.21
  L 261.42 153.54
  A 1.29 1.25 -66.4 0 0 261.74 154.39
  L 262.15 154.85
  A 0.40 0.40 0.0 0 1 261.87 155.52
  Q 261.77 155.53 259.83 155.53
  Z"
/>
<path fill="#fbfcfc" d="
  M 274.98 146.04
  Q 274.99 152.94 275.01 153.47
  A 1.71 1.69 -68.2 0 0 275.55 154.73
  L 275.64 154.81
  A 0.42 0.42 0.0 0 1 275.36 155.54
  Q 274.42 155.56 273.45 155.56
  Q 272.49 155.56 271.54 155.54
  A 0.42 0.42 0.0 0 1 271.27 154.81
  L 271.36 154.73
  A 1.71 1.69 68.2 0 0 271.89 153.47
  Q 271.91 152.94 271.91 146.04
  Q 271.90 139.14 271.87 138.61
  A 1.71 1.69 -68.2 0 0 271.34 137.35
  L 271.25 137.27
  A 0.42 0.42 0.0 0 1 271.53 136.54
  Q 272.47 136.52 273.44 136.51
  Q 274.40 136.51 275.35 136.54
  A 0.42 0.42 0.0 0 1 275.62 137.27
  L 275.53 137.35
  A 1.71 1.69 68.2 0 0 275.00 138.61
  Q 274.98 139.14 274.98 146.04
  Z"
/>
<path fill="#fbfcfc" d="
  M 333.84 136.56
  Q 339.75 136.57 340.37 136.60
  A 0.77 0.77 0.0 0 1 341.08 137.26
  Q 341.27 138.64 340.96 140.01
  A 0.36 0.36 0.0 0 1 340.29 140.11
  Q 339.03 137.84 336.01 138.48
  A 0.76 0.76 0.0 0 0 335.41 139.22
  L 335.41 153.63
  A 1.29 1.26 -66.4 0 0 335.73 154.48
  L 336.14 154.95
  A 0.41 0.41 0.0 0 1 335.87 155.62
  Q 335.76 155.63 333.81 155.63
  Q 331.87 155.62 331.76 155.62
  A 0.41 0.41 0.0 0 1 331.49 154.94
  L 331.90 154.47
  A 1.29 1.26 66.5 0 0 332.23 153.63
  L 332.27 139.22
  A 0.76 0.76 0.0 0 0 331.67 138.47
  Q 328.65 137.82 327.39 140.09
  A 0.36 0.36 0.0 0 1 326.72 139.99
  Q 326.41 138.62 326.60 137.24
  A 0.77 0.77 0.0 0 1 327.32 136.58
  Q 327.94 136.55 333.84 136.56
  Z"
/>
<path fill="#fbfcfc" d="
  M 345.09 154.88
  L 345.45 154.56
  A 1.34 1.34 0.0 0 0 345.90 153.56
  L 345.90 138.53
  A 1.00 1.00 0.0 0 0 345.66 137.88
  L 345.05 137.19
  A 0.39 0.38 69.1 0 1 345.33 136.55
  C 351.23 136.49 358.51 135.73 358.57 142.42
  Q 358.60 146.28 354.90 147.74
  A 0.74 0.74 0.0 0 0 354.62 148.92
  L 360.01 155.05
  A 0.30 0.30 0.0 0 1 359.78 155.55
  L 356.98 155.55
  A 1.24 1.23 72.7 0 1 355.96 155.01
  L 351.68 148.76
  A 0.77 0.77 0.0 0 0 351.04 148.42
  L 349.38 148.42
  A 0.58 0.58 0.0 0 0 348.80 149.00
  L 348.80 153.61
  A 1.32 1.28 25.2 0 0 349.12 154.46
  L 349.58 154.98
  A 0.36 0.35 -20.6 0 1 349.31 155.57
  L 345.35 155.57
  A 0.39 0.39 0.0 0 1 345.09 154.88
  Z
  M 348.99 138.81
  L 349.03 146.15
  A 0.57 0.57 0.0 0 0 349.60 146.71
  L 351.60 146.70
  A 4.05 3.93 89.7 0 0 355.51 142.63
  L 355.51 142.25
  A 4.05 3.93 89.7 0 0 351.56 138.22
  L 349.56 138.23
  A 0.57 0.57 0.0 0 0 348.99 138.81
  Z"
/>
<path fill="#fbfcfc" d="
  M 407.64 154.94
  L 408.12 154.51
  A 1.01 1.00 -20.9 0 0 408.46 153.76
  L 408.46 138.46
  A 0.92 0.91 14.4 0 0 407.98 137.66
  Q 407.62 137.46 407.52 137.29
  A 0.46 0.46 0.0 0 1 407.89 136.56
  L 412.15 136.52
  A 0.38 0.38 0.0 0 1 412.40 137.18
  L 411.81 137.70
  A 1.12 1.10 69.8 0 0 411.43 138.54
  L 411.43 144.80
  A 0.34 0.34 0.0 0 0 412.02 145.02
  L 417.85 138.33
  A 0.59 0.58 -47.6 0 0 417.82 137.53
  Q 417.66 137.37 417.62 137.31
  A 0.46 0.46 0.0 0 1 418.02 136.63
  L 422.35 136.66
  A 0.26 0.25 -7.2 0 1 422.60 136.85
  Q 422.76 137.46 421.60 137.55
  Q 421.16 137.58 420.87 137.88
  Q 417.63 141.30 414.19 145.32
  A 0.71 0.70 44.7 0 0 414.20 146.24
  L 422.24 155.37
  A 0.14 0.14 0.0 0 1 422.13 155.60
  L 419.20 155.60
  A 0.83 0.83 0.0 0 1 418.56 155.30
  L 412.02 147.15
  A 0.33 0.33 0.0 0 0 411.43 147.35
  L 411.43 153.75
  A 0.93 0.90 -70.0 0 0 411.74 154.44
  L 412.31 154.94
  A 0.35 0.35 0.0 0 1 412.08 155.56
  L 407.87 155.56
  A 0.35 0.35 0.0 0 1 407.64 154.94
  Z"
/>
<path fill="#fbfcfc" d="
  M 438.16 146.04
  Q 438.16 147.05 438.15 147.12
  A 0.42 0.42 0.0 0 1 437.58 147.49
  Q 435.37 146.56 431.23 146.92
  A 0.72 0.71 87.9 0 0 430.57 147.64
  L 430.57 153.17
  A 0.59 0.58 -90.0 0 0 431.15 153.76
  L 436.98 153.76
  A 1.44 1.43 18.6 0 0 438.12 153.20
  Q 438.89 152.18 439.21 152.04
  A 0.47 0.47 0.0 0 1 439.90 152.45
  L 439.90 154.86
  A 0.72 0.72 0.0 0 1 439.18 155.57
  L 427.35 155.57
  A 0.46 0.46 0.0 0 1 427.04 154.77
  Q 427.13 154.70 427.27 154.60
  A 1.00 0.97 76.0 0 0 427.69 153.87
  Q 427.72 153.59 427.71 146.05
  Q 427.71 138.52 427.68 138.23
  A 1.00 0.97 -76.1 0 0 427.26 137.51
  Q 427.12 137.41 427.03 137.34
  A 0.46 0.46 0.0 0 1 427.34 136.54
  L 439.17 136.52
  A 0.72 0.72 0.0 0 1 439.89 137.23
  L 439.89 139.64
  A 0.47 0.47 0.0 0 1 439.20 140.05
  Q 438.88 139.91 438.11 138.89
  A 1.44 1.43 -18.7 0 0 436.97 138.33
  L 431.14 138.34
  A 0.59 0.58 89.9 0 0 430.56 138.93
  L 430.57 144.46
  A 0.72 0.71 -87.9 0 0 431.23 145.18
  Q 435.37 145.53 437.58 144.60
  A 0.42 0.42 0.0 0 1 438.15 144.97
  Q 438.15 145.04 438.16 146.04
  Z"
/>
<path fill="#fbfcfc" d="
  M 444.85 155.59
  A 0.39 0.39 0.0 0 1 444.59 154.90
  L 444.95 154.58
  A 1.34 1.34 0.0 0 0 445.40 153.58
  L 445.41 138.55
  A 1.00 1.00 0.0 0 0 445.17 137.90
  L 444.56 137.21
  A 0.39 0.38 69.1 0 1 444.84 136.57
  C 450.74 136.51 458.02 135.76 458.08 142.45
  Q 458.11 146.31 454.40 147.77
  A 0.74 0.74 0.0 0 0 454.12 148.95
  L 459.51 155.08
  A 0.30 0.30 0.0 0 1 459.28 155.58
  L 456.48 155.58
  A 1.24 1.23 72.7 0 1 455.46 155.04
  L 451.18 148.79
  A 0.77 0.77 0.0 0 0 450.54 148.45
  L 448.88 148.44
  A 0.58 0.58 0.0 0 0 448.30 149.02
  L 448.30 153.64
  A 1.32 1.28 25.2 0 0 448.62 154.49
  L 449.08 155.01
  A 0.36 0.35 -20.6 0 1 448.81 155.60
  L 444.85 155.59
  Z
  M 448.42 138.85
  L 448.44 146.07
  A 0.63 0.63 0.0 0 0 449.07 146.69
  L 450.99 146.69
  A 4.00 3.95 89.9 0 0 454.93 142.68
  L 454.93 142.20
  A 4.00 3.95 89.9 0 0 450.97 138.21
  L 449.05 138.21
  A 0.63 0.63 0.0 0 0 448.42 138.85
  Z"
/>
<path fill="#fbfcfc" d="
  M 474.51 136.50
  Q 475.48 136.50 476.42 136.53
  A 0.42 0.42 0.0 0 1 476.70 137.26
  L 476.61 137.34
  A 1.71 1.69 68.2 0 0 476.08 138.60
  Q 476.05 139.13 476.06 146.04
  Q 476.06 152.96 476.09 153.49
  A 1.71 1.69 -68.2 0 0 476.62 154.75
  L 476.71 154.83
  A 0.42 0.42 0.0 0 1 476.43 155.56
  Q 475.49 155.59 474.52 155.59
  Q 473.55 155.59 472.61 155.56
  A 0.42 0.42 0.0 0 1 472.33 154.83
  L 472.42 154.75
  A 1.71 1.69 68.2 0 0 472.95 153.49
  Q 472.98 152.96 472.97 146.05
  Q 472.97 139.13 472.94 138.60
  A 1.71 1.69 -68.2 0 0 472.41 137.34
  L 472.32 137.26
  A 0.42 0.42 0.0 0 1 472.60 136.53
  Q 473.54 136.50 474.51 136.50
  Z"
/>
<path fill="#fbfcfc" d="
  M 499.89 145.99
  C 499.92 150.85 497.75 154.14 492.78 155.34
  Q 491.48 155.66 483.19 155.57
  A 0.41 0.41 0.0 0 1 482.94 154.84
  L 483.13 154.70
  A 1.26 1.26 0.0 0 0 483.64 153.68
  Q 483.68 152.73 483.65 146.06
  Q 483.62 139.39 483.56 138.45
  A 1.26 1.26 0.0 0 0 483.05 137.43
  L 482.86 137.29
  A 0.41 0.41 0.0 0 1 483.10 136.56
  Q 491.39 136.39 492.69 136.70
  C 497.68 137.85 499.87 141.12 499.89 145.99
  Z
  M 486.26 138.78
  L 486.34 153.44
  A 0.43 0.43 0.0 0 0 486.77 153.86
  L 489.94 153.85
  A 7.02 6.74 89.7 0 0 496.64 146.79
  L 496.64 145.31
  A 7.02 6.74 89.7 0 0 489.86 138.33
  L 486.69 138.34
  A 0.43 0.43 0.0 0 0 486.26 138.78
  Z"
/>
<path fill="#fbfcfc" d="
  M 304.47 154.99
  L 305.02 154.51
  A 1.24 1.24 0.0 0 0 305.44 153.58
  L 305.44 138.61
  A 0.68 0.66 -66.5 0 0 305.27 138.16
  L 304.46 137.23
  A 0.25 0.25 0.0 0 1 304.62 136.81
  Q 305.90 136.71 306.80 137.01
  A 1.79 1.77 -11.6 0 1 307.58 137.52
  L 318.89 150.07
  A 0.27 0.26 -66.2 0 0 319.35 149.89
  L 319.35 138.60
  A 0.68 0.66 -66.5 0 0 319.18 138.15
  L 318.41 137.28
  A 0.28 0.28 0.0 0 1 318.62 136.81
  L 322.32 136.81
  A 0.37 0.37 0.0 0 1 322.54 137.48
  Q 322.41 137.57 322.15 137.71
  A 0.89 0.88 -14.1 0 0 321.68 138.49
  L 321.68 154.56
  A 1.21 1.21 0.0 0 1 319.56 155.36
  L 308.29 142.55
  A 0.16 0.16 0.0 0 0 308.01 142.66
  L 308.01 153.72
  A 1.10 1.09 24.6 0 0 308.28 154.44
  L 308.82 155.05
  A 0.31 0.31 0.0 0 1 308.59 155.57
  L 304.69 155.57
  A 0.33 0.33 0.0 0 1 304.47 154.99
  Z"
/>
<circle fill="#fbfcfc" cx="465.57" cy="153.67" r="2.03"/>
<path fill="#fbfcfc" d="
  M 174.65 183.08
  Q 173.04 180.77 172.79 180.46
  A 0.25 0.25 0.0 0 0 172.35 180.62
  L 172.33 186.87
  A 0.37 0.36 0.2 0 1 171.95 187.23
  L 171.67 187.23
  A 0.37 0.37 0.0 0 1 171.31 186.86
  L 171.33 178.82
  A 0.61 0.61 0.0 0 1 172.38 178.39
  Q 173.45 179.50 175.54 182.54
  Q 177.11 184.88 177.36 185.18
  A 0.25 0.25 0.0 0 0 177.81 185.03
  L 177.83 178.77
  A 0.37 0.36 0.2 0 1 178.20 178.42
  L 178.48 178.42
  A 0.37 0.37 0.0 0 1 178.85 178.79
  L 178.82 186.83
  A 0.61 0.61 0.0 0 1 177.77 187.26
  Q 176.70 186.15 174.65 183.08
  Z"
/>
<path fill="#fbfcfc" d="
  M 199.61 182.88
  Q 199.64 183.62 196.10 183.26
  A 0.93 0.92 -87.0 0 0 195.08 184.18
  L 195.08 185.75
  A 0.81 0.81 0.0 0 0 195.89 186.56
  L 199.34 186.56
  A 0.32 0.32 0.0 0 1 199.66 186.88
  L 199.66 187.24
  A 0.27 0.27 0.0 0 1 199.39 187.51
  L 194.78 187.47
  A 0.68 0.66 81.9 0 1 194.14 186.98
  Q 193.99 186.42 194.05 182.79
  Q 194.11 179.16 194.28 178.60
  A 0.68 0.66 -80.0 0 1 194.94 178.13
  L 199.55 178.25
  A 0.27 0.27 0.0 0 1 199.81 178.53
  L 199.79 178.89
  A 0.32 0.32 0.0 0 1 199.46 179.20
  L 196.02 179.08
  A 0.81 0.81 0.0 0 0 195.18 179.86
  L 195.13 181.43
  A 0.93 0.92 88.9 0 0 196.12 182.39
  Q 199.67 182.15 199.61 182.88
  Z"
/>
<path fill="#fbfcfc" d="
  M 201.85 186.91
  L 201.85 179.01
  A 0.81 0.81 0.0 0 1 202.53 178.21
  C 204.95 177.83 208.20 177.83 208.55 180.81
  Q 208.72 182.22 206.62 183.36
  A 0.71 0.71 0.0 0 0 206.43 184.45
  L 208.58 186.89
  A 0.34 0.34 0.0 0 1 208.33 187.45
  L 207.86 187.45
  A 0.20 0.17 66.3 0 1 207.72 187.38
  L 204.74 184.00
  A 1.02 1.02 0.0 0 0 202.95 184.67
  L 202.95 187.00
  A 0.34 0.34 0.0 0 1 202.61 187.34
  L 202.29 187.34
  A 0.44 0.43 0.0 0 1 201.85 186.91
  Z
  M 202.86 179.80
  L 202.81 182.02
  A 0.64 0.64 0.0 0 0 203.43 182.67
  L 205.52 182.72
  A 1.81 1.57 1.3 0 0 207.37 181.19
  L 207.37 180.83
  A 1.81 1.57 1.3 0 0 205.60 179.22
  L 203.51 179.17
  A 0.64 0.64 0.0 0 0 202.86 179.80
  Z"
/>
<path fill="#fbfcfc" d="
  M 210.39 184.78
  L 211.98 186.19
  A 1.89 1.89 0.0 0 0 214.65 186.03
  L 214.88 185.79
  A 1.19 1.19 0.0 0 0 214.52 183.94
  Q 213.43 183.38 212.04 183.04
  A 2.63 2.38 9.0 0 1 210.05 180.56
  C 210.19 177.34 214.55 177.44 216.11 179.81
  A 0.45 0.45 0.0 0 1 215.56 180.48
  Q 214.70 180.12 214.13 179.49
  A 1.81 1.62 -59.4 0 0 211.28 180.39
  Q 211.07 181.09 211.73 181.59
  C 213.42 182.85 214.96 181.94 216.17 184.31
  A 1.22 1.21 42.9 0 1 216.21 185.33
  C 214.88 188.60 211.03 188.35 209.86 185.14
  A 0.33 0.33 0.0 0 1 210.39 184.78
  Z"
/>
<path fill="#fbfcfc" d="
  M 240.91 178.15
  Q 241.44 178.15 241.60 178.50
  Q 243.00 181.48 245.24 186.86
  A 0.38 0.38 0.0 0 1 245.02 187.36
  L 244.65 187.50
  A 0.28 0.28 0.0 0 1 244.29 187.34
  L 243.65 185.64
  A 0.91 0.91 0.0 0 0 242.62 185.07
  Q 242.06 185.18 240.90 185.18
  Q 239.73 185.18 239.18 185.06
  A 0.91 0.91 0.0 0 0 238.14 185.63
  L 237.50 187.33
  A 0.28 0.28 0.0 0 1 237.14 187.49
  L 236.77 187.35
  A 0.38 0.38 0.0 0 1 236.55 186.85
  Q 238.80 181.47 240.21 178.50
  Q 240.37 178.15 240.91 178.15
  Z
  M 240.85 184.37
  Q 242.35 184.39 242.41 184.39
  A 0.41 0.41 0.0 0 0 242.75 183.83
  L 241.09 179.66
  A 0.12 0.05 3.7 0 0 240.99 179.61
  Q 240.96 179.60 240.93 179.60
  Q 240.91 179.60 240.88 179.61
  A 0.12 0.05 -1.8 0 0 240.78 179.65
  L 238.98 183.77
  A 0.41 0.41 0.0 0 0 239.30 184.33
  Q 239.36 184.34 240.85 184.37
  Z"
/>
<path fill="#fbfcfc" d="
  M 248.32 184.09
  A 0.62 0.61 85.6 0 0 247.80 184.71
  L 247.80 186.97
  A 0.31 0.31 0.0 0 1 247.49 187.28
  L 247.10 187.28
  A 0.39 0.38 89.9 0 1 246.72 186.89
  L 246.71 178.82
  A 0.65 0.65 0.0 0 1 247.31 178.17
  C 249.41 177.99 252.34 177.78 253.11 180.35
  Q 253.60 181.92 251.87 183.32
  A 1.62 1.55 -67.3 0 1 251.11 183.65
  L 248.32 184.09
  Z
  M 247.73 179.75
  L 247.81 182.43
  A 0.51 0.51 0.0 0 0 248.33 182.93
  L 249.56 182.89
  A 2.60 1.75 -1.6 0 0 252.11 181.07
  L 252.11 180.87
  A 2.60 1.75 -1.6 0 0 249.46 179.19
  L 248.23 179.23
  A 0.51 0.51 0.0 0 0 247.73 179.75
  Z"
/>
<path fill="#fbfcfc" d="
  M 255.88 184.71
  L 255.88 186.97
  A 0.31 0.31 0.0 0 1 255.57 187.28
  L 255.18 187.28
  A 0.39 0.38 -90.0 0 1 254.80 186.89
  L 254.80 178.83
  A 0.65 0.65 0.0 0 1 255.40 178.18
  C 257.50 178.00 260.43 177.80 261.20 180.37
  Q 261.68 181.94 259.95 183.33
  A 1.62 1.55 -67.2 0 1 259.19 183.66
  L 256.40 184.10
  A 0.62 0.61 85.7 0 0 255.88 184.71
  Z
  M 255.78 179.95
  L 255.88 182.27
  A 0.66 0.66 0.0 0 0 256.57 182.90
  L 257.83 182.85
  A 2.46 1.70 -2.4 0 0 260.21 181.05
  L 260.20 180.81
  A 2.46 1.70 -2.4 0 0 257.67 179.21
  L 256.42 179.27
  A 0.66 0.66 0.0 0 0 255.78 179.95
  Z"
/>
<path fill="#fbfcfc" d="
  M 272.68 182.86
  Q 272.68 180.04 275.34 178.61
  Q 278.71 176.80 281.52 180.52
  A 0.38 0.37 -43.5 0 1 281.51 180.99
  L 281.23 181.31
  A 0.38 0.37 49.7 0 1 280.62 181.25
  Q 278.38 177.66 275.16 179.99
  Q 273.87 180.93 273.86 182.85
  Q 273.86 184.80 275.16 185.74
  Q 278.38 188.07 280.62 184.48
  A 0.38 0.37 -49.7 0 1 281.23 184.43
  L 281.51 184.75
  A 0.38 0.37 43.5 0 1 281.52 185.22
  Q 278.71 188.93 275.34 187.12
  Q 272.68 185.69 272.68 182.86
  Z"
/>
<path fill="#fbfcfc" d="
  M 295.11 187.51
  Q 294.22 187.51 294.48 180.21
  A 0.92 0.92 0.0 0 0 293.72 179.27
  Q 293.13 179.17 292.23 179.33
  A 0.63 0.63 0.0 0 1 291.52 178.92
  Q 291.40 178.59 291.71 178.29
  A 0.49 0.48 -71.6 0 1 291.94 178.17
  Q 291.99 178.16 295.07 178.15
  Q 298.15 178.14 298.20 178.15
  A 0.49 0.48 71.1 0 1 298.44 178.26
  Q 298.75 178.56 298.63 178.89
  A 0.63 0.63 0.0 0 1 297.93 179.31
  Q 297.02 179.15 296.43 179.26
  A 0.92 0.92 0.0 0 0 295.68 180.20
  Q 296.00 187.51 295.11 187.51
  Z"
/>
<path fill="#fbfcfc" d="
  M 312.60 182.85
  A 4.76 4.76 0.0 0 1 307.84 187.61
  A 4.76 4.76 0.0 0 1 303.08 182.85
  A 4.76 4.76 0.0 0 1 307.84 178.09
  A 4.76 4.76 0.0 0 1 312.60 182.85
  Z
  M 311.53 182.86
  A 3.68 3.68 0.0 0 0 307.85 179.18
  A 3.68 3.68 0.0 0 0 304.17 182.86
  A 3.68 3.68 0.0 0 0 307.85 186.54
  A 3.68 3.68 0.0 0 0 311.53 182.86
  Z"
/>
<path fill="#fbfcfc" d="
  M 318.70 182.53
  Q 320.33 184.94 320.58 185.25
  A 0.26 0.26 0.0 0 0 321.04 185.09
  L 321.04 178.65
  A 0.38 0.37 -0.0 0 1 321.42 178.28
  L 321.71 178.28
  A 0.38 0.38 0.0 0 1 322.09 178.66
  L 322.09 186.94
  A 0.63 0.63 0.0 0 1 321.01 187.38
  Q 319.91 186.24 317.79 183.10
  Q 316.12 180.72 315.87 180.41
  A 0.26 0.26 0.0 0 0 315.41 180.57
  L 315.41 187.01
  A 0.38 0.37 -0.0 0 1 315.03 187.38
  L 314.74 187.38
  A 0.38 0.38 0.0 0 1 314.36 187.00
  L 314.36 178.72
  A 0.63 0.63 0.0 0 1 315.44 178.28
  Q 316.54 179.42 318.70 182.53
  Z"
/>
<path fill="#fbfcfc" d="
  M 330.34 178.13
  Q 333.40 178.10 333.45 178.12
  A 0.48 0.47 70.8 0 1 333.68 178.23
  Q 333.99 178.52 333.88 178.85
  A 0.63 0.63 0.0 0 1 333.18 179.27
  Q 332.28 179.12 331.69 179.23
  A 0.91 0.91 0.0 0 0 330.95 180.17
  Q 331.32 187.43 330.43 187.44
  Q 329.54 187.45 329.76 180.19
  A 0.91 0.91 0.0 0 0 329.00 179.26
  Q 328.41 179.16 327.51 179.33
  A 0.63 0.63 0.0 0 1 326.81 178.92
  Q 326.69 178.59 326.99 178.30
  A 0.48 0.47 -72.0 0 1 327.22 178.18
  Q 327.27 178.17 330.34 178.13
  Z"
/>
<path fill="#fbfcfc" d="
  M 336.24 187.39
  L 335.92 187.39
  A 0.44 0.43 0.2 0 1 335.48 186.96
  L 335.51 179.02
  A 0.81 0.81 0.0 0 1 336.20 178.22
  C 338.63 177.85 341.89 177.86 342.24 180.85
  Q 342.40 182.27 340.29 183.41
  A 0.72 0.71 -35.0 0 0 340.09 184.50
  L 342.24 186.96
  A 0.34 0.34 0.0 0 1 341.99 187.53
  L 341.52 187.52
  A 0.20 0.17 66.5 0 1 341.38 187.45
  L 338.39 184.05
  A 1.03 1.02 24.6 0 0 336.59 184.71
  L 336.58 187.05
  A 0.34 0.34 0.0 0 1 336.24 187.39
  Z
  M 336.55 179.87
  L 336.57 182.15
  A 0.66 0.66 0.0 0 0 337.24 182.80
  L 338.53 182.78
  A 2.49 1.72 -0.7 0 0 341.00 181.03
  L 341.00 180.87
  A 2.49 1.72 -0.7 0 0 338.49 179.18
  L 337.20 179.20
  A 0.66 0.66 0.0 0 0 336.55 179.87
  Z"
/>
<path fill="#fbfcfc" d="
  M 347.42 185.14
  Q 346.26 185.13 345.71 185.02
  A 0.90 0.90 0.0 0 0 344.68 185.58
  L 344.04 187.27
  A 0.28 0.28 0.0 0 1 343.68 187.43
  L 343.31 187.29
  A 0.38 0.38 0.0 0 1 343.09 186.79
  Q 345.35 181.45 346.76 178.49
  Q 346.92 178.14 347.46 178.15
  Q 347.98 178.15 348.14 178.49
  Q 349.53 181.46 351.74 186.82
  A 0.38 0.38 0.0 0 1 351.52 187.32
  L 351.15 187.46
  A 0.28 0.28 0.0 0 1 350.80 187.30
  L 350.16 185.60
  A 0.90 0.90 0.0 0 0 349.14 185.03
  Q 348.58 185.14 347.42 185.14
  Z
  M 347.37 184.33
  Q 348.72 184.34 348.78 184.33
  A 0.60 0.60 0.0 0 0 349.25 183.66
  C 349.15 183.04 348.60 182.16 348.27 181.07
  Q 347.99 180.13 347.41 180.12
  Q 346.81 180.12 346.51 181.06
  C 346.17 182.14 345.61 183.01 345.50 183.63
  A 0.60 0.60 0.0 0 0 345.96 184.31
  Q 346.02 184.32 347.37 184.33
  Z"
/>
<path fill="#fbfcfc" d="
  M 353.77 182.91
  Q 353.79 184.84 355.10 185.77
  Q 358.34 188.08 360.56 184.46
  A 0.38 0.38 0.0 0 1 361.17 184.40
  L 361.45 184.72
  A 0.38 0.37 43.0 0 1 361.47 185.19
  Q 358.68 188.94 355.28 187.16
  Q 352.61 185.75 352.58 182.92
  Q 352.56 180.07 355.21 178.62
  Q 358.58 176.77 361.43 180.48
  A 0.38 0.37 -44.0 0 1 361.42 180.95
  L 361.14 181.27
  A 0.38 0.38 0.0 0 1 360.53 181.22
  Q 358.25 177.64 355.05 180.00
  Q 353.75 180.96 353.77 182.91
  Z"
/>
<path fill="#fbfcfc" d="
  M 365.50 182.75
  Q 365.50 182.89 365.53 182.92
  Q 368.35 185.58 369.43 186.91
  A 0.41 0.41 0.0 0 1 368.88 187.50
  Q 366.88 186.07 365.13 183.78
  A 0.42 0.42 0.0 0 0 364.38 184.03
  L 364.38 186.96
  A 0.44 0.44 0.0 0 1 363.90 187.40
  Q 363.47 187.38 363.41 186.94
  Q 363.39 186.78 363.37 182.77
  Q 363.34 178.75 363.36 178.60
  Q 363.41 178.15 363.84 178.13
  A 0.44 0.44 0.0 0 1 364.33 178.56
  L 364.36 181.49
  A 0.42 0.42 0.0 0 0 365.12 181.73
  Q 366.84 179.42 368.82 177.96
  A 0.41 0.41 0.0 0 1 369.38 178.55
  Q 368.31 179.89 365.53 182.58
  Q 365.50 182.62 365.50 182.75
  Z"
/>
<path fill="#fbfcfc" d="
  M 388.94 183.90
  A 0.33 0.33 0.0 0 1 388.61 183.57
  L 388.61 183.17
  A 0.28 0.28 0.0 0 1 388.89 182.89
  L 392.53 182.89
  A 0.93 0.92 5.6 0 1 393.44 183.99
  C 392.58 188.22 387.50 188.82 385.04 185.54
  A 2.83 2.74 19.1 0 1 384.61 184.69
  C 382.89 179.14 389.51 175.50 392.98 180.13
  A 0.53 0.53 0.0 0 1 392.21 180.84
  L 390.91 179.71
  A 2.15 2.11 66.4 0 0 389.59 179.18
  Q 385.61 178.97 385.51 182.95
  C 385.42 186.88 390.67 188.17 392.05 184.35
  A 0.33 0.33 0.0 0 0 391.74 183.90
  L 388.94 183.90
  Z"
/>
<path fill="#fbfcfc" d="
  M 398.33 184.81
  L 399.94 186.21
  A 1.90 1.90 0.0 0 0 402.62 186.03
  L 402.84 185.78
  A 1.20 1.19 -56.4 0 0 402.47 183.93
  Q 401.37 183.38 399.97 183.05
  A 2.64 2.39 8.5 0 1 397.95 180.59
  C 398.06 177.36 402.43 177.42 404.02 179.78
  A 0.45 0.45 0.0 0 1 403.48 180.45
  Q 402.61 180.10 402.03 179.47
  A 1.81 1.62 -59.9 0 0 399.18 180.40
  Q 398.98 181.11 399.65 181.60
  C 401.35 182.85 402.89 181.92 404.12 184.29
  A 1.22 1.22 0.0 0 1 404.17 185.31
  C 402.87 188.60 399.01 188.39 397.80 185.18
  A 0.33 0.33 0.0 0 1 398.33 184.81
  Z"
/>
<path fill="#fbfcfc" d="
  M 414.88 182.85
  A 4.77 4.77 0.0 0 1 410.11 187.62
  A 4.77 4.77 0.0 0 1 405.34 182.85
  A 4.77 4.77 0.0 0 1 410.11 178.08
  A 4.77 4.77 0.0 0 1 414.88 182.85
  Z
  M 410.0639 179.0903
  A 3.77 3.56 -90.7 0 0 406.5503 182.9035
  A 3.77 3.56 -90.7 0 0 410.1561 186.6297
  A 3.77 3.56 -90.7 0 0 413.6697 182.8165
  A 3.77 3.56 -90.7 0 0 410.0639 179.0903
  Z"
/>
<path fill="#fbfcfc" d="
  M 435.58 187.36
  Q 434.70 187.36 434.99 180.12
  A 0.91 0.91 0.0 0 0 434.24 179.19
  Q 433.65 179.09 432.76 179.24
  A 0.63 0.63 0.0 0 1 432.06 178.83
  Q 431.94 178.50 432.25 178.21
  A 0.48 0.47 -71.4 0 1 432.48 178.10
  Q 432.53 178.08 435.58 178.08
  Q 438.63 178.08 438.69 178.10
  A 0.48 0.47 71.4 0 1 438.92 178.21
  Q 439.22 178.51 439.11 178.83
  A 0.63 0.63 0.0 0 1 438.41 179.24
  Q 437.51 179.09 436.92 179.19
  A 0.91 0.91 0.0 0 0 436.17 180.12
  Q 436.47 187.36 435.58 187.36
  Z"
/>
<path fill="#fbfcfc" d="
  M 452.94 182.86
  A 4.75 4.75 0.0 0 1 448.19 187.61
  A 4.75 4.75 0.0 0 1 443.44 182.86
  A 4.75 4.75 0.0 0 1 448.19 178.11
  A 4.75 4.75 0.0 0 1 452.94 182.86
  Z
  M 447.9097 179.0897
  A 3.78 3.58 -94.1 0 0 444.6092 183.1160
  A 3.78 3.58 -94.1 0 0 448.4503 186.6303
  A 3.78 3.58 -94.1 0 0 451.7508 182.6040
  A 3.78 3.58 -94.1 0 0 447.9097 179.0897
  Z"
/>
<path fill="#fbfcfc" d="
  M 165.36 187.62
  C 160.77 187.64 161.85 181.44 161.97 178.85
  A 0.47 0.47 0.0 0 1 162.44 178.40
  L 162.71 178.40
  A 0.27 0.27 0.0 0 1 162.98 178.67
  L 162.98 184.35
  A 0.95 0.30 68.6 0 0 162.99 184.47
  Q 163.26 186.60 165.38 186.59
  Q 167.47 186.58 167.73 184.46
  A 0.95 0.30 -69.0 0 0 167.73 184.33
  L 167.70 178.65
  A 0.27 0.27 0.0 0 1 167.96 178.38
  L 168.24 178.38
  A 0.47 0.47 0.0 0 1 168.71 178.83
  C 168.84 181.42 169.97 187.60 165.36 187.62
  Z"
/>
<rect fill="#fbfcfc" x="-0.60" y="-4.61" transform="translate(181.97,182.85) rotate(0.1)" width="1.20" height="9.22" rx="0.58"/>
<path fill="#fbfcfc" d="
  M 188.28 185.63
  Q 188.51 185.64 188.70 185.44
  A 0.14 0.10 85.6 0 0 188.73 185.39
  L 191.27 178.50
  A 0.37 0.36 10.5 0 1 191.61 178.27
  L 191.95 178.27
  A 0.39 0.39 0.0 0 1 192.32 178.79
  Q 190.96 182.73 189.24 186.50
  Q 188.73 187.61 188.28 187.61
  Q 187.82 187.61 187.31 186.49
  Q 185.62 182.71 184.29 178.76
  A 0.39 0.39 0.0 0 1 184.66 178.25
  L 185.00 178.25
  A 0.37 0.36 -10.2 0 1 185.34 178.48
  L 187.84 185.39
  A 0.14 0.10 -85.2 0 0 187.86 185.44
  Q 188.06 185.63 188.28 185.63
  Z"
/>
<path fill="#fbfcfc" d="
  M 221.41 185.11
  Q 220.25 185.11 219.70 185.00
  A 0.90 0.90 0.0 0 0 218.68 185.56
  L 218.04 187.25
  A 0.28 0.28 0.0 0 1 217.68 187.41
  L 217.32 187.27
  A 0.38 0.37 21.8 0 1 217.10 186.77
  Q 219.33 181.44 220.72 178.49
  Q 220.88 178.14 221.42 178.14
  Q 221.94 178.14 222.10 178.49
  Q 223.49 181.44 225.72 186.77
  A 0.38 0.37 -21.7 0 1 225.50 187.27
  L 225.14 187.41
  A 0.28 0.28 0.0 0 1 224.78 187.25
  L 224.14 185.57
  A 0.90 0.90 0.0 0 0 223.12 185.00
  Q 222.57 185.11 221.41 185.11
  Z
  M 221.47 184.37
  Q 222.83 184.37 222.89 184.35
  A 0.60 0.60 0.0 0 0 223.35 183.67
  C 223.24 183.05 222.68 182.17 222.34 181.08
  Q 222.04 180.14 221.46 180.14
  Q 220.85 180.14 220.57 181.09
  C 220.23 182.18 219.68 183.07 219.58 183.69
  A 0.60 0.60 0.0 0 0 220.05 184.37
  Q 220.11 184.38 221.47 184.37
  Z"
/>
<path fill="#fbfcfc" d="
  M 232.30 187.48
  L 227.90 187.48
  A 0.65 0.65 0.0 0 1 227.25 186.83
  L 227.25 178.79
  A 0.46 0.46 0.0 0 1 227.71 178.33
  L 227.99 178.33
  A 0.40 0.39 0.0 0 1 228.39 178.72
  L 228.39 185.88
  A 0.73 0.72 90.0 0 0 229.11 186.61
  L 232.54 186.61
  A 0.11 0.11 0.0 0 1 232.65 186.72
  L 232.65 187.12
  A 0.36 0.35 -90.0 0 1 232.30 187.48
  Z"
/>
<path fill="#fbfcfc" d="
  M 268.13 186.74
  L 268.12 187.14
  A 0.36 0.35 -88.8 0 1 267.77 187.49
  L 263.38 187.40
  A 0.65 0.65 0.0 0 1 262.74 186.74
  L 262.90 178.72
  A 0.46 0.46 0.0 0 1 263.37 178.27
  L 263.65 178.28
  A 0.40 0.39 1.2 0 1 264.04 178.68
  L 263.90 185.82
  A 0.73 0.72 -88.8 0 0 264.60 186.56
  L 268.02 186.63
  A 0.11 0.11 0.0 0 1 268.13 186.74
  Z"
/>
<rect fill="#fbfcfc" x="-0.56" y="-4.51" transform="translate(270.29,182.85) rotate(0.1)" width="1.12" height="9.02" rx="0.46"/>
<path fill="#fbfcfc" d="
  M 286.68 185.23
  Q 285.50 185.24 284.94 185.13
  A 0.92 0.92 0.0 0 0 283.90 185.71
  L 283.26 187.43
  A 0.28 0.28 0.0 0 1 282.89 187.60
  L 282.52 187.46
  A 0.39 0.38 21.5 0 1 282.29 186.95
  Q 284.54 181.50 285.95 178.48
  Q 286.11 178.13 286.66 178.13
  Q 287.19 178.12 287.36 178.47
  Q 288.79 181.48 291.09 186.91
  A 0.39 0.38 -22.0 0 1 290.87 187.42
  L 290.50 187.56
  A 0.28 0.28 0.0 0 1 290.13 187.40
  L 289.47 185.69
  A 0.92 0.92 0.0 0 0 288.43 185.11
  Q 287.86 185.23 286.68 185.23
  Z
  M 284.76 183.65
  A 0.48 0.48 0.0 0 0 285.19 184.33
  L 288.09 184.38
  A 0.48 0.48 0.0 0 0 288.54 183.72
  L 287.16 180.31
  A 0.48 0.48 0.0 0 0 286.27 180.29
  L 284.76 183.65
  Z"
/>
<rect fill="#fbfcfc" x="-0.54" y="-4.61" transform="translate(300.86,182.85) rotate(0.1)" width="1.08" height="9.22" rx="0.52"/>
<rect fill="#fbfcfc" x="-0.55" y="-4.60" transform="translate(371.81,182.89) rotate(0.1)" width="1.10" height="9.20" rx="0.53"/>
<path fill="#fbfcfc" d="
  M 378.12 183.05
  Q 376.44 180.62 376.19 180.31
  A 0.26 0.26 0.0 0 0 375.72 180.46
  L 375.67 187.00
  A 0.39 0.38 0.4 0 1 375.28 187.37
  L 374.99 187.37
  A 0.39 0.39 0.0 0 1 374.61 186.98
  L 374.67 178.58
  A 0.64 0.64 0.0 0 1 375.77 178.14
  Q 376.88 179.30 379.05 182.48
  Q 380.69 184.94 380.94 185.26
  A 0.26 0.26 0.0 0 0 381.41 185.10
  L 381.46 178.56
  A 0.39 0.38 0.4 0 1 381.84 178.19
  L 382.14 178.19
  A 0.39 0.39 0.0 0 1 382.52 178.58
  L 382.46 186.98
  A 0.64 0.64 0.0 0 1 381.36 187.42
  Q 380.25 186.26 378.12 183.05
  Z"
/>
<path fill="#fbfcfc" d="
  M 422.03 186.73
  L 422.03 187.14
  A 0.36 0.35 -89.7 0 1 421.67 187.50
  L 417.21 187.48
  A 0.66 0.66 0.0 0 1 416.56 186.82
  L 416.60 178.67
  A 0.47 0.47 0.0 0 1 417.07 178.21
  L 417.35 178.21
  A 0.41 0.40 0.3 0 1 417.75 178.61
  L 417.72 185.86
  A 0.74 0.73 -89.7 0 0 418.44 186.61
  L 421.92 186.62
  A 0.11 0.11 0.0 0 1 422.03 186.73
  Z"
/>
<path fill="#fbfcfc" d="
  M 426.97 186.60
  Q 429.13 186.60 429.39 184.44
  A 0.97 0.31 -69.0 0 0 429.40 184.31
  L 429.37 178.53
  A 0.27 0.27 0.0 0 1 429.64 178.26
  L 429.92 178.26
  A 0.48 0.48 0.0 0 1 430.40 178.71
  C 430.53 181.35 431.67 187.64 427.00 187.65
  C 422.31 187.66 423.42 181.37 423.54 178.73
  A 0.48 0.48 0.0 0 1 424.02 178.27
  L 424.30 178.27
  A 0.27 0.27 0.0 0 1 424.57 178.54
  L 424.56 184.32
  A 0.97 0.31 68.7 0 0 424.57 184.45
  Q 424.85 186.61 426.97 186.60
  Z"
/>
<rect fill="#fbfcfc" x="-0.54" y="-4.57" transform="translate(441.12,182.88) rotate(0.3)" width="1.08" height="9.14" rx="0.52"/>
<path fill="#fbfcfc" d="
  M 458.04 183.01
  Q 456.38 180.62 456.13 180.30
  A 0.26 0.26 0.0 0 0 455.67 180.46
  L 455.64 186.92
  A 0.38 0.37 0.3 0 1 455.26 187.29
  L 454.96 187.29
  A 0.38 0.38 0.0 0 1 454.59 186.91
  L 454.62 178.60
  A 0.63 0.63 0.0 0 1 455.71 178.16
  Q 456.81 179.31 458.96 182.45
  Q 460.59 184.87 460.84 185.18
  A 0.26 0.26 0.0 0 0 461.30 185.02
  L 461.33 178.56
  A 0.38 0.37 0.3 0 1 461.71 178.20
  L 462.00 178.20
  A 0.38 0.38 0.0 0 1 462.38 178.58
  L 462.34 186.89
  A 0.63 0.63 0.0 0 1 461.26 187.32
  Q 460.16 186.17 458.04 183.01
  Z"
/>
</svg>
